Orbitron-Black.ufo
<glyph name="exclam" format="2">
  <advance width="249.0"/>
  <unicode hex="0021"/>
  <outline>
    <contour>
      <point x="201.0" y="0.0" type="line"/>
      <point x="201.0" y="153.0" type="line"/>
      <point x="48.0" y="153.0" type="line"/>
      <point x="48.0" y="0.0" type="line"/>
    </contour>
    <contour>
      <point x="48.0" y="201.0" type="line"/>
      <point x="201.0" y="201.0" type="line"/>
      <point x="201.0" y="720.0" type="line"/>
      <point x="48.0" y="720.0" type="line"/>
    </contour>
  </outline>
</glyph>
<glyph name="quotedbl" format="2">
  <advance width="396.0"/>
  <unicode hex="0022"/>
  <outline>
    <contour>
      <point x="188.0" y="706.0" type="line"/>
      <point x="36.0" y="706.0" type="line"/>
      <point x="36.0" y="505.0" type="line"/>
      <point x="188.0" y="505.0" type="line"/>
    </contour>
    <contour>
      <point x="369.0" y="706.0" type="line"/>
      <point x="217.0" y="706.0" type="line"/>
      <point x="217.0" y="505.0" type="line"/>
      <point x="369.0" y="505.0" type="line"/>
    </contour>
  </outline>
</glyph>
<glyph name="numbersign" format="2">
  <advance width="797.0"/>
  <unicode hex="0023"/>
  <outline>
    <contour>
      <point x="750.0" y="570.0" type="line"/>
      <point x="683.0" y="570.0" type="line"/>
      <point x="734.0" y="720.0" type="line"/>
      <point x="577.0" y="720.0" type="line"/>
      <point x="529.0" y="570.0" type="line"/>
      <point x="391.0" y="570.0" type="line"/>
      <point x="442.0" y="720.0" type="line"/>
      <point x="284.0" y="720.0" type="line"/>
      <point x="236.0" y="570.0" type="line"/>
      <point x="60.0" y="570.0" type="line"/>
      <point x="60.0" y="417.0" type="line"/>
      <point x="187.0" y="417.0" type="line"/>
      <point x="153.0" y="311.0" type="line"/>
      <point x="32.0" y="311.0" type="line"/>
      <point x="32.0" y="158.0" type="line"/>
      <point x="107.0" y="158.0" type="line"/>
      <point x="60.0" y="0.0" type="line"/>
      <point x="215.0" y="0.0" type="line"/>
      <point x="259.0" y="158.0" type="line"/>
      <point x="399.0" y="158.0" type="line"/>
      <point x="351.0" y="0.0" type="line"/>
      <point x="506.0" y="0.0" type="line"/>
      <point x="551.0" y="158.0" type="line"/>
      <point x="722.0" y="158.0" type="line"/>
      <point x="722.0" y="311.0" type="line"/>
      <point x="601.0" y="311.0" type="line"/>
      <point x="635.0" y="417.0" type="line"/>
      <point x="750.0" y="417.0" type="line"/>
    </contour>
    <contour>
      <point x="309.0" y="311.0" type="line"/>
      <point x="343.0" y="417.0" type="line"/>
      <point x="479.0" y="417.0" type="line"/>
      <point x="445.0" y="311.0" type="line"/>
    </contour>
  </outline>
</glyph>
<glyph name="dollar" format="2">
  <advance width="788.0"/>
  <unicode hex="0024"/>
  <outline>
    <contour>
      <point x="310.0" y="-98.0" type="line"/>
      <point x="464.0" y="-98.0" type="line"/>
      <point x="464.0" y="0.0" type="line"/>
      <point x="595.0" y="0.0" type="line" smooth="yes"/>
      <point x="654.701" y="0.0"/>
      <point x="740.0" y="86.045"/>
      <point x="740.0" y="145.0" type="qcurve" smooth="yes"/>
      <point x="740.0" y="287.0" type="line" smooth="yes"/>
      <point x="740.0" y="346.702"/>
      <point x="654.701" y="433.0"/>
      <point x="595.0" y="433.0" type="qcurve" smooth="yes"/>
      <point x="464.0" y="433.0" type="line"/>
      <point x="464.0" y="567.0" type="line"/>
      <point x="554.0" y="567.0" type="line" smooth="yes"/>
      <point x="587.0" y="567.0"/>
      <point x="587.0" y="567.0"/>
      <point x="587.0" y="534.0" type="qcurve" smooth="yes"/>
      <point x="587.0" y="509.0" type="line"/>
      <point x="740.0" y="509.0" type="line"/>
      <point x="740.0" y="575.0" type="line" smooth="yes"/>
      <point x="740.0" y="634.701"/>
      <point x="655.0" y="720.0"/>
      <point x="595.0" y="720.0" type="qcurve" smooth="yes"/>
      <point x="464.0" y="720.0" type="line"/>
      <point x="464.0" y="818.0" type="line"/>
      <point x="310.0" y="818.0" type="line"/>
      <point x="310.0" y="720.0" type="line"/>
      <point x="179.0" y="720.0" type="line" smooth="yes"/>
      <point x="119.299" y="720.0"/>
      <point x="34.0" y="634.701"/>
      <point x="34.0" y="575.0" type="qcurve" smooth="yes"/>
      <point x="34.0" y="425.0" type="line" smooth="yes"/>
      <point x="34.0" y="365.298"/>
      <point x="119.299" y="280.0"/>
      <point x="179.0" y="280.0" type="qcurve" smooth="yes"/>
      <point x="310.0" y="280.0" type="line"/>
      <point x="310.0" y="153.0" type="line"/>
      <point x="220.0" y="153.0" type="line" smooth="yes"/>
      <point x="187.0" y="153.0"/>
      <point x="187.0" y="153.0"/>
      <point x="187.0" y="186.0" type="qcurve" smooth="yes"/>
      <point x="187.0" y="211.0" type="line"/>
      <point x="34.0" y="211.0" type="line"/>
      <point x="34.0" y="145.0" type="line" smooth="yes"/>
      <point x="34.0" y="86.045"/>
      <point x="119.299" y="0.0"/>
      <point x="179.0" y="0.0" type="qcurve" smooth="yes"/>
      <point x="310.0" y="0.0" type="line"/>
    </contour>
    <contour>
      <point x="464.0" y="153.0" type="line"/>
      <point x="464.0" y="280.0" type="line"/>
      <point x="554.0" y="280.0" type="line" smooth="yes"/>
      <point x="587.0" y="280.0"/>
      <point x="587.0" y="280.0"/>
      <point x="587.0" y="247.0" type="qcurve" smooth="yes"/>
      <point x="587.0" y="186.0" type="line" smooth="yes"/>
      <point x="587.0" y="153.0"/>
      <point x="587.0" y="153.0"/>
      <point x="554.0" y="153.0" type="qcurve" smooth="yes"/>
    </contour>
    <contour>
      <point x="220.0" y="433.0" type="line" smooth="yes"/>
      <point x="187.0" y="433.0"/>
      <point x="187.0" y="433.0"/>
      <point x="187.0" y="466.0" type="qcurve" smooth="yes"/>
      <point x="187.0" y="534.0" type="line" smooth="yes"/>
      <point x="187.0" y="567.0"/>
      <point x="187.0" y="567.0"/>
      <point x="220.0" y="567.0" type="qcurve" smooth="yes"/>
      <point x="310.0" y="567.0" type="line"/>
      <point x="310.0" y="433.0" type="line"/>
    </contour>
  </outline>
</glyph>
<glyph name="percent" format="2">
  <advance width="966.0"/>
  <unicode hex="0025"/>
  <outline>
    <contour>
      <point x="134.0" y="0.0" type="line"/>
      <point x="185.0" y="0.0" type="line"/>
      <point x="841.0" y="563.0" type="line"/>
      <point x="841.0" y="719.0" type="line"/>
      <point x="790.0" y="719.0" type="line"/>
      <point x="134.0" y="157.0" type="line"/>
    </contour>
    <contour>
      <point x="184.0" y="369.0" type="qcurve" smooth="yes"/>
      <point x="265.0" y="369.0" type="line" smooth="yes"/>
      <point x="324.702" y="369.0"/>
      <point x="401.0" y="445.298"/>
      <point x="401.0" y="505.0" type="qcurve" smooth="yes"/>
      <point x="401.0" y="577.0" type="line" smooth="yes"/>
      <point x="401.0" y="636.701"/>
      <point x="324.702" y="712.0"/>
      <point x="265.0" y="712.0" type="qcurve" smooth="yes"/>
      <point x="184.0" y="712.0" type="line" smooth="yes"/>
      <point x="124.299" y="712.0"/>
      <point x="48.0" y="636.701"/>
      <point x="48.0" y="577.0" type="qcurve" smooth="yes"/>
      <point x="48.0" y="505.0" type="line" smooth="yes"/>
      <point x="48.0" y="445.298"/>
      <point x="124.299" y="369.0"/>
    </contour>
    <contour>
      <point x="206.0" y="495.0" type="line" smooth="yes"/>
      <point x="192.0" y="495.0"/>
      <point x="173.0" y="514.0"/>
      <point x="173.0" y="528.0" type="qcurve" smooth="yes"/>
      <point x="173.0" y="554.0" type="line" smooth="yes"/>
      <point x="173.0" y="568.0"/>
      <point x="192.0" y="587.0"/>
      <point x="206.0" y="587.0" type="qcurve" smooth="yes"/>
      <point x="242.0" y="587.0" type="line" smooth="yes"/>
      <point x="256.0" y="587.0"/>
      <point x="275.0" y="568.0"/>
      <point x="275.0" y="554.0" type="qcurve" smooth="yes"/>
      <point x="275.0" y="528.0" type="line" smooth="yes"/>
      <point x="275.0" y="514.0"/>
      <point x="256.0" y="495.0"/>
      <point x="242.0" y="495.0" type="qcurve" smooth="yes"/>
    </contour>
    <contour>
      <point x="692.0" y="9.0" type="qcurve" smooth="yes"/>
      <point x="773.0" y="9.0" type="line" smooth="yes"/>
      <point x="832.701" y="9.0"/>
      <point x="909.0" y="85.299"/>
      <point x="909.0" y="145.0" type="qcurve" smooth="yes"/>
      <point x="909.0" y="217.0" type="line" smooth="yes"/>
      <point x="909.0" y="276.702"/>
      <point x="832.701" y="352.0"/>
      <point x="773.0" y="352.0" type="qcurve" smooth="yes"/>
      <point x="692.0" y="352.0" type="line" smooth="yes"/>
      <point x="633.045" y="352.0"/>
      <point x="557.0" y="276.702"/>
      <point x="557.0" y="217.0" type="qcurve" smooth="yes"/>
      <point x="557.0" y="145.0" type="line" smooth="yes"/>
      <point x="557.0" y="85.299"/>
      <point x="633.045" y="9.0"/>
    </contour>
    <contour>
      <point x="715.0" y="134.0" type="line" smooth="yes"/>
      <point x="701.0" y="134.0"/>
      <point x="682.0" y="153.0"/>
      <point x="682.0" y="167.0" type="qcurve" smooth="yes"/>
      <point x="682.0" y="194.0" type="line" smooth="yes"/>
      <point x="682.0" y="208.0"/>
      <point x="701.0" y="227.0"/>
      <point x="715.0" y="227.0" type="qcurve" smooth="yes"/>
      <point x="751.0" y="227.0" type="line" smooth="yes"/>
      <point x="765.0" y="227.0"/>
      <point x="784.0" y="208.0"/>
      <point x="784.0" y="194.0" type="qcurve" smooth="yes"/>
      <point x="784.0" y="167.0" type="line" smooth="yes"/>
      <point x="784.0" y="153.0"/>
      <point x="765.0" y="134.0"/>
      <point x="751.0" y="134.0" type="qcurve" smooth="yes"/>
    </contour>
  </outline>
</glyph>
<glyph name="ampersand" format="2">
  <advance width="938.0"/>
  <unicode hex="0026"/>
  <outline>
    <contour>
      <point x="198.0" y="0.0" type="qcurve" smooth="yes"/>
      <point x="614.0" y="0.0" type="line" smooth="yes"/>
      <point x="649.0" y="0.0"/>
      <point x="713.0" y="34.0"/>
      <point x="734.0" y="62.0" type="qcurve"/>
      <point x="874.0" y="-18.0" type="line"/>
      <point x="874.0" y="140.0" type="line"/>
      <point x="759.0" y="208.0" type="line"/>
      <point x="759.0" y="369.0" type="line"/>
      <point x="606.0" y="369.0" type="line"/>
      <point x="606.0" y="274.0" type="line"/>
      <point x="242.0" y="457.0" type="line"/>
      <point x="242.0" y="532.0" type="line" smooth="yes"/>
      <point x="242.0" y="565.0"/>
      <point x="242.0" y="565.0"/>
      <point x="275.0" y="565.0" type="qcurve" smooth="yes"/>
      <point x="546.0" y="565.0" type="line" smooth="yes"/>
      <point x="579.0" y="565.0"/>
      <point x="579.0" y="565.0"/>
      <point x="579.0" y="532.0" type="qcurve" smooth="yes"/>
      <point x="579.0" y="512.0" type="line"/>
      <point x="732.0" y="512.0" type="line"/>
      <point x="732.0" y="600.0" type="line"/>
      <point x="723.0" y="651.0"/>
      <point x="640.0" y="719.0"/>
      <point x="587.0" y="719.0" type="qcurve" smooth="yes"/>
      <point x="234.0" y="719.0" type="line" smooth="yes"/>
      <point x="195.0" y="719.0"/>
      <point x="89.0" y="648.0"/>
      <point x="89.0" y="574.0" type="qcurve" smooth="yes"/>
      <point x="89.0" y="467.0" type="line" smooth="yes"/>
      <point x="89.0" y="453.0"/>
      <point x="96.0" y="414.0" type="qcurve"/>
      <point x="53.0" y="352.0"/>
      <point x="53.0" y="330.0" type="qcurve" smooth="yes"/>
      <point x="53.0" y="145.0" type="line"/>
      <point x="92.0" y="39.0"/>
      <point x="159.0" y="0.0"/>
    </contour>
    <contour>
      <point x="264.0" y="168.0" type="line" smooth="yes"/>
      <point x="232.0" y="168.0"/>
      <point x="232.0" y="168.0"/>
      <point x="232.0" y="207.0" type="qcurve" smooth="yes"/>
      <point x="232.0" y="245.0" type="line" smooth="yes"/>
      <point x="232.0" y="284.0"/>
      <point x="232.0" y="284.0"/>
      <point x="241.0" y="284.0" type="qcurve" smooth="yes"/>
      <point x="249.0" y="284.0" type="line"/>
      <point x="495.0" y="168.0" type="line"/>
      <point x="475.0" y="168.0"/>
      <point x="475.0" y="168.0"/>
      <point x="455.0" y="168.0" type="qcurve" smooth="yes"/>
    </contour>
  </outline>
</glyph>
<glyph name="quotesingle" format="2">
  <advance width="249.0"/>
  <unicode hex="0027"/>
  <outline>
    <contour>
      <point x="201.0" y="706.0" type="line"/>
      <point x="48.0" y="706.0" type="line"/>
      <point x="48.0" y="504.0" type="line"/>
      <point x="201.0" y="504.0" type="line"/>
    </contour>
  </outline>
</glyph>
<glyph name="parenleft" format="2">
  <advance width="294.0"/>
  <unicode hex="0028"/>
  <outline>
    <contour>
      <point x="197.0" y="0.0" type="qcurve" smooth="yes"/>
      <point x="263.0" y="0.0" type="line"/>
      <point x="263.0" y="153.0" type="line"/>
      <point x="238.0" y="153.0" type="line" smooth="yes"/>
      <point x="205.0" y="153.0"/>
      <point x="205.0" y="153.0"/>
      <point x="205.0" y="186.0" type="qcurve" smooth="yes"/>
      <point x="205.0" y="534.0" type="line" smooth="yes"/>
      <point x="205.0" y="567.0"/>
      <point x="205.0" y="567.0"/>
      <point x="238.0" y="567.0" type="qcurve" smooth="yes"/>
      <point x="263.0" y="567.0" type="line"/>
      <point x="263.0" y="720.0" type="line"/>
      <point x="197.0" y="720.0" type="line" smooth="yes"/>
      <point x="137.299" y="720.0"/>
      <point x="52.0" y="634.701"/>
      <point x="52.0" y="575.0" type="qcurve" smooth="yes"/>
      <point x="52.0" y="145.0" type="line" smooth="yes"/>
      <point x="52.0" y="86.045"/>
      <point x="137.299" y="0.0"/>
    </contour>
  </outline>
</glyph>
<glyph name="parenright" format="2">
  <advance width="297.0"/>
  <unicode hex="0029"/>
  <outline>
    <contour>
      <point x="56.0" y="0.0" type="line"/>
      <point x="123.0" y="0.0" type="line" smooth="yes"/>
      <point x="181.955" y="0.0"/>
      <point x="268.0" y="86.045"/>
      <point x="268.0" y="145.0" type="qcurve" smooth="yes"/>
      <point x="268.0" y="575.0" type="line" smooth="yes"/>
      <point x="268.0" y="634.701"/>
      <point x="181.955" y="720.0"/>
      <point x="123.0" y="720.0" type="qcurve" smooth="yes"/>
      <point x="56.0" y="720.0" type="line"/>
      <point x="56.0" y="567.0" type="line"/>
      <point x="81.0" y="567.0" type="line" smooth="yes"/>
      <point x="114.0" y="567.0"/>
      <point x="114.0" y="567.0"/>
      <point x="114.0" y="534.0" type="qcurve" smooth="yes"/>
      <point x="114.0" y="186.0" type="line" smooth="yes"/>
      <point x="114.0" y="153.0"/>
      <point x="114.0" y="153.0"/>
      <point x="81.0" y="153.0" type="qcurve" smooth="yes"/>
      <point x="56.0" y="153.0" type="line"/>
    </contour>
  </outline>
</glyph>
<glyph name="asterisk" format="2">
  <advance width="516.0"/>
  <unicode hex="002A"/>
  <outline>
    <contour>
      <point x="445.0" y="627.0" type="line"/>
      <point x="335.0" y="590.0" type="line"/>
      <point x="335.0" y="706.0" type="line"/>
      <point x="181.0" y="706.0" type="line"/>
      <point x="181.0" y="590.0" type="line"/>
      <point x="72.0" y="627.0" type="line"/>
      <point x="25.0" y="479.0" type="line"/>
      <point x="135.0" y="444.0" type="line"/>
      <point x="66.0" y="351.0" type="line"/>
      <point x="191.0" y="261.0" type="line"/>
      <point x="257.0" y="354.0" type="line"/>
      <point x="328.0" y="261.0" type="line"/>
      <point x="451.0" y="351.0" type="line"/>
      <point x="382.0" y="444.0" type="line"/>
      <point x="492.0" y="479.0" type="line"/>
    </contour>
  </outline>
</glyph>
<glyph name="plus" format="2">
  <advance width="455.0"/>
  <unicode hex="002B"/>
  <outline>
    <contour>
      <point x="147.0" y="503.0" type="line"/>
      <point x="147.0" y="372.0" type="line"/>
      <point x="17.0" y="372.0" type="line"/>
      <point x="17.0" y="219.0" type="line"/>
      <point x="147.0" y="219.0" type="line"/>
      <point x="147.0" y="86.0" type="line"/>
      <point x="300.0" y="86.0" type="line"/>
      <point x="300.0" y="219.0" type="line"/>
      <point x="434.0" y="219.0" type="line"/>
      <point x="434.0" y="372.0" type="line"/>
      <point x="300.0" y="372.0" type="line"/>
      <point x="300.0" y="503.0" type="line"/>
    </contour>
  </outline>
</glyph>
<glyph name="comma" format="2">
  <advance width="243.0"/>
  <unicode hex="002C"/>
  <outline>
    <contour>
      <point x="54.0" y="142.0" type="line"/>
      <point x="54.0" y="-133.0" type="line"/>
      <point x="118.925" y="-121.806"/>
      <point x="207.0" y="-38.478"/>
      <point x="207.0" y="16.0" type="qcurve" smooth="yes"/>
      <point x="207.0" y="142.0" type="line"/>
    </contour>
  </outline>
</glyph>
<glyph name="hyphen" format="2">
  <advance width="345.0"/>
  <unicode hex="002D"/>
  <outline>
    <contour>
      <point x="465.0" y="372.0" type="line"/>
      <point x="48.0" y="372.0" type="line"/>
      <point x="48.0" y="219.0" type="line"/>
      <point x="465.0" y="219.0" type="line"/>
    </contour>
  </outline>
</glyph>
<glyph name="slash" format="2">
  <advance width="521.0"/>
  <unicode hex="002F"/>
  <outline>
    <contour>
      <point x="6.0" y="155.0" type="line"/>
      <point x="6.0" y="0.0" type="line"/>
      <point x="61.0" y="0.0" type="line"/>
      <point x="522.0" y="566.0" type="line"/>
      <point x="522.0" y="720.0" type="line"/>
      <point x="467.0" y="720.0" type="line"/>
    </contour>
  </outline>
</glyph>
<glyph name="zero" format="2">
  <advance width="819.0"/>
  <unicode hex="0030"/>
  <outline>
    <contour>
      <point x="202.0" y="0.0" type="qcurve" smooth="yes"/>
      <point x="617.0" y="0.0" type="line" smooth="yes"/>
      <point x="677.0" y="0.0"/>
      <point x="763.0" y="96.0"/>
      <point x="763.0" y="155.0" type="qcurve" smooth="yes"/>
      <point x="763.0" y="571.0" type="line" smooth="yes"/>
      <point x="763.0" y="631.0"/>
      <point x="677.0" y="720.0"/>
      <point x="617.0" y="720.0" type="qcurve" smooth="yes"/>
      <point x="202.0" y="720.0" type="line" smooth="yes"/>
      <point x="142.0" y="720.0"/>
      <point x="56.0" y="631.0"/>
      <point x="56.0" y="571.0" type="qcurve" smooth="yes"/>
      <point x="56.0" y="155.0" type="line" smooth="yes"/>
      <point x="56.0" y="96.0"/>
      <point x="142.0" y="0.0"/>
    </contour>
    <contour>
      <point x="291.0" y="163.0" type="line"/>
      <point x="610.0" y="431.0" type="line"/>
      <point x="610.0" y="196.0" type="line" smooth="yes"/>
      <point x="610.0" y="163.0"/>
      <point x="610.0" y="163.0"/>
      <point x="577.0" y="163.0" type="qcurve" smooth="yes"/>
    </contour>
    <contour>
      <point x="209.0" y="295.0" type="line"/>
      <point x="209.0" y="530.0" type="line" smooth="yes"/>
      <point x="209.0" y="563.0"/>
      <point x="209.0" y="563.0"/>
      <point x="242.0" y="563.0" type="qcurve" smooth="yes"/>
      <point x="528.0" y="563.0" type="line"/>
    </contour>
  </outline>
</glyph>
<glyph name="one" format="2">
  <advance width="445.0"/>
  <unicode hex="0031"/>
  <outline>
    <contour>
      <point x="236.0" y="0.0" type="line"/>
      <point x="389.0" y="0.0" type="line"/>
      <point x="389.0" y="720.0" type="line"/>
      <point x="230.0" y="720.0" type="line"/>
      <point x="0.0" y="446.0" type="line"/>
      <point x="203.0" y="446.0" type="line"/>
      <point x="236.0" y="487.0" type="line"/>
    </contour>
  </outline>
</glyph>
<glyph name="two" format="2">
  <advance width="819.0"/>
  <unicode hex="0032"/>
  <outline>
    <contour>
      <point x="56.0" y="0.0" type="line"/>
      <point x="763.0" y="0.0" type="line"/>
      <point x="763.0" y="153.0" type="line"/>
      <point x="242.0" y="153.0" type="line" smooth="yes"/>
      <point x="209.0" y="153.0"/>
      <point x="209.0" y="153.0"/>
      <point x="209.0" y="186.0" type="qcurve" smooth="yes"/>
      <point x="209.0" y="237.0" type="line" smooth="yes"/>
      <point x="209.0" y="270.0"/>
      <point x="209.0" y="270.0"/>
      <point x="242.0" y="270.0" type="qcurve" smooth="yes"/>
      <point x="617.0" y="270.0" type="line" smooth="yes"/>
      <point x="677.0" y="270.0"/>
      <point x="763.0" y="356.0"/>
      <point x="763.0" y="416.0" type="qcurve" smooth="yes"/>
      <point x="763.0" y="575.0" type="line" smooth="yes"/>
      <point x="763.0" y="635.0"/>
      <point x="677.0" y="720.0"/>
      <point x="617.0" y="720.0" type="qcurve" smooth="yes"/>
      <point x="202.0" y="720.0" type="line" smooth="yes"/>
      <point x="142.0" y="720.0"/>
      <point x="56.0" y="635.0"/>
      <point x="56.0" y="575.0" type="qcurve" smooth="yes"/>
      <point x="56.0" y="509.0" type="line"/>
      <point x="209.0" y="509.0" type="line"/>
      <point x="209.0" y="534.0" type="line" smooth="yes"/>
      <point x="209.0" y="567.0"/>
      <point x="209.0" y="567.0"/>
      <point x="242.0" y="567.0" type="qcurve" smooth="yes"/>
      <point x="577.0" y="567.0" type="line" smooth="yes"/>
      <point x="610.0" y="567.0"/>
      <point x="610.0" y="567.0"/>
      <point x="610.0" y="534.0" type="qcurve" smooth="yes"/>
      <point x="610.0" y="457.0" type="line" smooth="yes"/>
      <point x="610.0" y="424.0"/>
      <point x="610.0" y="424.0"/>
      <point x="577.0" y="424.0" type="qcurve" smooth="yes"/>
      <point x="202.0" y="424.0" type="line" smooth="yes"/>
      <point x="142.0" y="424.0"/>
      <point x="56.0" y="339.0"/>
      <point x="56.0" y="279.0" type="qcurve" smooth="yes"/>
    </contour>
  </outline>
</glyph>
<glyph name="three" format="2">
  <advance width="819.0"/>
  <unicode hex="0033"/>
  <outline>
    <contour>
      <point x="202.0" y="0.0" type="qcurve" smooth="yes"/>
      <point x="618.0" y="0.0" type="line" smooth="yes"/>
      <point x="678.0" y="0.0"/>
      <point x="763.0" y="86.0"/>
      <point x="763.0" y="145.0" type="qcurve" smooth="yes"/>
      <point x="763.0" y="294.0" type="line" smooth="yes"/>
      <point x="763.0" y="320.0"/>
      <point x="745.0" y="367.0"/>
      <point x="730.0" y="385.0" type="qcurve"/>
      <point x="733.0" y="395.0"/>
      <point x="736.0" y="420.0"/>
      <point x="736.0" y="431.0" type="qcurve" smooth="yes"/>
      <point x="736.0" y="575.0" type="line" smooth="yes"/>
      <point x="736.0" y="635.0"/>
      <point x="651.0" y="720.0"/>
      <point x="591.0" y="720.0" type="qcurve" smooth="yes"/>
      <point x="202.0" y="720.0" type="line" smooth="yes"/>
      <point x="142.0" y="720.0"/>
      <point x="56.0" y="635.0"/>
      <point x="56.0" y="575.0" type="qcurve" smooth="yes"/>
      <point x="56.0" y="511.0" type="line"/>
      <point x="209.0" y="511.0" type="line"/>
      <point x="209.0" y="534.0" type="line" smooth="yes"/>
      <point x="209.0" y="567.0"/>
      <point x="209.0" y="567.0"/>
      <point x="242.0" y="567.0" type="qcurve" smooth="yes"/>
      <point x="550.0" y="567.0" type="line" smooth="yes"/>
      <point x="583.0" y="567.0"/>
      <point x="583.0" y="567.0"/>
      <point x="583.0" y="534.0" type="qcurve" smooth="yes"/>
      <point x="583.0" y="472.0" type="line" smooth="yes"/>
      <point x="583.0" y="439.0"/>
      <point x="583.0" y="439.0"/>
      <point x="550.0" y="439.0" type="qcurve" smooth="yes"/>
      <point x="174.0" y="439.0" type="line"/>
      <point x="174.0" y="286.0" type="line"/>
      <point x="577.0" y="286.0" type="line" smooth="yes"/>
      <point x="610.0" y="286.0"/>
      <point x="610.0" y="286.0"/>
      <point x="610.0" y="253.0" type="qcurve" smooth="yes"/>
      <point x="610.0" y="186.0" type="line" smooth="yes"/>
      <point x="610.0" y="153.0"/>
      <point x="610.0" y="153.0"/>
      <point x="577.0" y="153.0" type="qcurve" smooth="yes"/>
      <point x="242.0" y="153.0" type="line" smooth="yes"/>
      <point x="209.0" y="153.0"/>
      <point x="209.0" y="153.0"/>
      <point x="209.0" y="186.0" type="qcurve" smooth="yes"/>
      <point x="209.0" y="201.0" type="line"/>
      <point x="56.0" y="201.0" type="line"/>
      <point x="56.0" y="145.0" type="line" smooth="yes"/>
      <point x="56.0" y="86.0"/>
      <point x="142.0" y="0.0"/>
    </contour>
  </outline>
</glyph>
<glyph name="four" format="2">
  <advance width="712.0"/>
  <unicode hex="0034"/>
  <outline>
    <contour>
      <point x="447.0" y="0.0" type="line"/>
      <point x="600.0" y="0.0" type="line"/>
      <point x="600.0" y="179.0" type="line"/>
      <point x="696.0" y="179.0" type="line"/>
      <point x="696.0" y="333.0" type="line"/>
      <point x="600.0" y="333.0" type="line"/>
      <point x="600.0" y="720.0" type="line"/>
      <point x="463.0" y="720.0" type="line"/>
      <point x="16.0" y="316.0" type="line"/>
      <point x="16.0" y="179.0" type="line"/>
      <point x="447.0" y="179.0" type="line"/>
    </contour>
    <contour>
      <point x="265.0" y="333.0" type="line"/>
      <point x="447.0" y="481.0" type="line"/>
      <point x="447.0" y="333.0" type="line"/>
    </contour>
  </outline>
</glyph>
<glyph name="five" format="2">
  <advance width="830.0"/>
  <unicode hex="0035"/>
  <outline>
    <contour>
      <point x="203.0" y="0.0" type="qcurve" smooth="yes"/>
      <point x="618.0" y="0.0" type="line" smooth="yes"/>
      <point x="677.701" y="0.0"/>
      <point x="764.0" y="86.045"/>
      <point x="764.0" y="145.0" type="qcurve" smooth="yes"/>
      <point x="764.0" y="297.0" type="line" smooth="yes"/>
      <point x="764.0" y="356.702"/>
      <point x="677.701" y="442.0"/>
      <point x="618.0" y="442.0" type="qcurve" smooth="yes"/>
      <point x="243.0" y="442.0" type="line" smooth="yes"/>
      <point x="210.0" y="442.0"/>
      <point x="210.0" y="442.0"/>
      <point x="210.0" y="475.0" type="qcurve" smooth="yes"/>
      <point x="210.0" y="534.0" type="line" smooth="yes"/>
      <point x="210.0" y="567.0"/>
      <point x="210.0" y="567.0"/>
      <point x="243.0" y="567.0" type="qcurve" smooth="yes"/>
      <point x="764.0" y="567.0" type="line"/>
      <point x="764.0" y="720.0" type="line"/>
      <point x="57.0" y="720.0" type="line"/>
      <point x="57.0" y="288.0" type="line"/>
      <point x="578.0" y="288.0" type="line" smooth="yes"/>
      <point x="611.0" y="288.0"/>
      <point x="611.0" y="288.0"/>
      <point x="611.0" y="255.0" type="qcurve" smooth="yes"/>
      <point x="611.0" y="186.0" type="line" smooth="yes"/>
      <point x="611.0" y="153.0"/>
      <point x="611.0" y="153.0"/>
      <point x="578.0" y="153.0" type="qcurve" smooth="yes"/>
      <point x="243.0" y="153.0" type="line" smooth="yes"/>
      <point x="210.0" y="153.0"/>
      <point x="210.0" y="153.0"/>
      <point x="210.0" y="186.0" type="qcurve" smooth="yes"/>
      <point x="210.0" y="201.0" type="line"/>
      <point x="57.0" y="201.0" type="line"/>
      <point x="57.0" y="145.0" type="line" smooth="yes"/>
      <point x="57.0" y="86.045"/>
      <point x="143.299" y="0.0"/>
    </contour>
  </outline>
</glyph>
<glyph name="six" format="2">
  <advance width="820.0"/>
  <unicode hex="0036"/>
  <outline>
    <contour>
      <point x="203.0" y="0.0" type="qcurve" smooth="yes"/>
      <point x="618.0" y="0.0" type="line" smooth="yes"/>
      <point x="677.701" y="0.0"/>
      <point x="764.0" y="86.045"/>
      <point x="764.0" y="145.0" type="qcurve" smooth="yes"/>
      <point x="764.0" y="297.0" type="line" smooth="yes"/>
      <point x="764.0" y="356.702"/>
      <point x="677.701" y="442.0"/>
      <point x="618.0" y="442.0" type="qcurve" smooth="yes"/>
      <point x="243.0" y="442.0" type="line" smooth="yes"/>
      <point x="210.0" y="442.0"/>
      <point x="210.0" y="442.0"/>
      <point x="210.0" y="475.0" type="qcurve" smooth="yes"/>
      <point x="210.0" y="534.0" type="line" smooth="yes"/>
      <point x="210.0" y="567.0"/>
      <point x="210.0" y="567.0"/>
      <point x="243.0" y="567.0" type="qcurve" smooth="yes"/>
      <point x="655.0" y="567.0" type="line"/>
      <point x="655.0" y="720.0" type="line"/>
      <point x="203.0" y="720.0" type="line" smooth="yes"/>
      <point x="143.299" y="720.0"/>
      <point x="57.0" y="634.701"/>
      <point x="57.0" y="575.0" type="qcurve" smooth="yes"/>
      <point x="57.0" y="145.0" type="line" smooth="yes"/>
      <point x="57.0" y="86.045"/>
      <point x="143.299" y="0.0"/>
    </contour>
    <contour>
      <point x="243.0" y="153.0" type="line" smooth="yes"/>
      <point x="210.0" y="153.0"/>
      <point x="210.0" y="153.0"/>
      <point x="210.0" y="186.0" type="qcurve" smooth="yes"/>
      <point x="210.0" y="288.0" type="line"/>
      <point x="578.0" y="288.0" type="line" smooth="yes"/>
      <point x="611.0" y="288.0"/>
      <point x="611.0" y="288.0"/>
      <point x="611.0" y="255.0" type="qcurve" smooth="yes"/>
      <point x="611.0" y="186.0" type="line" smooth="yes"/>
      <point x="611.0" y="153.0"/>
      <point x="611.0" y="153.0"/>
      <point x="578.0" y="153.0" type="qcurve" smooth="yes"/>
    </contour>
  </outline>
</glyph>
<glyph name="seven" format="2">
  <advance width="654.0"/>
  <unicode hex="0037"/>
  <outline>
    <contour>
      <point x="445.0" y="0.0" type="line"/>
      <point x="598.0" y="0.0" type="line"/>
      <point x="598.0" y="576.0" type="line" smooth="yes"/>
      <point x="598.0" y="636.0"/>
      <point x="513.0" y="721.0"/>
      <point x="453.0" y="721.0" type="qcurve" smooth="yes"/>
      <point x="0.0" y="721.0" type="line"/>
      <point x="0.0" y="568.0" type="line"/>
      <point x="412.0" y="568.0" type="line" smooth="yes"/>
      <point x="445.0" y="568.0"/>
      <point x="445.0" y="568.0"/>
      <point x="445.0" y="535.0" type="qcurve" smooth="yes"/>
    </contour>
  </outline>
</glyph>
<glyph name="eight" format="2">
  <advance width="819.0"/>
  <unicode hex="0038"/>
  <outline>
    <contour>
      <point x="202.0" y="0.0" type="qcurve" smooth="yes"/>
      <point x="617.0" y="0.0" type="line" smooth="yes"/>
      <point x="677.0" y="0.0"/>
      <point x="763.0" y="86.0"/>
      <point x="763.0" y="145.0" type="qcurve" smooth="yes"/>
      <point x="763.0" y="297.0" type="line" smooth="yes"/>
      <point x="763.0" y="315.0"/>
      <point x="755.0" y="349.0"/>
      <point x="746.0" y="365.0" type="qcurve"/>
      <point x="754.0" y="381.0"/>
      <point x="763.0" y="418.0"/>
      <point x="763.0" y="434.0" type="qcurve" smooth="yes"/>
      <point x="763.0" y="601.0" type="line"/>
      <point x="754.0" y="652.0"/>
      <point x="671.0" y="720.0"/>
      <point x="617.0" y="720.0" type="qcurve" smooth="yes"/>
      <point x="202.0" y="720.0" type="line" smooth="yes"/>
      <point x="142.0" y="720.0"/>
      <point x="56.0" y="635.0"/>
      <point x="56.0" y="575.0" type="qcurve" smooth="yes"/>
      <point x="56.0" y="434.0" type="line" smooth="yes"/>
      <point x="56.0" y="416.0"/>
      <point x="66.0" y="381.0"/>
      <point x="73.0" y="365.0" type="qcurve"/>
      <point x="66.0" y="349.0"/>
      <point x="56.0" y="314.0"/>
      <point x="56.0" y="297.0" type="qcurve" smooth="yes"/>
      <point x="56.0" y="145.0" type="line" smooth="yes"/>
      <point x="56.0" y="86.0"/>
      <point x="142.0" y="0.0"/>
    </contour>
    <contour>
      <point x="242.0" y="153.0" type="line" smooth="yes"/>
      <point x="209.0" y="153.0"/>
      <point x="209.0" y="153.0"/>
      <point x="209.0" y="186.0" type="qcurve" smooth="yes"/>
      <point x="209.0" y="255.0" type="line" smooth="yes"/>
      <point x="209.0" y="288.0"/>
      <point x="209.0" y="288.0"/>
      <point x="242.0" y="288.0" type="qcurve" smooth="yes"/>
      <point x="577.0" y="288.0" type="line" smooth="yes"/>
      <point x="610.0" y="288.0"/>
      <point x="610.0" y="288.0"/>
      <point x="610.0" y="255.0" type="qcurve" smooth="yes"/>
      <point x="610.0" y="186.0" type="line" smooth="yes"/>
      <point x="610.0" y="153.0"/>
      <point x="610.0" y="153.0"/>
      <point x="577.0" y="153.0" type="qcurve" smooth="yes"/>
    </contour>
    <contour>
      <point x="242.0" y="432.0" type="line" smooth="yes"/>
      <point x="209.0" y="432.0"/>
      <point x="209.0" y="432.0"/>
      <point x="209.0" y="465.0" type="qcurve" smooth="yes"/>
      <point x="209.0" y="533.0" type="line" smooth="yes"/>
      <point x="209.0" y="566.0"/>
      <point x="209.0" y="566.0"/>
      <point x="242.0" y="566.0" type="qcurve" smooth="yes"/>
      <point x="577.0" y="566.0" type="line" smooth="yes"/>
      <point x="610.0" y="566.0"/>
      <point x="610.0" y="566.0"/>
      <point x="610.0" y="533.0" type="qcurve" smooth="yes"/>
      <point x="610.0" y="465.0" type="line" smooth="yes"/>
      <point x="610.0" y="432.0"/>
      <point x="610.0" y="432.0"/>
      <point x="577.0" y="432.0" type="qcurve" smooth="yes"/>
    </contour>
  </outline>
</glyph>
<glyph name="nine" format="2">
  <advance width="822.0"/>
  <unicode hex="0039"/>
  <outline>
    <contour>
      <point x="205.0" y="0.0" type="qcurve" smooth="yes"/>
      <point x="621.0" y="0.0" type="line" smooth="yes"/>
      <point x="681.0" y="0.0"/>
      <point x="766.0" y="86.0"/>
      <point x="766.0" y="145.0" type="qcurve" smooth="yes"/>
      <point x="766.0" y="575.0" type="line" smooth="yes"/>
      <point x="766.0" y="635.0"/>
      <point x="681.0" y="720.0"/>
      <point x="621.0" y="720.0" type="qcurve" smooth="yes"/>
      <point x="205.0" y="720.0" type="line" smooth="yes"/>
      <point x="145.0" y="720.0"/>
      <point x="59.0" y="635.0"/>
      <point x="59.0" y="575.0" type="qcurve" smooth="yes"/>
      <point x="59.0" y="427.0" type="line" smooth="yes"/>
      <point x="59.0" y="367.0"/>
      <point x="145.0" y="281.0"/>
      <point x="205.0" y="281.0" type="qcurve" smooth="yes"/>
      <point x="580.0" y="281.0" type="line" smooth="yes"/>
      <point x="613.0" y="281.0"/>
      <point x="613.0" y="281.0"/>
      <point x="613.0" y="248.0" type="qcurve" smooth="yes"/>
      <point x="613.0" y="186.0" type="line" smooth="yes"/>
      <point x="613.0" y="153.0"/>
      <point x="613.0" y="153.0"/>
      <point x="580.0" y="153.0" type="qcurve" smooth="yes"/>
      <point x="56.0" y="153.0" type="line"/>
      <point x="67.0" y="89.0"/>
      <point x="151.0" y="0.0"/>
    </contour>
    <contour>
      <point x="246.0" y="435.0" type="line" smooth="yes"/>
      <point x="213.0" y="435.0"/>
      <point x="213.0" y="435.0"/>
      <point x="213.0" y="468.0" type="qcurve" smooth="yes"/>
      <point x="213.0" y="534.0" type="line" smooth="yes"/>
      <point x="213.0" y="567.0"/>
      <point x="213.0" y="567.0"/>
      <point x="246.0" y="567.0" type="qcurve" smooth="yes"/>
      <point x="580.0" y="567.0" type="line" smooth="yes"/>
      <point x="613.0" y="567.0"/>
      <point x="613.0" y="567.0"/>
      <point x="613.0" y="534.0" type="qcurve" smooth="yes"/>
      <point x="613.0" y="435.0" type="line"/>
    </contour>
  </outline>
</glyph>
<glyph name="colon" format="2">
  <advance width="247.0"/>
  <unicode hex="003A"/>
  <outline>
    <contour>
      <point x="54.0" y="153.0" type="line"/>
      <point x="54.0" y="0.0" type="line"/>
      <point x="207.0" y="0.0" type="line"/>
      <point x="207.0" y="153.0" type="line"/>
    </contour>
    <contour>
      <point x="207.0" y="580.0" type="line"/>
      <point x="54.0" y="580.0" type="line"/>
      <point x="54.0" y="426.0" type="line"/>
      <point x="207.0" y="426.0" type="line"/>
    </contour>
  </outline>
</glyph>
<glyph name="semicolon" format="2">
  <advance width="242.0"/>
  <unicode hex="003B"/>
  <outline>
    <contour>
      <point x="202.0" y="580.0" type="line"/>
      <point x="48.0" y="580.0" type="line"/>
      <point x="48.0" y="426.0" type="line"/>
      <point x="202.0" y="426.0" type="line"/>
    </contour>
    <contour>
      <point x="49.0" y="142.0" type="line"/>
      <point x="49.0" y="-133.0" type="line"/>
      <point x="114.0" y="-122.0"/>
      <point x="202.0" y="-38.0"/>
      <point x="202.0" y="16.0" type="qcurve" smooth="yes"/>
      <point x="202.0" y="142.0" type="line"/>
    </contour>
  </outline>
</glyph>
<glyph name="less" format="2">
  <advance width="475.0"/>
  <unicode hex="003C"/>
  <outline>
    <contour>
      <point x="201.0" y="296.0" type="line"/>
      <point x="435.0" y="431.0" type="line"/>
      <point x="435.0" y="607.0" type="line"/>
      <point x="8.0" y="359.0" type="line"/>
      <point x="8.0" y="231.0" type="line"/>
      <point x="435.0" y="-17.0" type="line"/>
      <point x="435.0" y="160.0" type="line"/>
    </contour>
  </outline>
</glyph>
<glyph name="equal" format="2">
  <advance width="638.0"/>
  <unicode hex="003D"/>
  <outline>
    <contour>
      <point x="585.0" y="282.0" type="line"/>
      <point x="59.0" y="282.0" type="line"/>
      <point x="59.0" y="129.0" type="line"/>
      <point x="585.0" y="129.0" type="line"/>
    </contour>
    <contour>
      <point x="585.0" y="484.0" type="line"/>
      <point x="59.0" y="484.0" type="line"/>
      <point x="59.0" y="331.0" type="line"/>
      <point x="585.0" y="331.0" type="line"/>
    </contour>
  </outline>
</glyph>
<glyph name="greater" format="2">
  <advance width="476.0"/>
  <unicode hex="003E"/>
  <outline>
    <contour>
      <point x="40.0" y="-19.0" type="line"/>
      <point x="468.0" y="229.0" type="line"/>
      <point x="468.0" y="358.0" type="line"/>
      <point x="40.0" y="605.0" type="line"/>
      <point x="40.0" y="428.0" type="line"/>
      <point x="273.0" y="294.0" type="line"/>
      <point x="40.0" y="159.0" type="line"/>
    </contour>
  </outline>
</glyph>
<glyph name="question" format="2">
  <advance width="670.0"/>
  <unicode hex="003F"/>
  <outline>
    <contour>
      <point x="113.0" y="194.0" type="line"/>
      <point x="267.0" y="194.0" type="line"/>
      <point x="267.0" y="230.0" type="line" smooth="yes"/>
      <point x="267.0" y="263.0"/>
      <point x="267.0" y="263.0"/>
      <point x="300.0" y="263.0" type="qcurve" smooth="yes"/>
      <point x="492.0" y="263.0" type="line" smooth="yes"/>
      <point x="552.0" y="263.0"/>
      <point x="638.0" y="349.0"/>
      <point x="638.0" y="409.0" type="qcurve" smooth="yes"/>
      <point x="638.0" y="575.0" type="line" smooth="yes"/>
      <point x="638.0" y="635.0"/>
      <point x="552.0" y="720.0"/>
      <point x="492.0" y="720.0" type="qcurve" smooth="yes"/>
      <point x="16.0" y="720.0" type="line"/>
      <point x="16.0" y="567.0" type="line"/>
      <point x="452.0" y="567.0" type="line" smooth="yes"/>
      <point x="485.0" y="567.0"/>
      <point x="485.0" y="567.0"/>
      <point x="485.0" y="534.0" type="qcurve" smooth="yes"/>
      <point x="485.0" y="450.0" type="line" smooth="yes"/>
      <point x="485.0" y="417.0"/>
      <point x="485.0" y="417.0"/>
      <point x="452.0" y="417.0" type="qcurve" smooth="yes"/>
      <point x="258.0" y="417.0" type="line" smooth="yes"/>
      <point x="198.0" y="417.0"/>
      <point x="113.0" y="332.0"/>
      <point x="113.0" y="272.0" type="qcurve" smooth="yes"/>
    </contour>
    <contour>
      <point x="113.0" y="0.0" type="line"/>
      <point x="267.0" y="0.0" type="line"/>
      <point x="267.0" y="153.0" type="line"/>
      <point x="113.0" y="153.0" type="line"/>
    </contour>
  </outline>
</glyph>
<glyph name="at" format="2">
  <advance width="803.0"/>
  <unicode hex="0040"/>
  <outline>
    <contour>
      <point x="194.0" y="0.0" type="qcurve" smooth="yes"/>
      <point x="755.0" y="0.0" type="line"/>
      <point x="755.0" y="153.0" type="line"/>
      <point x="234.0" y="153.0" type="line" smooth="yes"/>
      <point x="201.0" y="153.0"/>
      <point x="201.0" y="153.0"/>
      <point x="201.0" y="186.0" type="qcurve" smooth="yes"/>
      <point x="201.0" y="534.0" type="line" smooth="yes"/>
      <point x="201.0" y="567.0"/>
      <point x="201.0" y="567.0"/>
      <point x="234.0" y="567.0" type="qcurve" smooth="yes"/>
      <point x="569.0" y="567.0" type="line" smooth="yes"/>
      <point x="602.0" y="567.0"/>
      <point x="602.0" y="567.0"/>
      <point x="602.0" y="534.0" type="qcurve" smooth="yes"/>
      <point x="602.0" y="331.0" type="line"/>
      <point x="558.0" y="331.0" type="line"/>
      <point x="558.0" y="394.0" type="line" smooth="yes"/>
      <point x="558.0" y="454.0"/>
      <point x="493.0" y="519.0"/>
      <point x="433.0" y="519.0" type="qcurve" smooth="yes"/>
      <point x="371.0" y="519.0" type="line" smooth="yes"/>
      <point x="311.0" y="519.0"/>
      <point x="245.0" y="454.0"/>
      <point x="245.0" y="394.0" type="qcurve" smooth="yes"/>
      <point x="245.0" y="341.0" type="line" smooth="yes"/>
      <point x="245.0" y="281.0"/>
      <point x="311.0" y="216.0"/>
      <point x="371.0" y="216.0" type="qcurve" smooth="yes"/>
      <point x="755.0" y="216.0" type="line"/>
      <point x="755.0" y="575.0" type="line" smooth="yes"/>
      <point x="755.0" y="635.0"/>
      <point x="669.0" y="720.0"/>
      <point x="609.0" y="720.0" type="qcurve" smooth="yes"/>
      <point x="194.0" y="720.0" type="line" smooth="yes"/>
      <point x="134.0" y="720.0"/>
      <point x="48.0" y="635.0"/>
      <point x="48.0" y="575.0" type="qcurve" smooth="yes"/>
      <point x="48.0" y="145.0" type="line" smooth="yes"/>
      <point x="48.0" y="86.0"/>
      <point x="134.0" y="0.0"/>
    </contour>
    <contour>
      <point x="384.0" y="331.0" type="line" smooth="yes"/>
      <point x="351.0" y="331.0"/>
      <point x="351.0" y="331.0"/>
      <point x="351.0" y="364.0" type="qcurve" smooth="yes"/>
      <point x="351.0" y="380.0" type="line" smooth="yes"/>
      <point x="351.0" y="413.0"/>
      <point x="351.0" y="413.0"/>
      <point x="384.0" y="413.0" type="qcurve" smooth="yes"/>
      <point x="419.0" y="413.0" type="line" smooth="yes"/>
      <point x="452.0" y="413.0"/>
      <point x="452.0" y="413.0"/>
      <point x="452.0" y="380.0" type="qcurve" smooth="yes"/>
      <point x="452.0" y="331.0" type="line"/>
    </contour>
  </outline>
</glyph>
<glyph name="A" format="2">
  <advance width="832.0"/>
  <unicode hex="0041"/>
  <anchor x="416.0" y="0.0" name="bottom"/>
  <anchor x="698.0" y="0.0" name="ogonek"/>
  <anchor x="416.0" y="750.0" name="top"/>
  <outline>
    <contour>
      <point x="56.0" y="0.0" type="line"/>
      <point x="211.0" y="0.0" type="line"/>
      <point x="211.0" y="232.0" type="line"/>
      <point x="619.0" y="232.0" type="line"/>
      <point x="619.0" y="0.0" type="line"/>
      <point x="776.0" y="0.0" type="line"/>
      <point x="776.0" y="572.0" type="line" smooth="yes"/>
      <point x="776.0" y="633.0"/>
      <point x="688.0" y="720.0"/>
      <point x="627.0" y="720.0" type="qcurve" smooth="yes"/>
      <point x="204.0" y="720.0" type="line" smooth="yes"/>
      <point x="143.0" y="720.0"/>
      <point x="56.0" y="633.0"/>
      <point x="56.0" y="572.0" type="qcurve" smooth="yes"/>
    </contour>
    <contour>
      <point x="211.0" y="388.0" type="line"/>
      <point x="211.0" y="531.0" type="line" smooth="yes"/>
      <point x="211.0" y="564.0"/>
      <point x="211.0" y="564.0"/>
      <point x="244.0" y="564.0" type="qcurve" smooth="yes"/>
      <point x="586.0" y="564.0" type="line" smooth="yes"/>
      <point x="619.0" y="564.0"/>
      <point x="619.0" y="564.0"/>
      <point x="619.0" y="531.0" type="qcurve" smooth="yes"/>
      <point x="619.0" y="388.0" type="line"/>
    </contour>
  </outline>
</glyph>
<glyph name="B" format="2">
  <advance width="832.0"/>
  <unicode hex="0042"/>
  <outline>
    <contour>
      <point x="59.0" y="0.0" type="line"/>
      <point x="630.0" y="0.0" type="line" smooth="yes"/>
      <point x="691.194" y="0.0"/>
      <point x="779.0" y="86.806"/>
      <point x="779.0" y="148.0" type="qcurve" smooth="yes"/>
      <point x="779.0" y="297.0" type="line" smooth="yes"/>
      <point x="779.0" y="322.373"/>
      <point x="758.925" y="372.343"/>
      <point x="744.0" y="391.0" type="qcurve"/>
      <point x="747.731" y="400.702"/>
      <point x="751.0" y="424.313"/>
      <point x="751.0" y="437.0" type="qcurve" smooth="yes"/>
      <point x="751.0" y="572.0" type="line" smooth="yes"/>
      <point x="751.0" y="633.194"/>
      <point x="663.448" y="720.0"/>
      <point x="603.0" y="720.0" type="qcurve" smooth="yes"/>
      <point x="59.0" y="720.0" type="line"/>
    </contour>
    <contour>
      <point x="247.0" y="156.0" type="line" smooth="yes"/>
      <point x="214.0" y="156.0"/>
      <point x="214.0" y="156.0"/>
      <point x="214.0" y="189.0" type="qcurve" smooth="yes"/>
      <point x="214.0" y="255.0" type="line" smooth="yes"/>
      <point x="214.0" y="288.0"/>
      <point x="214.0" y="288.0"/>
      <point x="247.0" y="288.0" type="qcurve" smooth="yes"/>
      <point x="589.0" y="288.0" type="line" smooth="yes"/>
      <point x="622.0" y="288.0"/>
      <point x="622.0" y="288.0"/>
      <point x="622.0" y="255.0" type="qcurve" smooth="yes"/>
      <point x="622.0" y="189.0" type="line" smooth="yes"/>
      <point x="622.0" y="156.0"/>
      <point x="622.0" y="156.0"/>
      <point x="589.0" y="156.0" type="qcurve" smooth="yes"/>
    </contour>
    <contour>
      <point x="247.0" y="444.0" type="line" smooth="yes"/>
      <point x="214.0" y="444.0"/>
      <point x="214.0" y="444.0"/>
      <point x="214.0" y="477.0" type="qcurve" smooth="yes"/>
      <point x="214.0" y="531.0" type="line" smooth="yes"/>
      <point x="214.0" y="564.0"/>
      <point x="214.0" y="564.0"/>
      <point x="247.0" y="564.0" type="qcurve" smooth="yes"/>
      <point x="561.0" y="564.0" type="line" smooth="yes"/>
      <point x="594.0" y="564.0"/>
      <point x="594.0" y="564.0"/>
      <point x="594.0" y="531.0" type="qcurve" smooth="yes"/>
      <point x="594.0" y="477.0" type="line" smooth="yes"/>
      <point x="594.0" y="444.0"/>
      <point x="594.0" y="444.0"/>
      <point x="561.0" y="444.0" type="qcurve" smooth="yes"/>
    </contour>
  </outline>
</glyph>
<glyph name="C" format="2">
  <advance width="822.0"/>
  <unicode hex="0043"/>
  <outline>
    <contour>
      <point x="774.0" y="564.0" type="line"/>
      <point x="774.0" y="720.0" type="line"/>
      <point x="204.0" y="720.0" type="line" smooth="yes"/>
      <point x="142.806" y="720.0"/>
      <point x="56.0" y="633.194"/>
      <point x="56.0" y="572.0" type="qcurve" smooth="yes"/>
      <point x="56.0" y="148.0" type="line" smooth="yes"/>
      <point x="56.0" y="86.806"/>
      <point x="142.806" y="0.0"/>
      <point x="204.0" y="0.0" type="qcurve" smooth="yes"/>
      <point x="774.0" y="0.0" type="line"/>
      <point x="774.0" y="156.0" type="line"/>
      <point x="244.0" y="156.0" type="line" smooth="yes"/>
      <point x="211.0" y="156.0"/>
      <point x="211.0" y="156.0"/>
      <point x="211.0" y="189.0" type="qcurve" smooth="yes"/>
      <point x="211.0" y="531.0" type="line" smooth="yes"/>
      <point x="211.0" y="564.0"/>
      <point x="211.0" y="564.0"/>
      <point x="244.0" y="564.0" type="qcurve" smooth="yes"/>
    </contour>
  </outline>
</glyph>
<glyph name="D" format="2">
  <advance width="824.0"/>
  <unicode hex="0044"/>
  <outline>
    <contour>
      <point x="56.0" y="0.0" type="line"/>
      <point x="627.0" y="0.0" type="line" smooth="yes"/>
      <point x="688.0" y="0.0"/>
      <point x="776.0" y="87.0"/>
      <point x="776.0" y="148.0" type="qcurve" smooth="yes"/>
      <point x="776.0" y="572.0" type="line" smooth="yes"/>
      <point x="776.0" y="633.0"/>
      <point x="688.0" y="720.0"/>
      <point x="627.0" y="720.0" type="qcurve" smooth="yes"/>
      <point x="56.0" y="720.0" type="line"/>
    </contour>
    <contour>
      <point x="244.0" y="156.0" type="line" smooth="yes"/>
      <point x="211.0" y="156.0"/>
      <point x="211.0" y="156.0"/>
      <point x="211.0" y="189.0" type="qcurve" smooth="yes"/>
      <point x="211.0" y="531.0" type="line" smooth="yes"/>
      <point x="211.0" y="564.0"/>
      <point x="211.0" y="564.0"/>
      <point x="244.0" y="564.0" type="qcurve" smooth="yes"/>
      <point x="586.0" y="564.0" type="line" smooth="yes"/>
      <point x="619.0" y="564.0"/>
      <point x="619.0" y="564.0"/>
      <point x="619.0" y="531.0" type="qcurve" smooth="yes"/>
      <point x="619.0" y="189.0" type="line" smooth="yes"/>
      <point x="619.0" y="156.0"/>
      <point x="619.0" y="156.0"/>
      <point x="586.0" y="156.0" type="qcurve" smooth="yes"/>
    </contour>
  </outline>
</glyph>
<glyph name="E" format="2">
  <advance width="769.0"/>
  <unicode hex="0045"/>
  <anchor x="396.0" y="0.0" name="bottom"/>
  <anchor x="653.0" y="0.0" name="ogonek"/>
  <anchor x="393.0" y="720.0" name="top"/>
  <outline>
    <contour>
      <point x="721.0" y="720.0" type="line"/>
      <point x="56.0" y="720.0" type="line"/>
      <point x="56.0" y="0.0" type="line"/>
      <point x="721.0" y="0.0" type="line"/>
      <point x="721.0" y="156.0" type="line"/>
      <point x="213.0" y="156.0" type="line"/>
      <point x="213.0" y="282.0" type="line"/>
      <point x="622.0" y="282.0" type="line"/>
      <point x="622.0" y="438.0" type="line"/>
      <point x="213.0" y="438.0" type="line"/>
      <point x="213.0" y="564.0" type="line"/>
      <point x="721.0" y="564.0" type="line"/>
    </contour>
  </outline>
</glyph>
<glyph name="F" format="2">
  <advance width="723.0"/>
  <unicode hex="0046"/>
  <outline>
    <contour>
      <point x="58.0" y="720.0" type="line"/>
      <point x="58.0" y="0.0" type="line"/>
      <point x="215.0" y="0.0" type="line"/>
      <point x="215.0" y="282.0" type="line"/>
      <point x="624.0" y="282.0" type="line"/>
      <point x="624.0" y="438.0" type="line"/>
      <point x="215.0" y="438.0" type="line"/>
      <point x="215.0" y="564.0" type="line"/>
      <point x="723.0" y="564.0" type="line"/>
      <point x="723.0" y="720.0" type="line"/>
    </contour>
  </outline>
</glyph>
<glyph name="G" format="2">
  <advance width="832.0"/>
  <unicode hex="0047"/>
  <outline>
    <contour>
      <point x="204.0" y="0.0" type="qcurve" smooth="yes"/>
      <point x="627.0" y="0.0" type="line" smooth="yes"/>
      <point x="688.194" y="0.0"/>
      <point x="776.0" y="86.806"/>
      <point x="776.0" y="148.0" type="qcurve" smooth="yes"/>
      <point x="776.0" y="420.0" type="line"/>
      <point x="463.0" y="420.0" type="line"/>
      <point x="463.0" y="264.0" type="line"/>
      <point x="619.0" y="264.0" type="line"/>
      <point x="619.0" y="189.0" type="line" smooth="yes"/>
      <point x="619.0" y="156.0"/>
      <point x="619.0" y="156.0"/>
      <point x="586.0" y="156.0" type="qcurve" smooth="yes"/>
      <point x="244.0" y="156.0" type="line" smooth="yes"/>
      <point x="211.0" y="156.0"/>
      <point x="211.0" y="156.0"/>
      <point x="211.0" y="189.0" type="qcurve" smooth="yes"/>
      <point x="211.0" y="531.0" type="line" smooth="yes"/>
      <point x="211.0" y="564.0"/>
      <point x="211.0" y="564.0"/>
      <point x="244.0" y="564.0" type="qcurve" smooth="yes"/>
      <point x="586.0" y="564.0" type="line" smooth="yes"/>
      <point x="619.0" y="564.0"/>
      <point x="619.0" y="564.0"/>
      <point x="619.0" y="531.0" type="qcurve" smooth="yes"/>
      <point x="619.0" y="504.0" type="line"/>
      <point x="776.0" y="504.0" type="line"/>
      <point x="776.0" y="572.0" type="line" smooth="yes"/>
      <point x="776.0" y="633.194"/>
      <point x="688.194" y="720.0"/>
      <point x="627.0" y="720.0" type="qcurve" smooth="yes"/>
      <point x="204.0" y="720.0" type="line" smooth="yes"/>
      <point x="142.806" y="720.0"/>
      <point x="56.0" y="633.194"/>
      <point x="56.0" y="572.0" type="qcurve" smooth="yes"/>
      <point x="56.0" y="148.0" type="line" smooth="yes"/>
      <point x="56.0" y="86.806"/>
      <point x="142.806" y="0.0"/>
    </contour>
  </outline>
</glyph>
<glyph name="H" format="2">
  <advance width="851.0"/>
  <unicode hex="0048"/>
  <outline>
    <contour>
      <point x="637.0" y="720.0" type="line"/>
      <point x="637.0" y="438.0" type="line"/>
      <point x="212.0" y="438.0" type="line"/>
      <point x="212.0" y="720.0" type="line"/>
      <point x="57.0" y="720.0" type="line"/>
      <point x="57.0" y="0.0" type="line"/>
      <point x="212.0" y="0.0" type="line"/>
      <point x="212.0" y="282.0" type="line"/>
      <point x="637.0" y="282.0" type="line"/>
      <point x="637.0" y="0.0" type="line"/>
      <point x="792.0" y="0.0" type="line"/>
      <point x="792.0" y="720.0" type="line"/>
    </contour>
  </outline>
</glyph>
<glyph name="I" format="2">
  <advance width="268.0"/>
  <unicode hex="0049"/>
  <outline>
    <contour>
      <point x="56.0" y="0.0" type="line"/>
      <point x="212.0" y="0.0" type="line"/>
      <point x="212.0" y="720.0" type="line"/>
      <point x="56.0" y="720.0" type="line"/>
    </contour>
  </outline>
</glyph>
<glyph name="J" format="2">
  <advance width="792.0"/>
  <unicode hex="004A"/>
  <outline>
    <contour>
      <point x="164.0" y="0.0" type="qcurve" smooth="yes"/>
      <point x="588.0" y="0.0" type="line" smooth="yes"/>
      <point x="648.0" y="0.0"/>
      <point x="736.0" y="87.0"/>
      <point x="736.0" y="148.0" type="qcurve" smooth="yes"/>
      <point x="736.0" y="720.0" type="line"/>
      <point x="579.0" y="720.0" type="line"/>
      <point x="579.0" y="189.0" type="line" smooth="yes"/>
      <point x="579.0" y="156.0"/>
      <point x="579.0" y="156.0"/>
      <point x="546.0" y="156.0" type="qcurve" smooth="yes"/>
      <point x="204.0" y="156.0" type="line" smooth="yes"/>
      <point x="171.0" y="156.0"/>
      <point x="171.0" y="156.0"/>
      <point x="171.0" y="189.0" type="qcurve" smooth="yes"/>
      <point x="171.0" y="241.0" type="line"/>
      <point x="16.0" y="241.0" type="line"/>
      <point x="16.0" y="148.0" type="line" smooth="yes"/>
      <point x="16.0" y="87.0"/>
      <point x="103.0" y="0.0"/>
    </contour>
  </outline>
</glyph>
<glyph name="K" format="2">
  <advance width="797.0"/>
  <unicode hex="004B"/>
  <outline>
    <contour>
      <point x="57.0" y="0.0" type="line"/>
      <point x="213.0" y="0.0" type="line"/>
      <point x="213.0" y="282.0" type="line"/>
      <point x="354.0" y="282.0" type="line"/>
      <point x="590.0" y="0.0" type="line"/>
      <point x="752.0" y="0.0" type="line"/>
      <point x="752.0" y="54.0" type="line"/>
      <point x="495.0" y="360.0" type="line"/>
      <point x="752.0" y="666.0" type="line"/>
      <point x="752.0" y="720.0" type="line"/>
      <point x="590.0" y="720.0" type="line"/>
      <point x="374.0" y="438.0" type="line"/>
      <point x="213.0" y="438.0" type="line"/>
      <point x="213.0" y="720.0" type="line"/>
      <point x="57.0" y="720.0" type="line"/>
    </contour>
  </outline>
</glyph>
<glyph name="M" format="2">
  <advance width="920.0"/>
  <unicode hex="004D"/>
  <outline>
    <contour>
      <point x="56.0" y="0.0" type="line"/>
      <point x="211.0" y="0.0" type="line"/>
      <point x="211.0" y="482.0" type="line"/>
      <point x="460.0" y="187.0" type="line"/>
      <point x="708.0" y="483.0" type="line"/>
      <point x="708.0" y="0.0" type="line"/>
      <point x="864.0" y="0.0" type="line"/>
      <point x="864.0" y="720.0" type="line"/>
      <point x="703.0" y="720.0" type="line"/>
      <point x="460.0" y="429.0" type="line"/>
      <point x="216.0" y="720.0" type="line"/>
      <point x="56.0" y="720.0" type="line"/>
    </contour>
  </outline>
</glyph>
<glyph name="N" format="2">
  <advance width="832.0"/>
  <unicode hex="004E"/>
  <outline>
    <contour>
      <point x="619.0" y="240.0" type="line"/>
      <point x="216.0" y="720.0" type="line"/>
      <point x="56.0" y="720.0" type="line"/>
      <point x="56.0" y="0.0" type="line"/>
      <point x="211.0" y="0.0" type="line"/>
      <point x="211.0" y="482.0" type="line"/>
      <point x="616.0" y="0.0" type="line"/>
      <point x="776.0" y="0.0" type="line"/>
      <point x="776.0" y="720.0" type="line"/>
      <point x="619.0" y="720.0" type="line"/>
    </contour>
  </outline>
</glyph>
<glyph name="O" format="2">
  <advance width="816.0"/>
  <unicode hex="004F"/>
  <anchor x="423.0" y="0.0" name="bottom"/>
  <anchor x="411.0" y="719.0" name="top"/>
  <outline>
    <contour>
      <point x="196.0" y="0.0" type="qcurve" smooth="yes"/>
      <point x="620.0" y="0.0" type="line" smooth="yes"/>
      <point x="680.0" y="0.0"/>
      <point x="768.0" y="87.0"/>
      <point x="768.0" y="148.0" type="qcurve" smooth="yes"/>
      <point x="768.0" y="572.0" type="line" smooth="yes"/>
      <point x="768.0" y="633.0"/>
      <point x="680.0" y="720.0"/>
      <point x="620.0" y="720.0" type="qcurve" smooth="yes"/>
      <point x="196.0" y="720.0" type="line" smooth="yes"/>
      <point x="135.0" y="720.0"/>
      <point x="48.0" y="633.0"/>
      <point x="48.0" y="572.0" type="qcurve" smooth="yes"/>
      <point x="48.0" y="148.0" type="line" smooth="yes"/>
      <point x="48.0" y="87.0"/>
      <point x="135.0" y="0.0"/>
    </contour>
    <contour>
      <point x="236.0" y="156.0" type="line" smooth="yes"/>
      <point x="203.0" y="156.0"/>
      <point x="203.0" y="156.0"/>
      <point x="203.0" y="189.0" type="qcurve" smooth="yes"/>
      <point x="203.0" y="531.0" type="line" smooth="yes"/>
      <point x="203.0" y="564.0"/>
      <point x="203.0" y="564.0"/>
      <point x="236.0" y="564.0" type="qcurve" smooth="yes"/>
      <point x="578.0" y="564.0" type="line" smooth="yes"/>
      <point x="611.0" y="564.0"/>
      <point x="611.0" y="564.0"/>
      <point x="611.0" y="531.0" type="qcurve" smooth="yes"/>
      <point x="611.0" y="189.0" type="line" smooth="yes"/>
      <point x="611.0" y="156.0"/>
      <point x="611.0" y="156.0"/>
      <point x="578.0" y="156.0" type="qcurve" smooth="yes"/>
    </contour>
  </outline>
</glyph>
<glyph name="P" format="2">
  <advance width="791.0"/>
  <unicode hex="0050"/>
  <outline>
    <contour>
      <point x="56.0" y="0.0" type="line"/>
      <point x="211.0" y="0.0" type="line"/>
      <point x="211.0" y="236.0" type="line"/>
      <point x="627.0" y="237.0" type="line" smooth="yes"/>
      <point x="688.194" y="237.0"/>
      <point x="776.0" y="324.552"/>
      <point x="776.0" y="385.0" type="qcurve" smooth="yes"/>
      <point x="776.0" y="571.0" type="line" smooth="yes"/>
      <point x="776.0" y="631.448"/>
      <point x="688.194" y="719.0"/>
      <point x="627.0" y="719.0" type="qcurve" smooth="yes"/>
      <point x="56.0" y="719.0" type="line"/>
    </contour>
    <contour>
      <point x="244.0" y="393.0" type="line" smooth="yes"/>
      <point x="211.0" y="393.0"/>
      <point x="211.0" y="393.0"/>
      <point x="211.0" y="426.0" type="qcurve" smooth="yes"/>
      <point x="211.0" y="531.0" type="line" smooth="yes"/>
      <point x="211.0" y="564.0"/>
      <point x="211.0" y="564.0"/>
      <point x="244.0" y="564.0" type="qcurve" smooth="yes"/>
      <point x="586.0" y="564.0" type="line" smooth="yes"/>
      <point x="619.0" y="564.0"/>
      <point x="619.0" y="564.0"/>
      <point x="619.0" y="531.0" type="qcurve" smooth="yes"/>
      <point x="619.0" y="426.0" type="line" smooth="yes"/>
      <point x="619.0" y="393.0"/>
      <point x="619.0" y="393.0"/>
      <point x="586.0" y="393.0" type="qcurve" smooth="yes"/>
    </contour>
  </outline>
</glyph>
<glyph name="Q" format="2">
  <advance width="866.0"/>
  <unicode hex="0051"/>
  <outline>
    <contour>
      <point x="196.0" y="0.0" type="qcurve" smooth="yes"/>
      <point x="850.0" y="0.0" type="line"/>
      <point x="850.0" y="156.0" type="line"/>
      <point x="768.0" y="156.0" type="line"/>
      <point x="768.0" y="572.0" type="line" smooth="yes"/>
      <point x="768.0" y="633.0"/>
      <point x="680.0" y="720.0"/>
      <point x="619.0" y="720.0" type="qcurve" smooth="yes"/>
      <point x="196.0" y="720.0" type="line" smooth="yes"/>
      <point x="135.0" y="720.0"/>
      <point x="48.0" y="633.0"/>
      <point x="48.0" y="572.0" type="qcurve" smooth="yes"/>
      <point x="48.0" y="148.0" type="line" smooth="yes"/>
      <point x="48.0" y="87.0"/>
      <point x="135.0" y="0.0"/>
    </contour>
    <contour>
      <point x="236.0" y="156.0" type="line" smooth="yes"/>
      <point x="203.0" y="156.0"/>
      <point x="203.0" y="156.0"/>
      <point x="203.0" y="189.0" type="qcurve" smooth="yes"/>
      <point x="203.0" y="531.0" type="line" smooth="yes"/>
      <point x="203.0" y="564.0"/>
      <point x="203.0" y="564.0"/>
      <point x="236.0" y="564.0" type="qcurve" smooth="yes"/>
      <point x="578.0" y="564.0" type="line" smooth="yes"/>
      <point x="611.0" y="564.0"/>
      <point x="611.0" y="564.0"/>
      <point x="611.0" y="531.0" type="qcurve" smooth="yes"/>
      <point x="611.0" y="189.0" type="line" smooth="yes"/>
      <point x="611.0" y="156.0"/>
      <point x="611.0" y="156.0"/>
      <point x="578.0" y="156.0" type="qcurve" smooth="yes"/>
    </contour>
  </outline>
</glyph>
<glyph name="R" format="2">
  <advance width="825.0"/>
  <unicode hex="0052"/>
  <outline>
    <contour>
      <point x="55.0" y="0.0" type="line"/>
      <point x="210.0" y="0.0" type="line"/>
      <point x="210.0" y="236.0" type="line"/>
      <point x="416.0" y="237.0" type="line"/>
      <point x="615.0" y="0.0" type="line"/>
      <point x="775.0" y="0.0" type="line"/>
      <point x="775.0" y="53.0" type="line"/>
      <point x="619.0" y="237.0" type="line"/>
      <point x="626.0" y="237.0" type="line" smooth="yes"/>
      <point x="687.194" y="237.0"/>
      <point x="775.0" y="324.552"/>
      <point x="775.0" y="385.0" type="qcurve" smooth="yes"/>
      <point x="775.0" y="571.0" type="line" smooth="yes"/>
      <point x="775.0" y="631.448"/>
      <point x="687.194" y="719.0"/>
      <point x="626.0" y="719.0" type="qcurve" smooth="yes"/>
      <point x="55.0" y="719.0" type="line"/>
    </contour>
    <contour>
      <point x="243.0" y="393.0" type="line" smooth="yes"/>
      <point x="210.0" y="393.0"/>
      <point x="210.0" y="393.0"/>
      <point x="210.0" y="426.0" type="qcurve" smooth="yes"/>
      <point x="210.0" y="531.0" type="line" smooth="yes"/>
      <point x="210.0" y="564.0"/>
      <point x="210.0" y="564.0"/>
      <point x="243.0" y="564.0" type="qcurve" smooth="yes"/>
      <point x="585.0" y="564.0" type="line" smooth="yes"/>
      <point x="618.0" y="564.0"/>
      <point x="618.0" y="564.0"/>
      <point x="618.0" y="531.0" type="qcurve" smooth="yes"/>
      <point x="618.0" y="426.0" type="line" smooth="yes"/>
      <point x="618.0" y="393.0"/>
      <point x="618.0" y="393.0"/>
      <point x="585.0" y="393.0" type="qcurve" smooth="yes"/>
    </contour>
  </outline>
</glyph>
<glyph name="S" format="2">
  <advance width="816.0"/>
  <unicode hex="0053"/>
  <outline>
    <contour>
      <point x="196.0" y="0.0" type="qcurve" smooth="yes"/>
      <point x="620.0" y="0.0" type="line" smooth="yes"/>
      <point x="680.0" y="0.0"/>
      <point x="768.0" y="87.0"/>
      <point x="768.0" y="148.0" type="qcurve" smooth="yes"/>
      <point x="768.0" y="290.0" type="line" smooth="yes"/>
      <point x="768.0" y="351.0"/>
      <point x="680.0" y="438.0"/>
      <point x="620.0" y="438.0" type="qcurve" smooth="yes"/>
      <point x="236.0" y="438.0" type="line" smooth="yes"/>
      <point x="203.0" y="438.0"/>
      <point x="203.0" y="438.0"/>
      <point x="203.0" y="471.0" type="qcurve" smooth="yes"/>
      <point x="203.0" y="531.0" type="line" smooth="yes"/>
      <point x="203.0" y="564.0"/>
      <point x="203.0" y="564.0"/>
      <point x="236.0" y="564.0" type="qcurve" smooth="yes"/>
      <point x="578.0" y="564.0" type="line" smooth="yes"/>
      <point x="611.0" y="564.0"/>
      <point x="611.0" y="564.0"/>
      <point x="611.0" y="531.0" type="qcurve" smooth="yes"/>
      <point x="611.0" y="505.0" type="line"/>
      <point x="768.0" y="505.0" type="line"/>
      <point x="768.0" y="572.0" type="line" smooth="yes"/>
      <point x="768.0" y="633.0"/>
      <point x="680.0" y="720.0"/>
      <point x="620.0" y="720.0" type="qcurve" smooth="yes"/>
      <point x="196.0" y="720.0" type="line" smooth="yes"/>
      <point x="135.0" y="720.0"/>
      <point x="48.0" y="633.0"/>
      <point x="48.0" y="572.0" type="qcurve" smooth="yes"/>
      <point x="48.0" y="430.0" type="line" smooth="yes"/>
      <point x="48.0" y="369.0"/>
      <point x="135.0" y="282.0"/>
      <point x="196.0" y="282.0" type="qcurve" smooth="yes"/>
      <point x="578.0" y="282.0" type="line" smooth="yes"/>
      <point x="611.0" y="282.0"/>
      <point x="611.0" y="282.0"/>
      <point x="611.0" y="249.0" type="qcurve" smooth="yes"/>
      <point x="611.0" y="189.0" type="line" smooth="yes"/>
      <point x="611.0" y="156.0"/>
      <point x="611.0" y="156.0"/>
      <point x="578.0" y="156.0" type="qcurve" smooth="yes"/>
      <point x="236.0" y="156.0" type="line" smooth="yes"/>
      <point x="203.0" y="156.0"/>
      <point x="203.0" y="156.0"/>
      <point x="203.0" y="189.0" type="qcurve" smooth="yes"/>
      <point x="203.0" y="215.0" type="line"/>
      <point x="48.0" y="215.0" type="line"/>
      <point x="48.0" y="148.0" type="line" smooth="yes"/>
      <point x="48.0" y="87.0"/>
      <point x="135.0" y="0.0"/>
    </contour>
  </outline>
</glyph>
<glyph name="T" format="2">
  <advance width="759.0"/>
  <unicode hex="0054"/>
  <outline>
    <contour>
      <point x="20.0" y="720.0" type="line"/>
      <point x="20.0" y="564.0" type="line"/>
      <point x="302.0" y="564.0" type="line"/>
      <point x="302.0" y="0.0" type="line"/>
      <point x="458.0" y="0.0" type="line"/>
      <point x="458.0" y="564.0" type="line"/>
      <point x="740.0" y="564.0" type="line"/>
      <point x="740.0" y="720.0" type="line"/>
    </contour>
  </outline>
</glyph>
<glyph name="U" format="2">
  <advance width="816.0"/>
  <unicode hex="0055"/>
  <outline>
    <contour>
      <point x="196.0" y="0.0" type="qcurve" smooth="yes"/>
      <point x="620.0" y="0.0" type="line" smooth="yes"/>
      <point x="680.0" y="0.0"/>
      <point x="768.0" y="87.0"/>
      <point x="768.0" y="148.0" type="qcurve" smooth="yes"/>
      <point x="768.0" y="720.0" type="line"/>
      <point x="611.0" y="720.0" type="line"/>
      <point x="611.0" y="189.0" type="line" smooth="yes"/>
      <point x="611.0" y="156.0"/>
      <point x="611.0" y="156.0"/>
      <point x="578.0" y="156.0" type="qcurve" smooth="yes"/>
      <point x="236.0" y="156.0" type="line" smooth="yes"/>
      <point x="203.0" y="156.0"/>
      <point x="203.0" y="156.0"/>
      <point x="203.0" y="189.0" type="qcurve" smooth="yes"/>
      <point x="203.0" y="720.0" type="line"/>
      <point x="48.0" y="720.0" type="line"/>
      <point x="48.0" y="148.0" type="line" smooth="yes"/>
      <point x="48.0" y="87.0"/>
      <point x="135.0" y="0.0"/>
    </contour>
  </outline>
</glyph>
<glyph name="V" format="2">
  <advance width="950.0"/>
  <unicode hex="0056"/>
  <outline>
    <contour>
      <point x="410.0" y="0.0" type="line"/>
      <point x="539.0" y="0.0" type="line"/>
      <point x="926.0" y="667.0" type="line"/>
      <point x="926.0" y="720.0" type="line"/>
      <point x="777.0" y="720.0" type="line"/>
      <point x="475.0" y="197.0" type="line"/>
      <point x="173.0" y="720.0" type="line"/>
      <point x="24.0" y="720.0" type="line"/>
      <point x="24.0" y="667.0" type="line"/>
    </contour>
  </outline>
</glyph>
<glyph name="W" format="2">
  <advance width="1179.0"/>
  <unicode hex="0057"/>
  <outline>
    <contour>
      <point x="297.0" y="0.0" type="line"/>
      <point x="416.0" y="0.0" type="line"/>
      <point x="585.0" y="463.0" type="line"/>
      <point x="755.0" y="0.0" type="line"/>
      <point x="874.0" y="0.0" type="line"/>
      <point x="1136.0" y="720.0" type="line"/>
      <point x="972.0" y="720.0" type="line"/>
      <point x="815.0" y="291.0" type="line"/>
      <point x="657.0" y="720.0" type="line"/>
      <point x="514.0" y="720.0" type="line"/>
      <point x="357.0" y="291.0" type="line"/>
      <point x="200.0" y="720.0" type="line"/>
      <point x="35.0" y="720.0" type="line"/>
    </contour>
  </outline>
</glyph>
<glyph name="X" format="2">
  <advance width="812.0"/>
  <unicode hex="0058"/>
  <outline>
    <contour>
      <point x="46.0" y="0.0" type="line"/>
      <point x="207.0" y="0.0" type="line"/>
      <point x="405.0" y="236.0" type="line"/>
      <point x="605.0" y="0.0" type="line"/>
      <point x="766.0" y="0.0" type="line"/>
      <point x="766.0" y="54.0" type="line"/>
      <point x="508.0" y="360.0" type="line"/>
      <point x="766.0" y="667.0" type="line"/>
      <point x="766.0" y="720.0" type="line"/>
      <point x="605.0" y="720.0" type="line"/>
      <point x="407.0" y="483.0" type="line"/>
      <point x="207.0" y="720.0" type="line"/>
      <point x="46.0" y="720.0" type="line"/>
      <point x="46.0" y="667.0" type="line"/>
      <point x="303.0" y="360.0" type="line"/>
      <point x="46.0" y="53.0" type="line"/>
    </contour>
  </outline>
</glyph>
<glyph name="Y" format="2">
  <advance width="796.0"/>
  <unicode hex="0059"/>
  <outline>
    <contour>
      <point x="318.0" y="0.0" type="line"/>
      <point x="474.0" y="0.0" type="line"/>
      <point x="474.0" y="268.0" type="line"/>
      <point x="772.0" y="667.0" type="line"/>
      <point x="772.0" y="720.0" type="line"/>
      <point x="621.0" y="720.0" type="line"/>
      <point x="396.0" y="436.0" type="line"/>
      <point x="170.0" y="720.0" type="line"/>
      <point x="24.0" y="720.0" type="line"/>
      <point x="24.0" y="667.0" type="line"/>
      <point x="318.0" y="269.0" type="line"/>
    </contour>
  </outline>
</glyph>
<glyph name="Z" format="2">
  <advance width="800.0"/>
  <unicode hex="005A"/>
  <outline>
    <contour>
      <point x="40.0" y="564.0" type="line"/>
      <point x="522.0" y="564.0" type="line"/>
      <point x="40.0" y="159.0" type="line"/>
      <point x="40.0" y="0.0" type="line"/>
      <point x="760.0" y="0.0" type="line"/>
      <point x="760.0" y="156.0" type="line"/>
      <point x="278.0" y="156.0" type="line"/>
      <point x="760.0" y="561.0" type="line"/>
      <point x="760.0" y="720.0" type="line"/>
      <point x="40.0" y="720.0" type="line"/>
    </contour>
  </outline>
</glyph>
<glyph name="bracketleft" format="2">
  <advance width="275.0"/>
  <unicode hex="005B"/>
  <outline>
    <contour>
      <point x="54.0" y="0.0" type="line"/>
      <point x="265.0" y="0.0" type="line"/>
      <point x="265.0" y="153.0" type="line"/>
      <point x="207.0" y="153.0" type="line"/>
      <point x="207.0" y="567.0" type="line"/>
      <point x="265.0" y="567.0" type="line"/>
      <point x="265.0" y="720.0" type="line"/>
      <point x="54.0" y="720.0" type="line"/>
    </contour>
  </outline>
</glyph>
<glyph name="backslash" format="2">
  <advance width="520.0"/>
  <unicode hex="005C"/>
  <outline>
    <contour>
      <point x="5.0" y="720.0" type="line"/>
      <point x="5.0" y="566.0" type="line"/>
      <point x="466.0" y="0.0" type="line"/>
      <point x="521.0" y="0.0" type="line"/>
      <point x="521.0" y="154.0" type="line"/>
      <point x="60.0" y="720.0" type="line"/>
    </contour>
  </outline>
</glyph>
<glyph name="bracketright" format="2">
  <advance width="276.0"/>
  <unicode hex="005D"/>
  <outline>
    <contour>
      <point x="51.0" y="567.0" type="line"/>
      <point x="108.0" y="567.0" type="line"/>
      <point x="108.0" y="153.0" type="line"/>
      <point x="51.0" y="153.0" type="line"/>
      <point x="51.0" y="0.0" type="line"/>
      <point x="262.0" y="0.0" type="line"/>
      <point x="262.0" y="720.0" type="line"/>
      <point x="51.0" y="720.0" type="line"/>
    </contour>
  </outline>
</glyph>
<glyph name="asciicircum" format="2">
  <advance width="500.0"/>
  <unicode hex="005E"/>
  <outline>
    <contour>
      <point x="105.0" y="667.0" type="line"/>
      <point x="105.0" y="595.0" type="line"/>
      <point x="380.0" y="595.0" type="line"/>
      <point x="380.0" y="667.0" type="line"/>
    </contour>
  </outline>
</glyph>
<glyph name="underscore" format="2">
  <advance width="828.0"/>
  <unicode hex="005F"/>
  <outline>
    <contour>
      <point x="761.0" y="-2.0" type="line"/>
      <point x="54.0" y="-2.0" type="line"/>
      <point x="54.0" y="-155.0" type="line"/>
      <point x="761.0" y="-155.0" type="line"/>
    </contour>
  </outline>
</glyph>
<glyph name="grave" format="2">
  <advance width="272.0"/>
  <unicode hex="0060"/>
  <outline>
    <contour>
      <point x="189.0" y="950.0" type="line"/>
      <point x="32.0" y="950.0" type="line"/>
      <point x="83.0" y="747.0" type="line"/>
      <point x="240.0" y="747.0" type="line"/>
    </contour>
  </outline>
</glyph>
<glyph name="a" format="2">
  <advance width="684.0"/>
  <unicode hex="0061"/>
  <anchor x="330.0" y="0.0" name="bottom"/>
  <anchor x="615.0" y="0.0" name="ogonek"/>
  <anchor x="280.0" y="580.0" name="top"/>
  <outline>
    <contour>
      <point x="193.0" y="0.0" type="qcurve" smooth="yes"/>
      <point x="636.0" y="0.0" type="line"/>
      <point x="636.0" y="435.0" type="line" smooth="yes"/>
      <point x="636.0" y="494.0"/>
      <point x="551.0" y="580.0"/>
      <point x="491.0" y="580.0" type="qcurve" smooth="yes"/>
      <point x="48.0" y="580.0" type="line"/>
      <point x="48.0" y="427.0" type="line"/>
      <point x="450.0" y="427.0" type="line" smooth="yes"/>
      <point x="483.0" y="427.0"/>
      <point x="483.0" y="427.0"/>
      <point x="483.0" y="394.0" type="qcurve" smooth="yes"/>
      <point x="483.0" y="367.0" type="line"/>
      <point x="48.0" y="367.0" type="line"/>
      <point x="48.0" y="145.0" type="line" smooth="yes"/>
      <point x="48.0" y="86.0"/>
      <point x="133.0" y="0.0"/>
    </contour>
    <contour>
      <point x="234.0" y="153.0" type="line" smooth="yes"/>
      <point x="201.0" y="153.0"/>
      <point x="201.0" y="153.0"/>
      <point x="201.0" y="186.0" type="qcurve" smooth="yes"/>
      <point x="201.0" y="233.0" type="line"/>
      <point x="483.0" y="233.0" type="line"/>
      <point x="483.0" y="153.0" type="line"/>
    </contour>
  </outline>
</glyph>
<glyph name="b" format="2">
  <advance width="692.0"/>
  <unicode hex="0062"/>
  <outline>
    <contour>
      <point x="56.0" y="0.0" type="line"/>
      <point x="499.0" y="0.0" type="line" smooth="yes"/>
      <point x="559.0" y="0.0"/>
      <point x="644.0" y="86.0"/>
      <point x="644.0" y="145.0" type="qcurve" smooth="yes"/>
      <point x="644.0" y="435.0" type="line" smooth="yes"/>
      <point x="644.0" y="494.0"/>
      <point x="559.0" y="580.0"/>
      <point x="499.0" y="580.0" type="qcurve" smooth="yes"/>
      <point x="209.0" y="580.0" type="line"/>
      <point x="209.0" y="770.0" type="line"/>
      <point x="56.0" y="770.0" type="line"/>
    </contour>
    <contour>
      <point x="242.0" y="153.0" type="line" smooth="yes"/>
      <point x="209.0" y="153.0"/>
      <point x="209.0" y="153.0"/>
      <point x="209.0" y="186.0" type="qcurve" smooth="yes"/>
      <point x="209.0" y="394.0" type="line" smooth="yes"/>
      <point x="209.0" y="427.0"/>
      <point x="209.0" y="427.0"/>
      <point x="242.0" y="427.0" type="qcurve" smooth="yes"/>
      <point x="458.0" y="427.0" type="line" smooth="yes"/>
      <point x="491.0" y="427.0"/>
      <point x="491.0" y="427.0"/>
      <point x="491.0" y="394.0" type="qcurve" smooth="yes"/>
      <point x="491.0" y="186.0" type="line" smooth="yes"/>
      <point x="491.0" y="153.0"/>
      <point x="491.0" y="153.0"/>
      <point x="458.0" y="153.0" type="qcurve" smooth="yes"/>
    </contour>
  </outline>
</glyph>
<glyph name="d" format="2">
  <advance width="667.0"/>
  <unicode hex="0064"/>
  <outline>
    <contour>
      <point x="168.0" y="0.0" type="qcurve" smooth="yes"/>
      <point x="612.0" y="0.0" type="line"/>
      <point x="612.0" y="770.0" type="line"/>
      <point x="459.0" y="770.0" type="line"/>
      <point x="459.0" y="580.0" type="line"/>
      <point x="168.0" y="580.0" type="line" smooth="yes"/>
      <point x="108.299" y="580.0"/>
      <point x="23.0" y="493.955"/>
      <point x="23.0" y="435.0" type="qcurve" smooth="yes"/>
      <point x="23.0" y="145.0" type="line" smooth="yes"/>
      <point x="23.0" y="86.045"/>
      <point x="108.299" y="0.0"/>
    </contour>
    <contour>
      <point x="210.0" y="153.0" type="line" smooth="yes"/>
      <point x="177.0" y="153.0"/>
      <point x="177.0" y="153.0"/>
      <point x="177.0" y="186.0" type="qcurve" smooth="yes"/>
      <point x="177.0" y="394.0" type="line" smooth="yes"/>
      <point x="177.0" y="427.0"/>
      <point x="177.0" y="427.0"/>
      <point x="210.0" y="427.0" type="qcurve" smooth="yes"/>
      <point x="426.0" y="427.0" type="line" smooth="yes"/>
      <point x="459.0" y="427.0"/>
      <point x="459.0" y="427.0"/>
      <point x="459.0" y="394.0" type="qcurve" smooth="yes"/>
      <point x="459.0" y="186.0" type="line" smooth="yes"/>
      <point x="459.0" y="153.0"/>
      <point x="459.0" y="153.0"/>
      <point x="426.0" y="153.0" type="qcurve" smooth="yes"/>
    </contour>
  </outline>
</glyph>
<glyph name="f" format="2">
  <advance width="440.0"/>
  <unicode hex="0066"/>
  <outline>
    <contour>
      <point x="56.0" y="0.0" type="line"/>
      <point x="209.0" y="0.0" type="line"/>
      <point x="209.0" y="427.0" type="line"/>
      <point x="424.0" y="427.0" type="line"/>
      <point x="424.0" y="580.0" type="line"/>
      <point x="209.0" y="580.0" type="line"/>
      <point x="209.0" y="583.0" type="line" smooth="yes"/>
      <point x="209.0" y="616.0"/>
      <point x="209.0" y="616.0"/>
      <point x="242.0" y="616.0" type="qcurve" smooth="yes"/>
      <point x="424.0" y="616.0" type="line"/>
      <point x="424.0" y="770.0" type="line"/>
      <point x="202.0" y="770.0" type="line" smooth="yes"/>
      <point x="142.0" y="770.0"/>
      <point x="56.0" y="684.0"/>
      <point x="56.0" y="625.0" type="qcurve" smooth="yes"/>
    </contour>
  </outline>
</glyph>
<glyph name="g" format="2">
  <advance width="683.0"/>
  <unicode hex="0067"/>
  <outline>
    <contour>
      <point x="133.0" y="-229.0" type="line"/>
      <point x="485.0" y="-229.0" type="line" smooth="yes"/>
      <point x="544.701" y="-229.0"/>
      <point x="630.0" y="-143.701"/>
      <point x="630.0" y="-84.0" type="qcurve" smooth="yes"/>
      <point x="630.0" y="435.0" type="line" smooth="yes"/>
      <point x="630.0" y="493.955"/>
      <point x="544.701" y="580.0"/>
      <point x="485.0" y="580.0" type="qcurve" smooth="yes"/>
      <point x="187.0" y="580.0" type="line" smooth="yes"/>
      <point x="127.299" y="580.0"/>
      <point x="41.0" y="493.955"/>
      <point x="41.0" y="435.0" type="qcurve" smooth="yes"/>
      <point x="41.0" y="145.0" type="line" smooth="yes"/>
      <point x="41.0" y="86.045"/>
      <point x="127.299" y="0.0"/>
      <point x="187.0" y="0.0" type="qcurve" smooth="yes"/>
      <point x="477.0" y="0.0" type="line"/>
      <point x="477.0" y="-42.0" type="line" smooth="yes"/>
      <point x="477.0" y="-75.0"/>
      <point x="477.0" y="-75.0"/>
      <point x="444.0" y="-75.0" type="qcurve" smooth="yes"/>
      <point x="133.0" y="-75.0" type="line"/>
    </contour>
    <contour>
      <point x="227.0" y="153.0" type="line" smooth="yes"/>
      <point x="194.0" y="153.0"/>
      <point x="194.0" y="153.0"/>
      <point x="194.0" y="186.0" type="qcurve" smooth="yes"/>
      <point x="194.0" y="394.0" type="line" smooth="yes"/>
      <point x="194.0" y="427.0"/>
      <point x="194.0" y="427.0"/>
      <point x="227.0" y="427.0" type="qcurve" smooth="yes"/>
      <point x="444.0" y="427.0" type="line" smooth="yes"/>
      <point x="477.0" y="427.0"/>
      <point x="477.0" y="427.0"/>
      <point x="477.0" y="394.0" type="qcurve" smooth="yes"/>
      <point x="477.0" y="186.0" type="line" smooth="yes"/>
      <point x="477.0" y="153.0"/>
      <point x="477.0" y="153.0"/>
      <point x="444.0" y="153.0" type="qcurve" smooth="yes"/>
    </contour>
  </outline>
</glyph>
<glyph name="h" format="2">
  <advance width="692.0"/>
  <unicode hex="0068"/>
  <outline>
    <contour>
      <point x="56.0" y="0.0" type="line"/>
      <point x="209.0" y="0.0" type="line"/>
      <point x="209.0" y="394.0" type="line" smooth="yes"/>
      <point x="209.0" y="427.0"/>
      <point x="209.0" y="427.0"/>
      <point x="242.0" y="427.0" type="qcurve" smooth="yes"/>
      <point x="458.0" y="427.0" type="line" smooth="yes"/>
      <point x="491.0" y="427.0"/>
      <point x="491.0" y="427.0"/>
      <point x="491.0" y="394.0" type="qcurve" smooth="yes"/>
      <point x="491.0" y="0.0" type="line"/>
      <point x="644.0" y="0.0" type="line"/>
      <point x="644.0" y="435.0" type="line" smooth="yes"/>
      <point x="644.0" y="494.0"/>
      <point x="558.0" y="580.0"/>
      <point x="499.0" y="580.0" type="qcurve" smooth="yes"/>
      <point x="209.0" y="580.0" type="line"/>
      <point x="209.0" y="770.0" type="line"/>
      <point x="56.0" y="770.0" type="line"/>
    </contour>
  </outline>
</glyph>
<glyph name="j" format="2">
  <advance width="226.0"/>
  <unicode hex="006A"/>
  <outline>
    <contour>
      <point x="-200.0" y="-208.0" type="line"/>
      <point x="52.0" y="-208.0" type="line" smooth="yes"/>
      <point x="112.0" y="-208.0"/>
      <point x="198.0" y="-123.0"/>
      <point x="198.0" y="-63.0" type="qcurve" smooth="yes"/>
      <point x="198.0" y="580.0" type="line"/>
      <point x="45.0" y="580.0" type="line"/>
      <point x="45.0" y="-21.0" type="line" smooth="yes"/>
      <point x="45.0" y="-54.0"/>
      <point x="45.0" y="-54.0"/>
      <point x="12.0" y="-54.0" type="qcurve" smooth="yes"/>
      <point x="-200.0" y="-54.0" type="line"/>
    </contour>
    <contour>
      <point x="45.0" y="616.0" type="line"/>
      <point x="198.0" y="616.0" type="line"/>
      <point x="198.0" y="770.0" type="line"/>
      <point x="45.0" y="770.0" type="line"/>
    </contour>
  </outline>
</glyph>
<glyph name="l" format="2">
  <advance width="327.0"/>
  <unicode hex="006C"/>
  <outline>
    <contour>
      <point x="201.0" y="0.0" type="qcurve" smooth="yes"/>
      <point x="327.0" y="0.0" type="line"/>
      <point x="327.0" y="153.0" type="line"/>
      <point x="243.0" y="153.0" type="line" smooth="yes"/>
      <point x="210.0" y="153.0"/>
      <point x="210.0" y="153.0"/>
      <point x="210.0" y="186.0" type="qcurve" smooth="yes"/>
      <point x="210.0" y="771.0" type="line"/>
      <point x="56.0" y="771.0" type="line"/>
      <point x="56.0" y="145.0" type="line" smooth="yes"/>
      <point x="56.0" y="86.0"/>
      <point x="142.0" y="0.0"/>
    </contour>
  </outline>
</glyph>
<glyph name="m" format="2">
  <advance width="978.0"/>
  <unicode hex="006D"/>
  <outline>
    <contour>
      <point x="54.0" y="0.0" type="line"/>
      <point x="207.0" y="0.0" type="line"/>
      <point x="207.0" y="394.0" type="line" smooth="yes"/>
      <point x="207.0" y="427.0"/>
      <point x="207.0" y="427.0"/>
      <point x="240.0" y="427.0" type="qcurve" smooth="yes"/>
      <point x="366.0" y="427.0" type="line" smooth="yes"/>
      <point x="399.0" y="427.0"/>
      <point x="399.0" y="427.0"/>
      <point x="399.0" y="394.0" type="qcurve" smooth="yes"/>
      <point x="399.0" y="0.0" type="line"/>
      <point x="553.0" y="0.0" type="line"/>
      <point x="553.0" y="394.0" type="line" smooth="yes"/>
      <point x="553.0" y="427.0"/>
      <point x="553.0" y="427.0"/>
      <point x="586.0" y="427.0" type="qcurve" smooth="yes"/>
      <point x="712.0" y="427.0" type="line" smooth="yes"/>
      <point x="745.0" y="427.0"/>
      <point x="745.0" y="427.0"/>
      <point x="745.0" y="394.0" type="qcurve" smooth="yes"/>
      <point x="745.0" y="0.0" type="line"/>
      <point x="897.0" y="0.0" type="line"/>
      <point x="897.0" y="435.0" type="line" smooth="yes"/>
      <point x="897.0" y="493.955"/>
      <point x="811.701" y="580.0"/>
      <point x="752.0" y="580.0" type="qcurve" smooth="yes"/>
      <point x="54.0" y="580.0" type="line"/>
    </contour>
  </outline>
</glyph>
<glyph name="o" format="2">
  <advance width="684.0"/>
  <unicode hex="006F"/>
  <outline>
    <contour>
      <point x="193.0" y="0.0" type="qcurve" smooth="yes"/>
      <point x="491.0" y="0.0" type="line" smooth="yes"/>
      <point x="551.0" y="0.0"/>
      <point x="636.0" y="86.0"/>
      <point x="636.0" y="145.0" type="qcurve" smooth="yes"/>
      <point x="636.0" y="435.0" type="line" smooth="yes"/>
      <point x="636.0" y="494.0"/>
      <point x="551.0" y="580.0"/>
      <point x="491.0" y="580.0" type="qcurve" smooth="yes"/>
      <point x="193.0" y="580.0" type="line" smooth="yes"/>
      <point x="134.0" y="580.0"/>
      <point x="48.0" y="494.0"/>
      <point x="48.0" y="435.0" type="qcurve" smooth="yes"/>
      <point x="48.0" y="145.0" type="line" smooth="yes"/>
      <point x="48.0" y="86.0"/>
      <point x="134.0" y="0.0"/>
    </contour>
    <contour>
      <point x="234.0" y="153.0" type="line" smooth="yes"/>
      <point x="201.0" y="153.0"/>
      <point x="201.0" y="153.0"/>
      <point x="201.0" y="186.0" type="qcurve" smooth="yes"/>
      <point x="201.0" y="394.0" type="line" smooth="yes"/>
      <point x="201.0" y="427.0"/>
      <point x="201.0" y="427.0"/>
      <point x="234.0" y="427.0" type="qcurve" smooth="yes"/>
      <point x="450.0" y="427.0" type="line" smooth="yes"/>
      <point x="483.0" y="427.0"/>
      <point x="483.0" y="427.0"/>
      <point x="483.0" y="394.0" type="qcurve" smooth="yes"/>
      <point x="483.0" y="186.0" type="line" smooth="yes"/>
      <point x="483.0" y="153.0"/>
      <point x="483.0" y="153.0"/>
      <point x="450.0" y="153.0" type="qcurve" smooth="yes"/>
    </contour>
  </outline>
</glyph>
<glyph name="p" format="2">
  <advance width="664.0"/>
  <unicode hex="0070"/>
  <outline>
    <contour>
      <point x="54.0" y="-230.0" type="line"/>
      <point x="207.0" y="-230.0" type="line"/>
      <point x="207.0" y="0.0" type="line"/>
      <point x="497.0" y="0.0" type="line" smooth="yes"/>
      <point x="556.701" y="0.0"/>
      <point x="642.0" y="86.045"/>
      <point x="642.0" y="145.0" type="qcurve" smooth="yes"/>
      <point x="642.0" y="435.0" type="line" smooth="yes"/>
      <point x="642.0" y="493.955"/>
      <point x="556.701" y="580.0"/>
      <point x="497.0" y="580.0" type="qcurve" smooth="yes"/>
      <point x="54.0" y="580.0" type="line"/>
    </contour>
    <contour>
      <point x="240.0" y="153.0" type="line" smooth="yes"/>
      <point x="207.0" y="153.0"/>
      <point x="207.0" y="153.0"/>
      <point x="207.0" y="186.0" type="qcurve" smooth="yes"/>
      <point x="207.0" y="394.0" type="line" smooth="yes"/>
      <point x="207.0" y="427.0"/>
      <point x="207.0" y="427.0"/>
      <point x="240.0" y="427.0" type="qcurve" smooth="yes"/>
      <point x="456.0" y="427.0" type="line" smooth="yes"/>
      <point x="489.0" y="427.0"/>
      <point x="489.0" y="427.0"/>
      <point x="489.0" y="394.0" type="qcurve" smooth="yes"/>
      <point x="489.0" y="186.0" type="line" smooth="yes"/>
      <point x="489.0" y="153.0"/>
      <point x="489.0" y="153.0"/>
      <point x="456.0" y="153.0" type="qcurve" smooth="yes"/>
    </contour>
  </outline>
</glyph>
<glyph name="q" format="2">
  <advance width="664.0"/>
  <unicode hex="0071"/>
  <outline>
    <contour>
      <point x="456.0" y="-230.0" type="line"/>
      <point x="609.0" y="-230.0" type="line"/>
      <point x="609.0" y="580.0" type="line"/>
      <point x="165.0" y="580.0" type="line" smooth="yes"/>
      <point x="105.299" y="580.0"/>
      <point x="20.0" y="493.955"/>
      <point x="20.0" y="435.0" type="qcurve" smooth="yes"/>
      <point x="20.0" y="145.0" type="line" smooth="yes"/>
      <point x="20.0" y="86.045"/>
      <point x="105.299" y="0.0"/>
      <point x="165.0" y="0.0" type="qcurve" smooth="yes"/>
      <point x="456.0" y="0.0" type="line"/>
    </contour>
    <contour>
      <point x="207.0" y="153.0" type="line" smooth="yes"/>
      <point x="174.0" y="153.0"/>
      <point x="174.0" y="153.0"/>
      <point x="174.0" y="186.0" type="qcurve" smooth="yes"/>
      <point x="174.0" y="394.0" type="line" smooth="yes"/>
      <point x="174.0" y="427.0"/>
      <point x="174.0" y="427.0"/>
      <point x="207.0" y="427.0" type="qcurve" smooth="yes"/>
      <point x="423.0" y="427.0" type="line" smooth="yes"/>
      <point x="456.0" y="427.0"/>
      <point x="456.0" y="427.0"/>
      <point x="456.0" y="394.0" type="qcurve" smooth="yes"/>
      <point x="456.0" y="186.0" type="line" smooth="yes"/>
      <point x="456.0" y="153.0"/>
      <point x="456.0" y="153.0"/>
      <point x="423.0" y="153.0" type="qcurve" smooth="yes"/>
    </contour>
  </outline>
</glyph>
<glyph name="r" format="2">
  <advance width="526.0"/>
  <unicode hex="0072"/>
  <outline>
    <contour>
      <point x="52.0" y="0.0" type="line"/>
      <point x="205.0" y="0.0" type="line"/>
      <point x="205.0" y="394.0" type="line" smooth="yes"/>
      <point x="205.0" y="427.0"/>
      <point x="205.0" y="427.0"/>
      <point x="238.0" y="427.0" type="qcurve" smooth="yes"/>
      <point x="518.0" y="427.0" type="line"/>
      <point x="518.0" y="580.0" type="line"/>
      <point x="198.0" y="580.0" type="line" smooth="yes"/>
      <point x="138.299" y="580.0"/>
      <point x="52.0" y="493.955"/>
      <point x="52.0" y="435.0" type="qcurve" smooth="yes"/>
    </contour>
  </outline>
</glyph>
<glyph name="s" format="2">
  <advance width="686.0"/>
  <unicode hex="0073"/>
  <outline>
    <contour>
      <point x="193.0" y="0.0" type="qcurve" smooth="yes"/>
      <point x="491.0" y="0.0" type="line" smooth="yes"/>
      <point x="551.448" y="0.0"/>
      <point x="637.0" y="86.045"/>
      <point x="637.0" y="145.0" type="qcurve" smooth="yes"/>
      <point x="637.0" y="222.0" type="line" smooth="yes"/>
      <point x="637.0" y="280.955"/>
      <point x="551.448" y="367.0"/>
      <point x="491.0" y="367.0" type="qcurve" smooth="yes"/>
      <point x="217.0" y="367.0" type="line" smooth="yes"/>
      <point x="201.0" y="367.0"/>
      <point x="201.0" y="367.0"/>
      <point x="201.0" y="383.0" type="qcurve" smooth="yes"/>
      <point x="201.0" y="411.0" type="line" smooth="yes"/>
      <point x="201.0" y="427.0"/>
      <point x="201.0" y="427.0"/>
      <point x="217.0" y="427.0" type="qcurve" smooth="yes"/>
      <point x="467.0" y="427.0" type="line" smooth="yes"/>
      <point x="483.0" y="427.0"/>
      <point x="483.0" y="427.0"/>
      <point x="483.0" y="411.0" type="qcurve" smooth="yes"/>
      <point x="483.0" y="406.0" type="line"/>
      <point x="637.0" y="406.0" type="line"/>
      <point x="637.0" y="435.0" type="line" smooth="yes"/>
      <point x="637.0" y="493.955"/>
      <point x="551.448" y="580.0"/>
      <point x="491.0" y="580.0" type="qcurve" smooth="yes"/>
      <point x="193.0" y="580.0" type="line" smooth="yes"/>
      <point x="134.045" y="580.0"/>
      <point x="48.0" y="493.955"/>
      <point x="48.0" y="435.0" type="qcurve" smooth="yes"/>
      <point x="48.0" y="358.0" type="line" smooth="yes"/>
      <point x="48.0" y="299.045"/>
      <point x="134.045" y="213.0"/>
      <point x="193.0" y="213.0" type="qcurve" smooth="yes"/>
      <point x="467.0" y="213.0" type="line" smooth="yes"/>
      <point x="483.0" y="213.0"/>
      <point x="483.0" y="213.0"/>
      <point x="483.0" y="197.0" type="qcurve" smooth="yes"/>
      <point x="483.0" y="169.0" type="line" smooth="yes"/>
      <point x="483.0" y="153.0"/>
      <point x="483.0" y="153.0"/>
      <point x="467.0" y="153.0" type="qcurve" smooth="yes"/>
      <point x="217.0" y="153.0" type="line" smooth="yes"/>
      <point x="201.0" y="153.0"/>
      <point x="201.0" y="153.0"/>
      <point x="201.0" y="169.0" type="qcurve" smooth="yes"/>
      <point x="201.0" y="174.0" type="line"/>
      <point x="48.0" y="174.0" type="line"/>
      <point x="48.0" y="145.0" type="line" smooth="yes"/>
      <point x="48.0" y="86.045"/>
      <point x="134.045" y="0.0"/>
    </contour>
  </outline>
</glyph>
<glyph name="t" format="2">
  <advance width="451.0"/>
  <unicode hex="0074"/>
  <outline>
    <contour>
      <point x="199.0" y="0.0" type="qcurve" smooth="yes"/>
      <point x="421.0" y="0.0" type="line"/>
      <point x="421.0" y="153.0" type="line"/>
      <point x="239.0" y="153.0" type="line" smooth="yes"/>
      <point x="206.0" y="153.0"/>
      <point x="206.0" y="153.0"/>
      <point x="206.0" y="186.0" type="qcurve" smooth="yes"/>
      <point x="206.0" y="427.0" type="line"/>
      <point x="421.0" y="427.0" type="line"/>
      <point x="421.0" y="580.0" type="line"/>
      <point x="206.0" y="580.0" type="line"/>
      <point x="206.0" y="752.0" type="line"/>
      <point x="53.0" y="752.0" type="line"/>
      <point x="53.0" y="145.0" type="line" smooth="yes"/>
      <point x="53.0" y="86.045"/>
      <point x="138.552" y="0.0"/>
    </contour>
  </outline>
</glyph>
<glyph name="u" format="2">
  <advance width="684.0"/>
  <unicode hex="0075"/>
  <outline>
    <contour>
      <point x="193.0" y="0.0" type="qcurve" smooth="yes"/>
      <point x="491.0" y="0.0" type="line" smooth="yes"/>
      <point x="551.0" y="0.0"/>
      <point x="636.0" y="86.0"/>
      <point x="636.0" y="145.0" type="qcurve" smooth="yes"/>
      <point x="636.0" y="580.0" type="line"/>
      <point x="483.0" y="580.0" type="line"/>
      <point x="483.0" y="186.0" type="line" smooth="yes"/>
      <point x="483.0" y="153.0"/>
      <point x="483.0" y="153.0"/>
      <point x="450.0" y="153.0" type="qcurve" smooth="yes"/>
      <point x="234.0" y="153.0" type="line" smooth="yes"/>
      <point x="201.0" y="153.0"/>
      <point x="201.0" y="153.0"/>
      <point x="201.0" y="186.0" type="qcurve" smooth="yes"/>
      <point x="201.0" y="580.0" type="line"/>
      <point x="48.0" y="580.0" type="line"/>
      <point x="48.0" y="145.0" type="line" smooth="yes"/>
      <point x="48.0" y="86.0"/>
      <point x="133.0" y="0.0"/>
    </contour>
  </outline>
</glyph>
<glyph name="v" format="2">
  <advance width="762.0"/>
  <unicode hex="0076"/>
  <outline>
    <contour>
      <point x="314.0" y="0.0" type="line"/>
      <point x="445.0" y="0.0" type="line"/>
      <point x="738.0" y="530.0" type="line"/>
      <point x="738.0" y="580.0" type="line"/>
      <point x="589.0" y="580.0" type="line"/>
      <point x="380.0" y="195.0" type="line"/>
      <point x="171.0" y="580.0" type="line"/>
      <point x="24.0" y="580.0" type="line"/>
      <point x="24.0" y="530.0" type="line"/>
    </contour>
  </outline>
</glyph>
<glyph name="w" format="2">
  <advance width="994.0"/>
  <unicode hex="0077"/>
  <outline>
    <contour>
      <point x="231.0" y="0.0" type="line"/>
      <point x="346.0" y="0.0" type="line"/>
      <point x="496.0" y="346.0" type="line"/>
      <point x="653.0" y="0.0" type="line"/>
      <point x="769.0" y="0.0" type="line"/>
      <point x="970.0" y="530.0" type="line"/>
      <point x="970.0" y="580.0" type="line"/>
      <point x="825.0" y="580.0" type="line"/>
      <point x="709.0" y="275.0" type="line"/>
      <point x="569.0" y="580.0" type="line"/>
      <point x="421.0" y="580.0" type="line"/>
      <point x="290.0" y="279.0" type="line"/>
      <point x="165.0" y="580.0" type="line"/>
      <point x="24.0" y="580.0" type="line"/>
      <point x="24.0" y="530.0" type="line"/>
    </contour>
  </outline>
</glyph>
<glyph name="x" format="2">
  <advance width="692.0"/>
  <unicode hex="0078"/>
  <outline>
    <contour>
      <point x="46.0" y="0.0" type="line"/>
      <point x="203.0" y="0.0" type="line"/>
      <point x="345.0" y="174.0" type="line"/>
      <point x="487.0" y="0.0" type="line"/>
      <point x="644.0" y="0.0" type="line"/>
      <point x="644.0" y="50.0" type="line"/>
      <point x="444.0" y="295.0" type="line"/>
      <point x="644.0" y="530.0" type="line"/>
      <point x="644.0" y="580.0" type="line"/>
      <point x="486.0" y="580.0" type="line"/>
      <point x="345.0" y="412.0" type="line"/>
      <point x="203.0" y="580.0" type="line"/>
      <point x="46.0" y="580.0" type="line"/>
      <point x="46.0" y="530.0" type="line"/>
      <point x="246.0" y="295.0" type="line"/>
      <point x="46.0" y="50.0" type="line"/>
    </contour>
  </outline>
</glyph>
<glyph name="y" format="2">
  <advance width="685.0"/>
  <unicode hex="0079"/>
  <outline>
    <contour>
      <point x="140.0" y="-208.0" type="line"/>
      <point x="492.0" y="-208.0" type="line" smooth="yes"/>
      <point x="552.0" y="-208.0"/>
      <point x="637.0" y="-123.0"/>
      <point x="637.0" y="-63.0" type="qcurve" smooth="yes"/>
      <point x="637.0" y="578.0" type="line"/>
      <point x="484.0" y="578.0" type="line"/>
      <point x="484.0" y="186.0" type="line" smooth="yes"/>
      <point x="484.0" y="153.0"/>
      <point x="484.0" y="153.0"/>
      <point x="451.0" y="153.0" type="qcurve" smooth="yes"/>
      <point x="234.0" y="153.0" type="line" smooth="yes"/>
      <point x="201.0" y="153.0"/>
      <point x="201.0" y="153.0"/>
      <point x="201.0" y="186.0" type="qcurve" smooth="yes"/>
      <point x="201.0" y="578.0" type="line"/>
      <point x="48.0" y="578.0" type="line"/>
      <point x="48.0" y="145.0" type="line" smooth="yes"/>
      <point x="48.0" y="86.0"/>
      <point x="134.0" y="0.0"/>
      <point x="194.0" y="0.0" type="qcurve" smooth="yes"/>
      <point x="484.0" y="0.0" type="line"/>
      <point x="484.0" y="-21.0" type="line" smooth="yes"/>
      <point x="484.0" y="-54.0"/>
      <point x="484.0" y="-54.0"/>
      <point x="451.0" y="-54.0" type="qcurve" smooth="yes"/>
      <point x="140.0" y="-54.0" type="line"/>
    </contour>
  </outline>
</glyph>
<glyph name="braceleft" format="2">
  <advance width="289.0"/>
  <unicode hex="007B"/>
  <outline>
    <contour>
      <point x="209.0" y="0.0" type="qcurve" smooth="yes"/>
      <point x="274.0" y="0.0" type="line"/>
      <point x="274.0" y="153.0" type="line"/>
      <point x="249.0" y="153.0" type="line" smooth="yes"/>
      <point x="216.0" y="153.0"/>
      <point x="216.0" y="153.0"/>
      <point x="216.0" y="186.0" type="qcurve" smooth="yes"/>
      <point x="216.0" y="331.0" type="line"/>
      <point x="171.0" y="368.0" type="line"/>
      <point x="216.0" y="406.0" type="line"/>
      <point x="216.0" y="534.0" type="line" smooth="yes"/>
      <point x="216.0" y="567.0"/>
      <point x="216.0" y="567.0"/>
      <point x="249.0" y="567.0" type="qcurve" smooth="yes"/>
      <point x="274.0" y="567.0" type="line"/>
      <point x="274.0" y="720.0" type="line"/>
      <point x="209.0" y="720.0" type="line" smooth="yes"/>
      <point x="148.552" y="720.0"/>
      <point x="63.0" y="634.701"/>
      <point x="63.0" y="575.0" type="qcurve" smooth="yes"/>
      <point x="63.0" y="456.0" type="line"/>
      <point x="23.0" y="434.0" type="line"/>
      <point x="23.0" y="303.0" type="line"/>
      <point x="63.0" y="280.0" type="line"/>
      <point x="63.0" y="145.0" type="line" smooth="yes"/>
      <point x="63.0" y="86.045"/>
      <point x="148.552" y="0.0"/>
    </contour>
  </outline>
</glyph>
<glyph name="bar" format="2">
  <advance width="285.0"/>
  <unicode hex="007C"/>
  <outline>
    <contour>
      <point x="54.0" y="-99.0" type="line"/>
      <point x="207.0" y="-99.0" type="line"/>
      <point x="207.0" y="804.0" type="line"/>
      <point x="54.0" y="804.0" type="line"/>
    </contour>
  </outline>
</glyph>
<glyph name="braceright" format="2">
  <advance width="363.0"/>
  <unicode hex="007D"/>
  <outline>
    <contour>
      <point x="56.0" y="0.0" type="line"/>
      <point x="121.0" y="0.0" type="line" smooth="yes"/>
      <point x="181.0" y="0.0"/>
      <point x="267.0" y="86.0"/>
      <point x="267.0" y="145.0" type="qcurve" smooth="yes"/>
      <point x="267.0" y="280.0" type="line"/>
      <point x="307.0" y="305.0" type="line"/>
      <point x="307.0" y="433.0" type="line"/>
      <point x="267.0" y="457.0" type="line"/>
      <point x="267.0" y="575.0" type="line" smooth="yes"/>
      <point x="267.0" y="635.0"/>
      <point x="181.0" y="720.0"/>
      <point x="121.0" y="720.0" type="qcurve" smooth="yes"/>
      <point x="56.0" y="720.0" type="line"/>
      <point x="56.0" y="567.0" type="line"/>
      <point x="81.0" y="567.0" type="line" smooth="yes"/>
      <point x="114.0" y="567.0"/>
      <point x="114.0" y="567.0"/>
      <point x="114.0" y="534.0" type="qcurve" smooth="yes"/>
      <point x="114.0" y="406.0" type="line"/>
      <point x="159.0" y="368.0" type="line"/>
      <point x="114.0" y="330.0" type="line"/>
      <point x="114.0" y="186.0" type="line" smooth="yes"/>
      <point x="114.0" y="153.0"/>
      <point x="114.0" y="153.0"/>
      <point x="81.0" y="153.0" type="qcurve" smooth="yes"/>
      <point x="56.0" y="153.0" type="line"/>
    </contour>
  </outline>
</glyph>
<glyph name="asciitilde" format="2">
  <advance width="404.0"/>
  <unicode hex="007E"/>
  <outline>
    <contour>
      <point x="300.0" y="210.0" type="qcurve" smooth="yes"/>
      <point x="325.373" y="210.0"/>
      <point x="375.866" y="225.299"/>
      <point x="399.0" y="235.0" type="qcurve"/>
      <point x="399.0" y="361.0" type="line"/>
      <point x="365.418" y="339.358"/>
      <point x="319.418" y="325.0"/>
      <point x="303.0" y="325.0" type="qcurve" smooth="yes"/>
      <point x="253.0" y="330.0"/>
      <point x="170.493" y="387.0"/>
      <point x="119.0" y="387.0" type="qcurve" smooth="yes"/>
      <point x="96.612" y="387.0"/>
      <point x="46.388" y="373.702"/>
      <point x="24.0" y="364.0" type="qcurve"/>
      <point x="24.0" y="232.0" type="line"/>
      <point x="59.075" y="258.866"/>
      <point x="101.06" y="271.0"/>
      <point x="113.0" y="271.0" type="qcurve" smooth="yes"/>
      <point x="163.746" y="271.0"/>
      <point x="247.015" y="210.0"/>
    </contour>
  </outline>
</glyph>
<glyph name="exclamdown" format="2">
  <advance width="210.0"/>
  <unicode hex="00A1"/>
  <outline>
    <contour>
      <point x="206.0" y="706.0" type="line"/>
      <point x="53.0" y="706.0" type="line"/>
      <point x="53.0" y="553.0" type="line"/>
      <point x="206.0" y="553.0" type="line"/>
    </contour>
    <contour>
      <point x="206.0" y="0.0" type="line"/>
      <point x="206.0" y="526.0" type="line"/>
      <point x="53.0" y="526.0" type="line"/>
      <point x="53.0" y="0.0" type="line"/>
    </contour>
  </outline>
</glyph>
<glyph name="cent" format="2">
  <advance width="636.0"/>
  <unicode hex="00A2"/>
  <outline>
    <contour>
      <point x="291.0" y="-99.0" type="line"/>
      <point x="445.0" y="-99.0" type="line"/>
      <point x="445.0" y="0.0" type="line"/>
      <point x="621.0" y="0.0" type="line"/>
      <point x="621.0" y="153.0" type="line"/>
      <point x="445.0" y="153.0" type="line"/>
      <point x="445.0" y="435.0" type="line"/>
      <point x="621.0" y="435.0" type="line"/>
      <point x="621.0" y="590.0" type="line"/>
      <point x="445.0" y="590.0" type="line"/>
      <point x="445.0" y="705.0" type="line"/>
      <point x="291.0" y="705.0" type="line"/>
      <point x="291.0" y="590.0" type="line"/>
      <point x="179.0" y="590.0" type="line" smooth="yes"/>
      <point x="119.299" y="590.0"/>
      <point x="33.0" y="503.702"/>
      <point x="33.0" y="444.0" type="qcurve" smooth="yes"/>
      <point x="33.0" y="145.0" type="line" smooth="yes"/>
      <point x="33.0" y="86.045"/>
      <point x="119.299" y="0.0"/>
      <point x="179.0" y="0.0" type="qcurve" smooth="yes"/>
      <point x="291.0" y="0.0" type="line"/>
    </contour>
    <contour>
      <point x="219.0" y="153.0" type="line" smooth="yes"/>
      <point x="186.0" y="153.0"/>
      <point x="186.0" y="153.0"/>
      <point x="186.0" y="186.0" type="qcurve" smooth="yes"/>
      <point x="186.0" y="402.0" type="line" smooth="yes"/>
      <point x="186.0" y="435.0"/>
      <point x="186.0" y="435.0"/>
      <point x="219.0" y="435.0" type="qcurve" smooth="yes"/>
      <point x="291.0" y="435.0" type="line"/>
      <point x="291.0" y="153.0" type="line"/>
    </contour>
  </outline>
</glyph>
<glyph name="sterling" format="2">
  <advance width="734.0"/>
  <unicode hex="00A3"/>
  <outline>
    <contour>
      <point x="680.0" y="519.0" type="line"/>
      <point x="680.0" y="575.0" type="line" smooth="yes"/>
      <point x="680.0" y="634.701"/>
      <point x="594.701" y="720.0"/>
      <point x="535.0" y="720.0" type="qcurve" smooth="yes"/>
      <point x="274.0" y="720.0" type="line" smooth="yes"/>
      <point x="215.045" y="720.0"/>
      <point x="129.0" y="634.701"/>
      <point x="129.0" y="575.0" type="qcurve" smooth="yes"/>
      <point x="129.0" y="430.0" type="line"/>
      <point x="39.0" y="430.0" type="line"/>
      <point x="39.0" y="277.0" type="line"/>
      <point x="129.0" y="277.0" type="line"/>
      <point x="129.0" y="153.0" type="line"/>
      <point x="39.0" y="153.0" type="line"/>
      <point x="39.0" y="0.0" type="line"/>
      <point x="680.0" y="0.0" type="line"/>
      <point x="680.0" y="153.0" type="line"/>
      <point x="282.0" y="153.0" type="line"/>
      <point x="282.0" y="277.0" type="line"/>
      <point x="584.0" y="277.0" type="line"/>
      <point x="584.0" y="430.0" type="line"/>
      <point x="282.0" y="430.0" type="line"/>
      <point x="282.0" y="534.0" type="line" smooth="yes"/>
      <point x="282.0" y="567.0"/>
      <point x="282.0" y="567.0"/>
      <point x="315.0" y="567.0" type="qcurve" smooth="yes"/>
      <point x="493.0" y="567.0" type="line" smooth="yes"/>
      <point x="526.0" y="567.0"/>
      <point x="526.0" y="567.0"/>
      <point x="526.0" y="534.0" type="qcurve" smooth="yes"/>
      <point x="526.0" y="519.0" type="line"/>
    </contour>
  </outline>
</glyph>
<glyph name="currency" format="2">
  <advance width="668.0"/>
  <unicode hex="00A4"/>
  <outline>
    <contour>
      <point x="245.0" y="60.0" type="qcurve" smooth="yes"/>
      <point x="423.0" y="60.0" type="line" smooth="yes"/>
      <point x="483.0" y="60.0"/>
      <point x="568.0" y="146.0"/>
      <point x="568.0" y="205.0" type="qcurve" smooth="yes"/>
      <point x="568.0" y="375.0" type="line" smooth="yes"/>
      <point x="568.0" y="434.0"/>
      <point x="483.0" y="520.0"/>
      <point x="423.0" y="520.0" type="qcurve" smooth="yes"/>
      <point x="245.0" y="520.0" type="line" smooth="yes"/>
      <point x="186.0" y="520.0"/>
      <point x="100.0" y="434.0"/>
      <point x="100.0" y="375.0" type="qcurve" smooth="yes"/>
      <point x="100.0" y="205.0" type="line" smooth="yes"/>
      <point x="100.0" y="146.0"/>
      <point x="186.0" y="60.0"/>
    </contour>
    <contour>
      <point x="126.0" y="-22.0" type="line"/>
      <point x="222.0" y="75.0" type="line"/>
      <point x="114.0" y="183.0" type="line"/>
      <point x="17.0" y="86.0" type="line"/>
    </contour>
    <contour>
      <point x="114.0" y="395.0" type="line"/>
      <point x="222.0" y="503.0" type="line"/>
      <point x="125.0" y="600.0" type="line"/>
      <point x="17.0" y="491.0" type="line"/>
    </contour>
    <contour>
      <point x="286.0" y="213.0" type="line" smooth="yes"/>
      <point x="253.0" y="213.0"/>
      <point x="253.0" y="213.0"/>
      <point x="253.0" y="246.0" type="qcurve" smooth="yes"/>
      <point x="253.0" y="334.0" type="line" smooth="yes"/>
      <point x="253.0" y="367.0"/>
      <point x="253.0" y="367.0"/>
      <point x="286.0" y="367.0" type="qcurve" smooth="yes"/>
      <point x="382.0" y="367.0" type="line" smooth="yes"/>
      <point x="415.0" y="367.0"/>
      <point x="415.0" y="367.0"/>
      <point x="415.0" y="334.0" type="qcurve" smooth="yes"/>
      <point x="415.0" y="246.0" type="line" smooth="yes"/>
      <point x="415.0" y="213.0"/>
      <point x="415.0" y="213.0"/>
      <point x="382.0" y="213.0" type="qcurve" smooth="yes"/>
    </contour>
    <contour>
      <point x="547.0" y="-19.0" type="line"/>
      <point x="655.0" y="90.0" type="line"/>
      <point x="558.0" y="186.0" type="line"/>
      <point x="450.0" y="78.0" type="line"/>
    </contour>
    <contour>
      <point x="558.0" y="398.0" type="line"/>
      <point x="655.0" y="495.0" type="line"/>
      <point x="546.0" y="603.0" type="line"/>
      <point x="450.0" y="506.0" type="line"/>
    </contour>
  </outline>
</glyph>
<glyph name="yen" format="2">
  <advance width="500.0"/>
  <unicode hex="00A5"/>
  <outline>
    <contour>
      <point x="237.0" y="194.0" type="curve" smooth="yes"/>
      <point x="297.0" y="194.0"/>
      <point x="345.0" y="242.0"/>
      <point x="345.0" y="302.0" type="curve" smooth="yes"/>
      <point x="345.0" y="362.0"/>
      <point x="297.0" y="410.0"/>
      <point x="237.0" y="410.0" type="curve" smooth="yes"/>
      <point x="177.0" y="410.0"/>
      <point x="129.0" y="362.0"/>
      <point x="129.0" y="302.0" type="curve" smooth="yes"/>
      <point x="129.0" y="242.0"/>
      <point x="177.0" y="194.0"/>
    </contour>
  </outline>
</glyph>
<glyph name="brokenbar" format="2">
  <advance width="261.0"/>
  <unicode hex="00A6"/>
  <outline>
    <contour>
      <point x="54.0" y="-99.0" type="line"/>
      <point x="207.0" y="-99.0" type="line"/>
      <point x="207.0" y="297.0" type="line"/>
      <point x="54.0" y="297.0" type="line"/>
    </contour>
    <contour>
      <point x="54.0" y="437.0" type="line"/>
      <point x="207.0" y="437.0" type="line"/>
      <point x="207.0" y="804.0" type="line"/>
      <point x="54.0" y="804.0" type="line"/>
    </contour>
  </outline>
</glyph>
<glyph name="section" format="2">
  <advance width="832.0"/>
  <unicode hex="00A7"/>
  <outline>
    <contour>
      <point x="619.0" y="99.0" type="line" smooth="yes"/>
      <point x="776.0" y="-1.0" type="line"/>
      <point x="776.0" y="290.0" type="line" smooth="yes"/>
      <point x="776.0" y="351.0"/>
      <point x="688.0" y="438.0"/>
      <point x="628.0" y="438.0" type="qcurve" smooth="yes"/>
      <point x="244.0" y="438.0" type="line" smooth="yes"/>
      <point x="211.0" y="438.0"/>
      <point x="211.0" y="438.0"/>
      <point x="211.0" y="471.0" type="qcurve" smooth="yes"/>
      <point x="211.0" y="531.0" type="line" smooth="yes"/>
      <point x="211.0" y="564.0"/>
      <point x="211.0" y="564.0"/>
      <point x="244.0" y="564.0" type="qcurve" smooth="yes"/>
      <point x="586.0" y="564.0" type="line" smooth="yes"/>
      <point x="619.0" y="564.0"/>
      <point x="619.0" y="564.0"/>
      <point x="619.0" y="531.0" type="qcurve" smooth="yes"/>
      <point x="619.0" y="505.0" type="line"/>
      <point x="776.0" y="505.0" type="line"/>
      <point x="776.0" y="572.0" type="line" smooth="yes"/>
      <point x="776.0" y="633.0"/>
      <point x="688.0" y="720.0"/>
      <point x="628.0" y="720.0" type="qcurve" smooth="yes"/>
      <point x="204.0" y="720.0" type="line" smooth="yes"/>
      <point x="143.0" y="720.0"/>
      <point x="56.0" y="633.0"/>
      <point x="56.0" y="572.0" type="qcurve" smooth="yes"/>
      <point x="56.0" y="430.0" type="line" smooth="yes"/>
      <point x="56.0" y="369.0"/>
      <point x="143.0" y="282.0"/>
      <point x="204.0" y="282.0" type="qcurve" smooth="yes"/>
      <point x="586.0" y="282.0" type="line" smooth="yes"/>
      <point x="619.0" y="282.0"/>
      <point x="619.0" y="282.0"/>
      <point x="619.0" y="249.0" type="qcurve" smooth="yes"/>
    </contour>
    <contour>
      <point x="204.0" y="-250.0" type="qcurve" smooth="yes"/>
      <point x="628.0" y="-250.0" type="line" smooth="yes"/>
      <point x="688.0" y="-250.0"/>
      <point x="776.0" y="-163.0"/>
      <point x="776.0" y="-102.0" type="qcurve" smooth="yes"/>
      <point x="776.0" y="40.0" type="line" smooth="yes"/>
      <point x="776.0" y="101.0"/>
      <point x="688.0" y="188.0"/>
      <point x="628.0" y="188.0" type="qcurve" smooth="yes"/>
      <point x="244.0" y="188.0" type="line" smooth="yes"/>
      <point x="211.0" y="188.0"/>
      <point x="211.0" y="188.0"/>
      <point x="211.0" y="221.0" type="qcurve" smooth="yes"/>
      <point x="211.0" y="361.0" type="line" smooth="yes"/>
      <point x="56.0" y="482.0" type="line"/>
      <point x="56.0" y="180.0" type="line" smooth="yes"/>
      <point x="56.0" y="119.0"/>
      <point x="143.0" y="32.0"/>
      <point x="204.0" y="32.0" type="qcurve" smooth="yes"/>
      <point x="586.0" y="32.0" type="line" smooth="yes"/>
      <point x="619.0" y="32.0"/>
      <point x="619.0" y="32.0"/>
      <point x="619.0" y="-1.0" type="qcurve" smooth="yes"/>
      <point x="619.0" y="-61.0" type="line" smooth="yes"/>
      <point x="619.0" y="-94.0"/>
      <point x="619.0" y="-94.0"/>
      <point x="586.0" y="-94.0" type="qcurve" smooth="yes"/>
      <point x="244.0" y="-94.0" type="line" smooth="yes"/>
      <point x="211.0" y="-94.0"/>
      <point x="211.0" y="-94.0"/>
      <point x="211.0" y="-61.0" type="qcurve" smooth="yes"/>
      <point x="211.0" y="-35.0" type="line"/>
      <point x="56.0" y="-35.0" type="line"/>
      <point x="56.0" y="-102.0" type="line" smooth="yes"/>
      <point x="56.0" y="-163.0"/>
      <point x="143.0" y="-250.0"/>
    </contour>
  </outline>
</glyph>
<glyph name="dieresis" format="2">
  <advance width="385.0"/>
  <unicode hex="00A8"/>
  <outline>
    <contour>
      <point x="421.0" y="901.0" type="line"/>
      <point x="267.0" y="901.0" type="line"/>
      <point x="267.0" y="747.0" type="line"/>
      <point x="421.0" y="747.0" type="line"/>
    </contour>
    <contour>
      <point x="207.0" y="901.0" type="line"/>
      <point x="54.0" y="901.0" type="line"/>
      <point x="54.0" y="747.0" type="line"/>
      <point x="207.0" y="747.0" type="line"/>
    </contour>
  </outline>
</glyph>
<glyph name="ordfeminine" format="2">
  <advance width="500.0"/>
  <unicode hex="00AA"/>
  <outline>
    <contour>
      <point x="186.0" y="327.0" type="qcurve" smooth="yes"/>
      <point x="500.0" y="327.0" type="line"/>
      <point x="500.0" y="633.0" type="line" smooth="yes"/>
      <point x="500.0" y="666.0"/>
      <point x="452.0" y="713.0"/>
      <point x="418.0" y="713.0" type="qcurve" smooth="yes"/>
      <point x="106.0" y="713.0" type="line"/>
      <point x="106.0" y="659.0" type="line"/>
      <point x="418.0" y="659.0" type="line" smooth="yes"/>
      <point x="429.0" y="659.0"/>
      <point x="444.0" y="643.0"/>
      <point x="444.0" y="633.0" type="qcurve" smooth="yes"/>
      <point x="444.0" y="547.0" type="line"/>
      <point x="106.0" y="547.0" type="line"/>
      <point x="106.0" y="407.0" type="line" smooth="yes"/>
      <point x="106.0" y="374.0"/>
      <point x="153.0" y="327.0"/>
    </contour>
    <contour>
      <point x="186.0" y="381.0" type="line" smooth="yes"/>
      <point x="176.0" y="381.0"/>
      <point x="160.0" y="397.0"/>
      <point x="160.0" y="407.0" type="qcurve" smooth="yes"/>
      <point x="160.0" y="493.0" type="line"/>
      <point x="444.0" y="493.0" type="line"/>
      <point x="444.0" y="381.0" type="line"/>
    </contour>
  </outline>
</glyph>
<glyph name="guillemetleft" format="2">
  <advance width="500.0"/>
  <unicode hex="00AB"/>
  <outline>
    <contour>
      <point x="331.0" y="54.0" type="line"/>
      <point x="402.0" y="71.0" type="line"/>
      <point x="334.0" y="300.0" type="line"/>
      <point x="442.0" y="494.0" type="line"/>
      <point x="368.0" y="504.0" type="line"/>
      <point x="200.0" y="280.0" type="line"/>
    </contour>
    <contour>
      <point x="236.0" y="49.0" type="line"/>
      <point x="117.0" y="267.0" type="line"/>
      <point x="239.0" y="489.0" type="line"/>
      <point x="161.0" y="480.0" type="line"/>
      <point x="15.0" y="300.0" type="line"/>
      <point x="118.0" y="59.0" type="line"/>
    </contour>
  </outline>
</glyph>
<glyph name="logicalnot" format="2">
  <advance width="500.0"/>
  <unicode hex="00AC"/>
  <outline>
    <contour>
      <point x="75.0" y="724.0" type="line"/>
      <point x="75.0" y="582.0" type="line"/>
      <point x="304.0" y="582.0" type="line" smooth="yes"/>
      <point x="320.0" y="582.0"/>
      <point x="343.0" y="558.0"/>
      <point x="343.0" y="543.0" type="qcurve" smooth="yes"/>
      <point x="344.0" y="427.0" type="line"/>
      <point x="476.0" y="427.0" type="line"/>
      <point x="476.0" y="543.0" type="line" smooth="yes"/>
      <point x="476.0" y="643.0"/>
      <point x="415.0" y="724.0"/>
      <point x="355.0" y="724.0" type="qcurve" smooth="yes"/>
    </contour>
  </outline>
</glyph>
<glyph name="registered" format="2">
  <advance width="432.0"/>
  <unicode hex="00AE"/>
  <outline>
    <contour>
      <point x="109.0" y="400.0" type="qcurve" smooth="yes"/>
      <point x="323.0" y="400.0" type="line" smooth="yes"/>
      <point x="345.0" y="400.0"/>
      <point x="376.0" y="431.0"/>
      <point x="376.0" y="453.0" type="qcurve" smooth="yes"/>
      <point x="376.0" y="667.0" type="line" smooth="yes"/>
      <point x="376.0" y="689.0"/>
      <point x="345.0" y="720.0"/>
      <point x="323.0" y="720.0" type="qcurve" smooth="yes"/>
      <point x="109.0" y="720.0" type="line" smooth="yes"/>
      <point x="87.0" y="720.0"/>
      <point x="56.0" y="689.0"/>
      <point x="56.0" y="667.0" type="qcurve" smooth="yes"/>
      <point x="56.0" y="453.0" type="line" smooth="yes"/>
      <point x="56.0" y="431.0"/>
      <point x="87.0" y="400.0"/>
    </contour>
    <contour>
      <point x="109.0" y="436.0" type="line" smooth="yes"/>
      <point x="102.0" y="436.0"/>
      <point x="92.0" y="446.0"/>
      <point x="92.0" y="453.0" type="qcurve" smooth="yes"/>
      <point x="92.0" y="667.0" type="line" smooth="yes"/>
      <point x="92.0" y="674.0"/>
      <point x="102.0" y="684.0"/>
      <point x="109.0" y="684.0" type="qcurve" smooth="yes"/>
      <point x="323.0" y="684.0" type="line" smooth="yes"/>
      <point x="330.0" y="684.0"/>
      <point x="340.0" y="674.0"/>
      <point x="340.0" y="667.0" type="qcurve" smooth="yes"/>
      <point x="340.0" y="453.0" type="line" smooth="yes"/>
      <point x="340.0" y="446.0"/>
      <point x="330.0" y="436.0"/>
      <point x="323.0" y="436.0" type="qcurve" smooth="yes"/>
    </contour>
    <contour>
      <point x="125.0" y="466.0" type="line"/>
      <point x="151.0" y="466.0" type="line"/>
      <point x="151.0" y="534.0" type="line"/>
      <point x="210.0" y="534.0" type="line"/>
      <point x="284.0" y="466.0" type="line"/>
      <point x="318.0" y="466.0" type="line"/>
      <point x="243.0" y="534.0" type="line"/>
      <point x="278.0" y="534.0" type="line" smooth="yes"/>
      <point x="294.0" y="534.0"/>
      <point x="317.0" y="557.0"/>
      <point x="317.0" y="574.0" type="qcurve" smooth="yes"/>
      <point x="317.0" y="616.0" type="line" smooth="yes"/>
      <point x="317.0" y="633.0"/>
      <point x="294.0" y="656.0"/>
      <point x="278.0" y="656.0" type="qcurve" smooth="yes"/>
      <point x="125.0" y="656.0" type="line"/>
    </contour>
    <contour>
      <point x="164.0" y="561.0" type="line" smooth="yes"/>
      <point x="159.0" y="561.0"/>
      <point x="151.0" y="569.0"/>
      <point x="151.0" y="574.0" type="qcurve" smooth="yes"/>
      <point x="151.0" y="616.0" type="line" smooth="yes"/>
      <point x="151.0" y="621.0"/>
      <point x="159.0" y="629.0"/>
      <point x="164.0" y="629.0" type="qcurve" smooth="yes"/>
      <point x="278.0" y="629.0" type="line" smooth="yes"/>
      <point x="283.0" y="629.0"/>
      <point x="291.0" y="621.0"/>
      <point x="291.0" y="616.0" type="qcurve" smooth="yes"/>
      <point x="291.0" y="574.0" type="line" smooth="yes"/>
      <point x="291.0" y="569.0"/>
      <point x="283.0" y="561.0"/>
      <point x="278.0" y="561.0" type="qcurve" smooth="yes"/>
    </contour>
  </outline>
</glyph>
<glyph name="macron" format="2">
  <advance width="500.0"/>
  <unicode hex="00AF"/>
  <outline>
    <contour>
      <point x="87.0" y="720.0" type="line"/>
      <point x="87.0" y="638.0" type="line"/>
      <point x="411.0" y="638.0" type="line"/>
      <point x="411.0" y="720.0" type="line"/>
    </contour>
  </outline>
</glyph>
<glyph name="degree" format="2">
  <advance width="439.0"/>
  <unicode hex="00B0"/>
  <outline>
    <contour>
      <point x="191.0" y="343.0" type="qcurve" smooth="yes"/>
      <point x="272.0" y="343.0" type="line" smooth="yes"/>
      <point x="330.955" y="343.0"/>
      <point x="417.0" y="429.298"/>
      <point x="417.0" y="489.0" type="qcurve" smooth="yes"/>
      <point x="417.0" y="561.0" type="line" smooth="yes"/>
      <point x="417.0" y="620.701"/>
      <point x="330.955" y="706.0"/>
      <point x="272.0" y="706.0" type="qcurve" smooth="yes"/>
      <point x="191.0" y="706.0" type="line" smooth="yes"/>
      <point x="131.299" y="706.0"/>
      <point x="45.0" y="620.701"/>
      <point x="45.0" y="561.0" type="qcurve" smooth="yes"/>
      <point x="45.0" y="489.0" type="line" smooth="yes"/>
      <point x="45.0" y="429.298"/>
      <point x="131.299" y="343.0"/>
    </contour>
    <contour>
      <point x="213.0" y="479.0" type="line" smooth="yes"/>
      <point x="180.0" y="479.0"/>
      <point x="180.0" y="479.0"/>
      <point x="180.0" y="512.0" type="qcurve" smooth="yes"/>
      <point x="180.0" y="538.0" type="line" smooth="yes"/>
      <point x="180.0" y="571.0"/>
      <point x="180.0" y="571.0"/>
      <point x="213.0" y="571.0" type="qcurve" smooth="yes"/>
      <point x="249.0" y="571.0" type="line" smooth="yes"/>
      <point x="282.0" y="571.0"/>
      <point x="282.0" y="571.0"/>
      <point x="282.0" y="538.0" type="qcurve" smooth="yes"/>
      <point x="282.0" y="512.0" type="line" smooth="yes"/>
      <point x="282.0" y="479.0"/>
      <point x="282.0" y="479.0"/>
      <point x="249.0" y="479.0" type="qcurve" smooth="yes"/>
    </contour>
  </outline>
</glyph>
<glyph name="plusminus" format="2">
  <advance width="500.0"/>
  <unicode hex="00B1"/>
  <outline>
    <contour>
      <point x="209.0" y="590.0" type="line"/>
      <point x="209.0" y="437.0" type="line"/>
      <point x="57.0" y="437.0" type="line"/>
      <point x="57.0" y="355.0" type="line"/>
      <point x="209.0" y="355.0" type="line"/>
      <point x="209.0" y="200.0" type="line"/>
      <point x="291.0" y="200.0" type="line"/>
      <point x="291.0" y="355.0" type="line"/>
      <point x="447.0" y="355.0" type="line"/>
      <point x="447.0" y="437.0" type="line"/>
      <point x="291.0" y="437.0" type="line"/>
      <point x="291.0" y="590.0" type="line"/>
    </contour>
    <contour>
      <point x="449.0" y="127.0" type="line"/>
      <point x="59.0" y="127.0" type="line"/>
      <point x="59.0" y="45.0" type="line"/>
      <point x="449.0" y="45.0" type="line"/>
    </contour>
  </outline>
</glyph>
<glyph name="twosuperior" format="2">
  <advance width="444.0"/>
  <unicode hex="00B2"/>
  <outline>
    <contour>
      <point x="20.0" y="325.0" type="line"/>
      <point x="424.0" y="325.0" type="line"/>
      <point x="424.0" y="413.0" type="line"/>
      <point x="126.0" y="413.0" type="line" smooth="yes"/>
      <point x="107.0" y="413.0"/>
      <point x="107.0" y="413.0"/>
      <point x="107.0" y="432.0" type="qcurve" smooth="yes"/>
      <point x="107.0" y="461.0" type="line" smooth="yes"/>
      <point x="107.0" y="480.0"/>
      <point x="107.0" y="480.0"/>
      <point x="126.0" y="480.0" type="qcurve" smooth="yes"/>
      <point x="340.0" y="480.0" type="line" smooth="yes"/>
      <point x="374.0" y="480.0"/>
      <point x="424.0" y="529.0"/>
      <point x="424.0" y="563.0" type="qcurve" smooth="yes"/>
      <point x="424.0" y="654.0" type="line" smooth="yes"/>
      <point x="424.0" y="688.0"/>
      <point x="374.0" y="737.0"/>
      <point x="340.0" y="737.0" type="qcurve" smooth="yes"/>
      <point x="103.0" y="737.0" type="line" smooth="yes"/>
      <point x="69.0" y="737.0"/>
      <point x="20.0" y="688.0"/>
      <point x="20.0" y="654.0" type="qcurve" smooth="yes"/>
      <point x="20.0" y="616.0" type="line"/>
      <point x="107.0" y="616.0" type="line"/>
      <point x="107.0" y="630.0" type="line" smooth="yes"/>
      <point x="107.0" y="649.0"/>
      <point x="107.0" y="649.0"/>
      <point x="126.0" y="649.0" type="qcurve" smooth="yes"/>
      <point x="317.0" y="649.0" type="line" smooth="yes"/>
      <point x="336.0" y="649.0"/>
      <point x="336.0" y="649.0"/>
      <point x="336.0" y="630.0" type="qcurve" smooth="yes"/>
      <point x="336.0" y="586.0" type="line" smooth="yes"/>
      <point x="336.0" y="568.0"/>
      <point x="336.0" y="568.0"/>
      <point x="317.0" y="568.0" type="qcurve" smooth="yes"/>
      <point x="103.0" y="568.0" type="line" smooth="yes"/>
      <point x="69.0" y="568.0"/>
      <point x="20.0" y="519.0"/>
      <point x="20.0" y="485.0" type="qcurve" smooth="yes"/>
    </contour>
  </outline>
</glyph>
<glyph name="acute" format="2">
  <advance width="213.0"/>
  <unicode hex="00B4"/>
  <outline>
    <contour>
      <point x="33.0" y="747.0" type="line"/>
      <point x="190.0" y="747.0" type="line"/>
      <point x="241.0" y="950.0" type="line"/>
      <point x="84.0" y="950.0" type="line"/>
    </contour>
  </outline>
</glyph>
<glyph name="paragraph" format="2">
  <advance width="833.0"/>
  <unicode hex="00B6"/>
  <outline>
    <contour>
      <point x="410.0" y="0.0" type="line"/>
      <point x="564.0" y="0.0" type="line"/>
      <point x="564.0" y="232.0" type="line"/>
      <point x="630.0" y="232.0" type="line"/>
      <point x="630.0" y="0.0" type="line"/>
      <point x="783.0" y="0.0" type="line"/>
      <point x="783.0" y="706.0" type="line"/>
      <point x="202.0" y="706.0" type="line" smooth="yes"/>
      <point x="142.299" y="706.0"/>
      <point x="56.0" y="618.955"/>
      <point x="56.0" y="560.0" type="qcurve" smooth="yes"/>
      <point x="56.0" y="377.0" type="line" smooth="yes"/>
      <point x="56.0" y="318.791"/>
      <point x="142.299" y="232.0"/>
      <point x="202.0" y="232.0" type="qcurve" smooth="yes"/>
      <point x="410.0" y="232.0" type="line"/>
    </contour>
    <contour>
      <point x="242.0" y="386.0" type="line" smooth="yes"/>
      <point x="209.0" y="386.0"/>
      <point x="209.0" y="386.0"/>
      <point x="209.0" y="419.0" type="qcurve" smooth="yes"/>
      <point x="209.0" y="519.0" type="line" smooth="yes"/>
      <point x="209.0" y="552.0"/>
      <point x="209.0" y="552.0"/>
      <point x="242.0" y="552.0" type="qcurve" smooth="yes"/>
      <point x="410.0" y="552.0" type="line"/>
      <point x="410.0" y="386.0" type="line"/>
    </contour>
    <contour>
      <point x="564.0" y="386.0" type="line"/>
      <point x="564.0" y="552.0" type="line"/>
      <point x="630.0" y="552.0" type="line"/>
      <point x="630.0" y="386.0" type="line"/>
    </contour>
  </outline>
</glyph>
<glyph name="onesuperior" format="2">
  <advance width="263.0"/>
  <unicode hex="00B9"/>
  <outline>
    <contour>
      <point x="145.0" y="325.0" type="line"/>
      <point x="233.0" y="325.0" type="line"/>
      <point x="233.0" y="737.0" type="line"/>
      <point x="142.0" y="737.0" type="line"/>
      <point x="10.0" y="580.0" type="line"/>
      <point x="126.0" y="580.0" type="line"/>
      <point x="145.0" y="604.0" type="line"/>
    </contour>
  </outline>
</glyph>
<glyph name="ordmasculine" format="2">
  <advance width="500.0"/>
  <unicode hex="00BA"/>
  <outline>
    <contour>
      <point x="186.0" y="334.0" type="qcurve" smooth="yes"/>
      <point x="418.0" y="334.0" type="line" smooth="yes"/>
      <point x="452.0" y="334.0"/>
      <point x="500.0" y="381.0"/>
      <point x="500.0" y="414.0" type="qcurve" smooth="yes"/>
      <point x="500.0" y="640.0" type="line" smooth="yes"/>
      <point x="500.0" y="673.0"/>
      <point x="452.0" y="720.0"/>
      <point x="418.0" y="720.0" type="qcurve" smooth="yes"/>
      <point x="186.0" y="720.0" type="line" smooth="yes"/>
      <point x="153.0" y="720.0"/>
      <point x="106.0" y="673.0"/>
      <point x="106.0" y="640.0" type="qcurve" smooth="yes"/>
      <point x="106.0" y="414.0" type="line" smooth="yes"/>
      <point x="106.0" y="381.0"/>
      <point x="153.0" y="334.0"/>
    </contour>
    <contour>
      <point x="186.0" y="388.0" type="line" smooth="yes"/>
      <point x="176.0" y="388.0"/>
      <point x="160.0" y="404.0"/>
      <point x="160.0" y="414.0" type="qcurve" smooth="yes"/>
      <point x="160.0" y="640.0" type="line" smooth="yes"/>
      <point x="160.0" y="650.0"/>
      <point x="176.0" y="666.0"/>
      <point x="186.0" y="666.0" type="qcurve" smooth="yes"/>
      <point x="418.0" y="666.0" type="line" smooth="yes"/>
      <point x="429.0" y="666.0"/>
      <point x="444.0" y="650.0"/>
      <point x="444.0" y="640.0" type="qcurve" smooth="yes"/>
      <point x="444.0" y="414.0" type="line" smooth="yes"/>
      <point x="444.0" y="404.0"/>
      <point x="429.0" y="388.0"/>
      <point x="418.0" y="388.0" type="qcurve" smooth="yes"/>
    </contour>
  </outline>
</glyph>
<glyph name="guillemetright" format="2">
  <advance width="500.0"/>
  <unicode hex="00BB"/>
  <outline>
    <contour>
      <point x="89.0" y="49.0" type="line"/>
      <point x="257.0" y="273.0" type="line"/>
      <point x="126.0" y="499.0" type="line"/>
      <point x="55.0" y="482.0" type="line"/>
      <point x="123.0" y="253.0" type="line"/>
      <point x="15.0" y="59.0" type="line"/>
    </contour>
    <contour>
      <point x="218.0" y="64.0" type="line"/>
      <point x="296.0" y="73.0" type="line"/>
      <point x="442.0" y="253.0" type="line"/>
      <point x="339.0" y="494.0" type="line"/>
      <point x="221.0" y="504.0" type="line"/>
      <point x="340.0" y="286.0" type="line"/>
    </contour>
  </outline>
</glyph>
<glyph name="onequarter" format="2">
  <advance width="500.0"/>
  <unicode hex="00BC"/>
  <outline>
    <contour>
      <point x="76.0" y="0.0" type="line"/>
      <point x="188.0" y="0.0" type="line"/>
      <point x="584.0" y="720.0" type="line"/>
      <point x="473.0" y="720.0" type="line"/>
    </contour>
    <contour>
      <point x="135.0" y="325.0" type="line"/>
      <point x="223.0" y="325.0" type="line"/>
      <point x="223.0" y="737.0" type="line"/>
      <point x="132.0" y="737.0" type="line"/>
      <point x="0.0" y="580.0" type="line"/>
      <point x="116.0" y="580.0" type="line"/>
      <point x="135.0" y="604.0" type="line"/>
    </contour>
    <contour>
      <point x="588.0" y="0.0" type="line"/>
      <point x="675.0" y="0.0" type="line"/>
      <point x="675.0" y="103.0" type="line"/>
      <point x="730.0" y="103.0" type="line"/>
      <point x="730.0" y="191.0" type="line"/>
      <point x="675.0" y="191.0" type="line"/>
      <point x="675.0" y="412.0" type="line"/>
      <point x="597.0" y="412.0" type="line"/>
      <point x="342.0" y="181.0" type="line"/>
      <point x="342.0" y="103.0" type="line"/>
      <point x="588.0" y="103.0" type="line"/>
    </contour>
    <contour>
      <point x="484.0" y="191.0" type="line"/>
      <point x="588.0" y="275.0" type="line"/>
      <point x="588.0" y="191.0" type="line"/>
    </contour>
  </outline>
</glyph>
<glyph name="onehalf" format="2">
  <advance width="854.0"/>
  <unicode hex="00BD"/>
  <outline>
    <contour>
      <point x="76.0" y="0.0" type="line"/>
      <point x="188.0" y="0.0" type="line"/>
      <point x="584.0" y="720.0" type="line"/>
      <point x="473.0" y="720.0" type="line"/>
    </contour>
    <contour>
      <point x="135.0" y="325.0" type="line"/>
      <point x="223.0" y="325.0" type="line"/>
      <point x="223.0" y="737.0" type="line"/>
      <point x="132.0" y="737.0" type="line"/>
      <point x="0.0" y="580.0" type="line"/>
      <point x="116.0" y="580.0" type="line"/>
      <point x="135.0" y="604.0" type="line"/>
    </contour>
    <contour>
      <point x="410.0" y="0.0" type="line"/>
      <point x="814.0" y="0.0" type="line"/>
      <point x="814.0" y="88.0" type="line"/>
      <point x="516.0" y="88.0" type="line" smooth="yes"/>
      <point x="497.0" y="88.0"/>
      <point x="497.0" y="88.0"/>
      <point x="497.0" y="107.0" type="qcurve" smooth="yes"/>
      <point x="497.0" y="136.0" type="line" smooth="yes"/>
      <point x="497.0" y="155.0"/>
      <point x="497.0" y="155.0"/>
      <point x="516.0" y="155.0" type="qcurve" smooth="yes"/>
      <point x="730.0" y="155.0" type="line" smooth="yes"/>
      <point x="764.0" y="155.0"/>
      <point x="814.0" y="204.0"/>
      <point x="814.0" y="238.0" type="qcurve" smooth="yes"/>
      <point x="814.0" y="329.0" type="line" smooth="yes"/>
      <point x="814.0" y="363.0"/>
      <point x="764.0" y="412.0"/>
      <point x="730.0" y="412.0" type="qcurve" smooth="yes"/>
      <point x="493.0" y="412.0" type="line" smooth="yes"/>
      <point x="459.0" y="412.0"/>
      <point x="410.0" y="363.0"/>
      <point x="410.0" y="329.0" type="qcurve" smooth="yes"/>
      <point x="410.0" y="291.0" type="line"/>
      <point x="497.0" y="291.0" type="line"/>
      <point x="497.0" y="305.0" type="line" smooth="yes"/>
      <point x="497.0" y="324.0"/>
      <point x="497.0" y="324.0"/>
      <point x="516.0" y="324.0" type="qcurve" smooth="yes"/>
      <point x="707.0" y="324.0" type="line" smooth="yes"/>
      <point x="726.0" y="324.0"/>
      <point x="726.0" y="324.0"/>
      <point x="726.0" y="305.0" type="qcurve" smooth="yes"/>
      <point x="726.0" y="261.0" type="line" smooth="yes"/>
      <point x="726.0" y="243.0"/>
      <point x="726.0" y="243.0"/>
      <point x="707.0" y="243.0" type="qcurve" smooth="yes"/>
      <point x="493.0" y="243.0" type="line" smooth="yes"/>
      <point x="459.0" y="243.0"/>
      <point x="410.0" y="194.0"/>
      <point x="410.0" y="160.0" type="qcurve" smooth="yes"/>
    </contour>
  </outline>
</glyph>
<glyph name="threequarters" format="2">
  <advance width="925.0"/>
  <unicode hex="00BE"/>
  <outline>
    <contour>
      <point x="251.0" y="0.0" type="line"/>
      <point x="363.0" y="0.0" type="line"/>
      <point x="759.0" y="720.0" type="line"/>
      <point x="648.0" y="720.0" type="line"/>
    </contour>
    <contour>
      <point x="103.0" y="325.0" type="qcurve" smooth="yes"/>
      <point x="341.0" y="325.0" type="line" smooth="yes"/>
      <point x="375.0" y="325.0"/>
      <point x="424.0" y="374.0"/>
      <point x="424.0" y="408.0" type="qcurve" smooth="yes"/>
      <point x="424.0" y="493.0" type="line" smooth="yes"/>
      <point x="424.0" y="508.0"/>
      <point x="413.0" y="535.0"/>
      <point x="405.0" y="545.0" type="qcurve"/>
      <point x="406.0" y="551.0"/>
      <point x="408.0" y="565.0"/>
      <point x="408.0" y="572.0" type="qcurve" smooth="yes"/>
      <point x="408.0" y="654.0" type="line" smooth="yes"/>
      <point x="408.0" y="688.0"/>
      <point x="359.0" y="737.0"/>
      <point x="325.0" y="737.0" type="qcurve" smooth="yes"/>
      <point x="103.0" y="737.0" type="line" smooth="yes"/>
      <point x="69.0" y="737.0"/>
      <point x="20.0" y="688.0"/>
      <point x="20.0" y="654.0" type="qcurve" smooth="yes"/>
      <point x="20.0" y="617.0" type="line"/>
      <point x="107.0" y="617.0" type="line"/>
      <point x="107.0" y="630.0" type="line" smooth="yes"/>
      <point x="107.0" y="649.0"/>
      <point x="107.0" y="649.0"/>
      <point x="126.0" y="649.0" type="qcurve" smooth="yes"/>
      <point x="302.0" y="649.0" type="line" smooth="yes"/>
      <point x="321.0" y="649.0"/>
      <point x="321.0" y="649.0"/>
      <point x="321.0" y="630.0" type="qcurve" smooth="yes"/>
      <point x="321.0" y="595.0" type="line" smooth="yes"/>
      <point x="321.0" y="576.0"/>
      <point x="321.0" y="576.0"/>
      <point x="302.0" y="576.0" type="qcurve" smooth="yes"/>
      <point x="87.0" y="576.0" type="line"/>
      <point x="87.0" y="489.0" type="line"/>
      <point x="317.0" y="489.0" type="line" smooth="yes"/>
      <point x="336.0" y="489.0"/>
      <point x="336.0" y="489.0"/>
      <point x="336.0" y="470.0" type="qcurve" smooth="yes"/>
      <point x="336.0" y="432.0" type="line" smooth="yes"/>
      <point x="336.0" y="413.0"/>
      <point x="336.0" y="413.0"/>
      <point x="317.0" y="413.0" type="qcurve" smooth="yes"/>
      <point x="126.0" y="413.0" type="line" smooth="yes"/>
      <point x="107.0" y="413.0"/>
      <point x="107.0" y="413.0"/>
      <point x="107.0" y="432.0" type="qcurve" smooth="yes"/>
      <point x="107.0" y="440.0" type="line"/>
      <point x="20.0" y="440.0" type="line"/>
      <point x="20.0" y="408.0" type="line" smooth="yes"/>
      <point x="20.0" y="374.0"/>
      <point x="69.0" y="325.0"/>
    </contour>
    <contour>
      <point x="763.0" y="0.0" type="line"/>
      <point x="850.0" y="0.0" type="line"/>
      <point x="850.0" y="103.0" type="line"/>
      <point x="905.0" y="103.0" type="line"/>
      <point x="905.0" y="191.0" type="line"/>
      <point x="850.0" y="191.0" type="line"/>
      <point x="850.0" y="412.0" type="line"/>
      <point x="772.0" y="412.0" type="line"/>
      <point x="517.0" y="181.0" type="line"/>
      <point x="517.0" y="103.0" type="line"/>
      <point x="763.0" y="103.0" type="line"/>
    </contour>
    <contour>
      <point x="659.0" y="191.0" type="line"/>
      <point x="763.0" y="275.0" type="line"/>
      <point x="763.0" y="191.0" type="line"/>
    </contour>
  </outline>
</glyph>
<glyph name="questiondown" format="2">
  <advance width="675.0"/>
  <unicode hex="00BF"/>
  <outline>
    <contour>
      <point x="642.0" y="0.0" type="line"/>
      <point x="642.0" y="153.0" type="line"/>
      <point x="205.0" y="153.0" type="line" smooth="yes"/>
      <point x="172.0" y="153.0"/>
      <point x="172.0" y="153.0"/>
      <point x="172.0" y="186.0" type="qcurve" smooth="yes"/>
      <point x="172.0" y="270.0" type="line" smooth="yes"/>
      <point x="172.0" y="303.0"/>
      <point x="172.0" y="303.0"/>
      <point x="205.0" y="303.0" type="qcurve" smooth="yes"/>
      <point x="398.0" y="303.0" type="line" smooth="yes"/>
      <point x="457.702" y="303.0"/>
      <point x="544.0" y="389.298"/>
      <point x="544.0" y="449.0" type="qcurve" smooth="yes"/>
      <point x="544.0" y="532.0" type="line"/>
      <point x="391.0" y="532.0" type="line"/>
      <point x="391.0" y="490.0" type="line" smooth="yes"/>
      <point x="391.0" y="457.0"/>
      <point x="391.0" y="457.0"/>
      <point x="358.0" y="457.0" type="qcurve" smooth="yes"/>
      <point x="165.0" y="457.0" type="line" smooth="yes"/>
      <point x="105.299" y="457.0"/>
      <point x="19.0" y="371.702"/>
      <point x="19.0" y="312.0" type="qcurve" smooth="yes"/>
      <point x="19.0" y="145.0" type="line" smooth="yes"/>
      <point x="19.0" y="86.045"/>
      <point x="105.299" y="0.0"/>
      <point x="165.0" y="0.0" type="qcurve" smooth="yes"/>
    </contour>
    <contour>
      <point x="544.0" y="706.0" type="line"/>
      <point x="391.0" y="706.0" type="line"/>
      <point x="391.0" y="553.0" type="line"/>
      <point x="544.0" y="553.0" type="line"/>
    </contour>
  </outline>
</glyph>
<glyph name="Acircumflex" format="2">
  <advance width="836.0"/>
  <unicode hex="00C2"/>
  <outline>
    <contour>
      <point x="58.0" y="0.0" type="line"/>
      <point x="213.0" y="0.0" type="line"/>
      <point x="213.0" y="232.0" type="line"/>
      <point x="621.0" y="232.0" type="line"/>
      <point x="621.0" y="0.0" type="line"/>
      <point x="778.0" y="0.0" type="line"/>
      <point x="778.0" y="572.0" type="line" smooth="yes"/>
      <point x="778.0" y="633.194"/>
      <point x="690.194" y="720.0"/>
      <point x="629.0" y="720.0" type="qcurve" smooth="yes"/>
      <point x="206.0" y="720.0" type="line" smooth="yes"/>
      <point x="144.806" y="720.0"/>
      <point x="58.0" y="633.194"/>
      <point x="58.0" y="572.0" type="qcurve" smooth="yes"/>
    </contour>
    <contour>
      <point x="213.0" y="388.0" type="line"/>
      <point x="213.0" y="531.0" type="line" smooth="yes"/>
      <point x="213.0" y="564.0"/>
      <point x="213.0" y="564.0"/>
      <point x="246.0" y="564.0" type="qcurve" smooth="yes"/>
      <point x="588.0" y="564.0" type="line" smooth="yes"/>
      <point x="621.0" y="564.0"/>
      <point x="621.0" y="564.0"/>
      <point x="621.0" y="531.0" type="qcurve" smooth="yes"/>
      <point x="621.0" y="388.0" type="line"/>
    </contour>
    <contour>
      <point x="266.0" y="769.0" type="line"/>
      <point x="399.0" y="769.0" type="line"/>
      <point x="424.0" y="813.0" type="line"/>
      <point x="452.0" y="769.0" type="line"/>
      <point x="586.0" y="769.0" type="line"/>
      <point x="476.0" y="953.0" type="line"/>
      <point x="376.0" y="953.0" type="line"/>
    </contour>
  </outline>
</glyph>
<glyph name="Atilde" format="2">
  <advance width="836.0"/>
  <unicode hex="00C3"/>
  <anchor x="416.0" y="0.0" name="bottom"/>
  <anchor x="698.0" y="0.0" name="ogonek"/>
  <anchor x="416.0" y="750.0" name="top"/>
  <outline>
    <contour>
      <point x="478.0" y="774.0" type="qcurve" smooth="yes"/>
      <point x="503.373" y="774.0"/>
      <point x="553.866" y="790.299"/>
      <point x="577.0" y="800.0" type="qcurve"/>
      <point x="577.0" y="926.0" type="line"/>
      <point x="543.418" y="904.358"/>
      <point x="497.418" y="889.0"/>
      <point x="481.0" y="889.0" type="qcurve"/>
      <point x="430.254" y="895.716"/>
      <point x="349.239" y="951.0"/>
      <point x="297.0" y="951.0" type="qcurve" smooth="yes"/>
      <point x="274.612" y="951.0"/>
      <point x="224.388" y="932.955"/>
      <point x="202.0" y="924.0" type="qcurve"/>
      <point x="202.0" y="800.0" type="line"/>
      <point x="236.328" y="829.104"/>
      <point x="274.06" y="836.0"/>
      <point x="286.0" y="836.0" type="qcurve" smooth="yes"/>
      <point x="351.0" y="836.0"/>
      <point x="420.0" y="774.0"/>
    </contour>
    <component base="A"/>
  </outline>
</glyph>
<glyph name="Adieresis" format="2">
  <advance width="836.0"/>
  <unicode hex="00C4"/>
  <anchor x="416.0" y="0.0" name="bottom"/>
  <anchor x="698.0" y="0.0" name="ogonek"/>
  <anchor x="416.0" y="750.0" name="top"/>
  <outline>
    <contour>
      <point x="239.0" y="770.0" type="line"/>
      <point x="392.0" y="770.0" type="line"/>
      <point x="392.0" y="924.0" type="line"/>
      <point x="239.0" y="924.0" type="line"/>
    </contour>
    <contour>
      <point x="452.0" y="770.0" type="line"/>
      <point x="606.0" y="770.0" type="line"/>
      <point x="606.0" y="924.0" type="line"/>
      <point x="452.0" y="924.0" type="line"/>
    </contour>
    <component base="A"/>
  </outline>
</glyph>
<glyph name="Aring" format="2">
  <advance width="836.0"/>
  <unicode hex="00C5"/>
  <anchor x="416.0" y="0.0" name="bottom"/>
  <anchor x="698.0" y="0.0" name="ogonek"/>
  <anchor x="416.0" y="750.0" name="top"/>
  <outline>
    <contour>
      <point x="369.0" y="828.0" type="qcurve" smooth="yes"/>
      <point x="425.0" y="828.0" type="line" smooth="yes"/>
      <point x="447.0" y="828.0"/>
      <point x="479.0" y="859.0"/>
      <point x="479.0" y="881.0" type="qcurve" smooth="yes"/>
      <point x="479.0" y="935.0" type="line" smooth="yes"/>
      <point x="479.0" y="957.0"/>
      <point x="447.0" y="988.0"/>
      <point x="425.0" y="988.0" type="qcurve" smooth="yes"/>
      <point x="369.0" y="988.0" type="line" smooth="yes"/>
      <point x="347.0" y="988.0"/>
      <point x="315.0" y="957.0"/>
      <point x="315.0" y="935.0" type="qcurve" smooth="yes"/>
      <point x="315.0" y="881.0" type="line" smooth="yes"/>
      <point x="315.0" y="859.0"/>
      <point x="347.0" y="828.0"/>
    </contour>
    <contour>
      <point x="364.0" y="868.0" type="line" smooth="yes"/>
      <point x="360.0" y="868.0"/>
      <point x="355.0" y="874.0"/>
      <point x="355.0" y="878.0" type="qcurve" smooth="yes"/>
      <point x="355.0" y="938.0" type="line" smooth="yes"/>
      <point x="355.0" y="942.0"/>
      <point x="360.0" y="948.0"/>
      <point x="364.0" y="948.0" type="qcurve" smooth="yes"/>
      <point x="430.0" y="948.0" type="line" smooth="yes"/>
      <point x="434.0" y="948.0"/>
      <point x="439.0" y="942.0"/>
      <point x="439.0" y="938.0" type="qcurve" smooth="yes"/>
      <point x="439.0" y="878.0" type="line" smooth="yes"/>
      <point x="439.0" y="874.0"/>
      <point x="434.0" y="868.0"/>
      <point x="430.0" y="868.0" type="qcurve" smooth="yes"/>
    </contour>
    <component base="A"/>
  </outline>
</glyph>
<glyph name="AE" format="2">
  <advance width="1375.0"/>
  <unicode hex="00C6"/>
  <outline>
    <contour>
      <point x="54.0" y="0.0" type="line"/>
      <point x="211.0" y="0.0" type="line"/>
      <point x="211.0" y="232.0" type="line"/>
      <point x="619.0" y="232.0" type="line"/>
      <point x="619.0" y="0.0" type="line"/>
      <point x="1283.0" y="0.0" type="line"/>
      <point x="1283.0" y="156.0" type="line"/>
      <point x="774.0" y="156.0" type="line"/>
      <point x="774.0" y="282.0" type="line"/>
      <point x="1183.0" y="282.0" type="line"/>
      <point x="1183.0" y="438.0" type="line"/>
      <point x="774.0" y="438.0" type="line"/>
      <point x="774.0" y="564.0" type="line"/>
      <point x="1283.0" y="564.0" type="line"/>
      <point x="1283.0" y="720.0" type="line"/>
      <point x="202.0" y="720.0" type="line" smooth="yes"/>
      <point x="141.552" y="720.0"/>
      <point x="54.0" y="633.194"/>
      <point x="54.0" y="572.0" type="qcurve" smooth="yes"/>
    </contour>
    <contour>
      <point x="211.0" y="388.0" type="line"/>
      <point x="211.0" y="531.0" type="line" smooth="yes"/>
      <point x="211.0" y="564.0"/>
      <point x="211.0" y="564.0"/>
      <point x="244.0" y="564.0" type="qcurve" smooth="yes"/>
      <point x="586.0" y="564.0" type="line" smooth="yes"/>
      <point x="619.0" y="564.0"/>
      <point x="619.0" y="564.0"/>
      <point x="619.0" y="531.0" type="qcurve" smooth="yes"/>
      <point x="619.0" y="388.0" type="line"/>
    </contour>
  </outline>
</glyph>
<glyph name="Egrave" format="2">
  <advance width="766.0"/>
  <unicode hex="00C8"/>
  <anchor x="396.0" y="0.0" name="bottom"/>
  <anchor x="653.0" y="0.0" name="ogonek"/>
  <anchor x="393.0" y="720.0" name="top"/>
  <outline>
    <contour>
      <point x="330.0" y="770.0" type="line"/>
      <point x="487.0" y="770.0" type="line"/>
      <point x="436.0" y="973.0" type="line"/>
      <point x="279.0" y="973.0" type="line"/>
    </contour>
    <component base="E"/>
  </outline>
</glyph>
<glyph name="Eacute" format="2">
  <advance width="766.0"/>
  <unicode hex="00C9"/>
  <outline>
    <contour>
      <point x="723.0" y="720.0" type="line"/>
      <point x="58.0" y="720.0" type="line"/>
      <point x="58.0" y="0.0" type="line"/>
      <point x="723.0" y="0.0" type="line"/>
      <point x="723.0" y="156.0" type="line"/>
      <point x="215.0" y="156.0" type="line"/>
      <point x="215.0" y="282.0" type="line"/>
      <point x="624.0" y="282.0" type="line"/>
      <point x="624.0" y="438.0" type="line"/>
      <point x="215.0" y="438.0" type="line"/>
      <point x="215.0" y="564.0" type="line"/>
      <point x="723.0" y="564.0" type="line"/>
    </contour>
    <contour>
      <point x="309.0" y="770.0" type="line"/>
      <point x="466.0" y="770.0" type="line"/>
      <point x="517.0" y="973.0" type="line"/>
      <point x="360.0" y="973.0" type="line"/>
    </contour>
  </outline>
</glyph>
<glyph name="Ecircumflex" format="2">
  <advance width="766.0"/>
  <unicode hex="00CA"/>
  <outline>
    <contour>
      <point x="723.0" y="720.0" type="line"/>
      <point x="58.0" y="720.0" type="line"/>
      <point x="58.0" y="0.0" type="line"/>
      <point x="723.0" y="0.0" type="line"/>
      <point x="723.0" y="156.0" type="line"/>
      <point x="215.0" y="156.0" type="line"/>
      <point x="215.0" y="282.0" type="line"/>
      <point x="624.0" y="282.0" type="line"/>
      <point x="624.0" y="438.0" type="line"/>
      <point x="215.0" y="438.0" type="line"/>
      <point x="215.0" y="564.0" type="line"/>
      <point x="723.0" y="564.0" type="line"/>
    </contour>
    <contour>
      <point x="364.0" y="769.0" type="line"/>
      <point x="389.0" y="813.0" type="line"/>
      <point x="417.0" y="769.0" type="line"/>
      <point x="551.0" y="769.0" type="line"/>
      <point x="441.0" y="953.0" type="line"/>
      <point x="341.0" y="953.0" type="line"/>
      <point x="231.0" y="769.0" type="line"/>
    </contour>
  </outline>
</glyph>
<glyph name="Edieresis" format="2">
  <advance width="766.0"/>
  <unicode hex="00CB"/>
  <outline>
    <contour>
      <point x="723.0" y="720.0" type="line"/>
      <point x="58.0" y="720.0" type="line"/>
      <point x="58.0" y="0.0" type="line"/>
      <point x="723.0" y="0.0" type="line"/>
      <point x="723.0" y="156.0" type="line"/>
      <point x="215.0" y="156.0" type="line"/>
      <point x="215.0" y="282.0" type="line"/>
      <point x="624.0" y="282.0" type="line"/>
      <point x="624.0" y="438.0" type="line"/>
      <point x="215.0" y="438.0" type="line"/>
      <point x="215.0" y="564.0" type="line"/>
      <point x="723.0" y="564.0" type="line"/>
    </contour>
    <contour>
      <point x="581.0" y="924.0" type="line"/>
      <point x="427.0" y="924.0" type="line"/>
      <point x="427.0" y="770.0" type="line"/>
      <point x="581.0" y="770.0" type="line"/>
    </contour>
    <contour>
      <point x="367.0" y="924.0" type="line"/>
      <point x="214.0" y="924.0" type="line"/>
      <point x="214.0" y="770.0" type="line"/>
      <point x="367.0" y="770.0" type="line"/>
    </contour>
  </outline>
</glyph>
<glyph name="Igrave" format="2">
  <advance width="220.0"/>
  <unicode hex="00CC"/>
  <outline>
    <contour>
      <point x="95.0" y="0.0" type="line"/>
      <point x="251.0" y="0.0" type="line"/>
      <point x="251.0" y="720.0" type="line"/>
      <point x="95.0" y="720.0" type="line"/>
    </contour>
    <contour>
      <point x="87.0" y="770.0" type="line"/>
      <point x="244.0" y="770.0" type="line"/>
      <point x="193.0" y="973.0" type="line"/>
      <point x="36.0" y="973.0" type="line"/>
    </contour>
  </outline>
</glyph>
<glyph name="Icircumflex" format="2">
  <advance width="220.0"/>
  <unicode hex="00CE"/>
  <outline>
    <contour>
      <point x="62.0" y="0.0" type="line"/>
      <point x="218.0" y="0.0" type="line"/>
      <point x="218.0" y="720.0" type="line"/>
      <point x="62.0" y="720.0" type="line"/>
    </contour>
    <contour>
      <point x="121.0" y="769.0" type="line"/>
      <point x="146.0" y="813.0" type="line"/>
      <point x="174.0" y="769.0" type="line"/>
      <point x="308.0" y="769.0" type="line"/>
      <point x="198.0" y="953.0" type="line"/>
      <point x="98.0" y="953.0" type="line"/>
      <point x="-12.0" y="769.0" type="line"/>
    </contour>
  </outline>
</glyph>
<glyph name="Idieresis" format="2">
  <advance width="220.0"/>
  <unicode hex="00CF"/>
  <outline>
    <contour>
      <point x="74.0" y="0.0" type="line"/>
      <point x="230.0" y="0.0" type="line"/>
      <point x="230.0" y="720.0" type="line"/>
      <point x="74.0" y="720.0" type="line"/>
    </contour>
    <contour>
      <point x="338.0" y="924.0" type="line"/>
      <point x="184.0" y="924.0" type="line"/>
      <point x="184.0" y="770.0" type="line"/>
      <point x="338.0" y="770.0" type="line"/>
    </contour>
    <contour>
      <point x="124.0" y="924.0" type="line"/>
      <point x="-29.0" y="924.0" type="line"/>
      <point x="-29.0" y="770.0" type="line"/>
      <point x="124.0" y="770.0" type="line"/>
    </contour>
  </outline>
</glyph>
<glyph name="Eth" format="2">
  <advance width="834.0"/>
  <unicode hex="00D0"/>
  <outline>
    <contour>
      <point x="-1.0" y="273.0" type="line"/>
      <point x="279.0" y="273.0" type="line"/>
      <point x="279.0" y="428.0" type="line"/>
      <point x="-1.0" y="428.0" type="line"/>
    </contour>
    <component base="D"/>
  </outline>
</glyph>
<glyph name="Ntilde" format="2">
  <advance width="832.0"/>
  <unicode hex="00D1"/>
  <outline>
    <contour>
      <point x="56.0" y="0.0" type="line"/>
      <point x="211.0" y="0.0" type="line"/>
      <point x="211.0" y="482.0" type="line"/>
      <point x="616.0" y="0.0" type="line"/>
      <point x="776.0" y="0.0" type="line"/>
      <point x="776.0" y="720.0" type="line"/>
      <point x="619.0" y="720.0" type="line"/>
      <point x="619.0" y="240.0" type="line"/>
      <point x="216.0" y="720.0" type="line"/>
      <point x="56.0" y="720.0" type="line"/>
    </contour>
    <contour>
      <point x="496.0" y="774.0" type="qcurve" smooth="yes"/>
      <point x="521.373" y="774.0"/>
      <point x="571.866" y="790.299"/>
      <point x="595.0" y="800.0" type="qcurve"/>
      <point x="595.0" y="926.0" type="line"/>
      <point x="561.418" y="904.358"/>
      <point x="515.418" y="889.0"/>
      <point x="499.0" y="889.0" type="qcurve"/>
      <point x="448.254" y="895.716"/>
      <point x="367.239" y="951.0"/>
      <point x="315.0" y="951.0" type="qcurve" smooth="yes"/>
      <point x="292.612" y="951.0"/>
      <point x="242.388" y="932.955"/>
      <point x="220.0" y="924.0" type="qcurve"/>
      <point x="220.0" y="800.0" type="line"/>
      <point x="254.328" y="829.104"/>
      <point x="292.06" y="836.0"/>
      <point x="304.0" y="836.0" type="qcurve" smooth="yes"/>
      <point x="369.0" y="836.0"/>
      <point x="438.0" y="774.0"/>
    </contour>
  </outline>
</glyph>
<glyph name="Otilde" format="2">
  <advance width="828.0"/>
  <unicode hex="00D5"/>
  <outline>
    <contour>
      <point x="202.0" y="0.0" type="qcurve" smooth="yes"/>
      <point x="626.0" y="0.0" type="line" smooth="yes"/>
      <point x="686.448" y="0.0"/>
      <point x="774.0" y="86.806"/>
      <point x="774.0" y="148.0" type="qcurve" smooth="yes"/>
      <point x="774.0" y="572.0" type="line" smooth="yes"/>
      <point x="774.0" y="633.194"/>
      <point x="686.448" y="720.0"/>
      <point x="626.0" y="720.0" type="qcurve" smooth="yes"/>
      <point x="202.0" y="720.0" type="line" smooth="yes"/>
      <point x="140.806" y="720.0"/>
      <point x="54.0" y="633.194"/>
      <point x="54.0" y="572.0" type="qcurve" smooth="yes"/>
      <point x="54.0" y="148.0" type="line" smooth="yes"/>
      <point x="54.0" y="86.806"/>
      <point x="140.806" y="0.0"/>
    </contour>
    <contour>
      <point x="242.0" y="156.0" type="line" smooth="yes"/>
      <point x="209.0" y="156.0"/>
      <point x="209.0" y="156.0"/>
      <point x="209.0" y="189.0" type="qcurve" smooth="yes"/>
      <point x="209.0" y="531.0" type="line" smooth="yes"/>
      <point x="209.0" y="564.0"/>
      <point x="209.0" y="564.0"/>
      <point x="242.0" y="564.0" type="qcurve" smooth="yes"/>
      <point x="584.0" y="564.0" type="line" smooth="yes"/>
      <point x="617.0" y="564.0"/>
      <point x="617.0" y="564.0"/>
      <point x="617.0" y="531.0" type="qcurve" smooth="yes"/>
      <point x="617.0" y="189.0" type="line" smooth="yes"/>
      <point x="617.0" y="156.0"/>
      <point x="617.0" y="156.0"/>
      <point x="584.0" y="156.0" type="qcurve" smooth="yes"/>
    </contour>
    <contour>
      <point x="484.0" y="774.0" type="qcurve" smooth="yes"/>
      <point x="509.373" y="774.0"/>
      <point x="559.866" y="790.299"/>
      <point x="583.0" y="800.0" type="qcurve"/>
      <point x="583.0" y="926.0" type="line"/>
      <point x="549.418" y="904.358"/>
      <point x="503.418" y="889.0"/>
      <point x="487.0" y="889.0" type="qcurve"/>
      <point x="436.254" y="895.716"/>
      <point x="355.239" y="951.0"/>
      <point x="303.0" y="951.0" type="qcurve" smooth="yes"/>
      <point x="280.612" y="951.0"/>
      <point x="230.388" y="932.955"/>
      <point x="208.0" y="924.0" type="qcurve"/>
      <point x="208.0" y="800.0" type="line"/>
      <point x="242.328" y="829.104"/>
      <point x="280.06" y="836.0"/>
      <point x="292.0" y="836.0" type="qcurve" smooth="yes"/>
      <point x="357.0" y="836.0"/>
      <point x="426.0" y="774.0"/>
    </contour>
  </outline>
</glyph>
<glyph name="multiply" format="2">
  <advance width="546.0"/>
  <unicode hex="00D7"/>
  <outline>
    <contour>
      <point x="507.0" y="516.0" type="line"/>
      <point x="348.0" y="516.0" type="line"/>
      <point x="279.0" y="422.0" type="line"/>
      <point x="211.0" y="516.0" type="line"/>
      <point x="53.0" y="516.0" type="line"/>
      <point x="53.0" y="466.0" type="line"/>
      <point x="182.0" y="300.0" type="line"/>
      <point x="53.0" y="132.0" type="line"/>
      <point x="53.0" y="82.0" type="line"/>
      <point x="210.0" y="82.0" type="line"/>
      <point x="279.0" y="175.0" type="line"/>
      <point x="348.0" y="82.0" type="line"/>
      <point x="507.0" y="82.0" type="line"/>
      <point x="507.0" y="132.0" type="line"/>
      <point x="377.0" y="300.0" type="line"/>
      <point x="507.0" y="466.0" type="line"/>
    </contour>
  </outline>
</glyph>
<glyph name="Oslash" format="2">
  <advance width="828.0"/>
  <unicode hex="00D8"/>
  <anchor x="423.0" y="0.0" name="bottom"/>
  <anchor x="411.0" y="719.0" name="top"/>
  <outline>
    <contour>
      <point x="0.0" y="100.0" type="line"/>
      <point x="100.0" y="0.0" type="line"/>
      <point x="828.0" y="650.0" type="line"/>
      <point x="727.0" y="750.0" type="line"/>
    </contour>
    <component base="O"/>
  </outline>
</glyph>
<glyph name="Udieresis" format="2">
  <advance width="828.0"/>
  <unicode hex="00DC"/>
  <outline>
    <contour>
      <point x="202.0" y="0.0" type="qcurve" smooth="yes"/>
      <point x="626.0" y="0.0" type="line" smooth="yes"/>
      <point x="686.448" y="0.0"/>
      <point x="774.0" y="86.806"/>
      <point x="774.0" y="148.0" type="qcurve" smooth="yes"/>
      <point x="774.0" y="720.0" type="line"/>
      <point x="617.0" y="720.0" type="line"/>
      <point x="617.0" y="189.0" type="line" smooth="yes"/>
      <point x="617.0" y="156.0"/>
      <point x="617.0" y="156.0"/>
      <point x="584.0" y="156.0" type="qcurve" smooth="yes"/>
      <point x="242.0" y="156.0" type="line" smooth="yes"/>
      <point x="209.0" y="156.0"/>
      <point x="209.0" y="156.0"/>
      <point x="209.0" y="189.0" type="qcurve" smooth="yes"/>
      <point x="209.0" y="720.0" type="line"/>
      <point x="54.0" y="720.0" type="line"/>
      <point x="54.0" y="148.0" type="line" smooth="yes"/>
      <point x="54.0" y="86.806"/>
      <point x="140.806" y="0.0"/>
    </contour>
    <contour>
      <point x="235.0" y="770.0" type="line"/>
      <point x="388.0" y="770.0" type="line"/>
      <point x="388.0" y="924.0" type="line"/>
      <point x="235.0" y="924.0" type="line"/>
    </contour>
    <contour>
      <point x="448.0" y="770.0" type="line"/>
      <point x="602.0" y="770.0" type="line"/>
      <point x="602.0" y="924.0" type="line"/>
      <point x="448.0" y="924.0" type="line"/>
    </contour>
  </outline>
</glyph>
<glyph name="Thorn" format="2">
  <advance width="834.0"/>
  <unicode hex="00DE"/>
  <outline>
    <contour>
      <point x="58.0" y="0.0" type="line"/>
      <point x="213.0" y="0.0" type="line"/>
      <point x="213.0" y="130.0" type="line"/>
      <point x="629.0" y="130.0" type="line" smooth="yes"/>
      <point x="690.0" y="130.0"/>
      <point x="778.0" y="217.0"/>
      <point x="778.0" y="278.0" type="qcurve" smooth="yes"/>
      <point x="778.0" y="432.0" type="line" smooth="yes"/>
      <point x="778.0" y="493.0"/>
      <point x="690.0" y="580.0"/>
      <point x="629.0" y="580.0" type="qcurve" smooth="yes"/>
      <point x="213.0" y="580.0" type="line"/>
      <point x="213.0" y="720.0" type="line"/>
      <point x="58.0" y="720.0" type="line"/>
    </contour>
    <contour>
      <point x="246.0" y="286.0" type="line" smooth="yes"/>
      <point x="213.0" y="286.0"/>
      <point x="213.0" y="286.0"/>
      <point x="213.0" y="319.0" type="qcurve" smooth="yes"/>
      <point x="213.0" y="391.0" type="line" smooth="yes"/>
      <point x="213.0" y="424.0"/>
      <point x="213.0" y="424.0"/>
      <point x="246.0" y="424.0" type="qcurve" smooth="yes"/>
      <point x="588.0" y="424.0" type="line" smooth="yes"/>
      <point x="621.0" y="424.0"/>
      <point x="621.0" y="424.0"/>
      <point x="621.0" y="391.0" type="qcurve" smooth="yes"/>
      <point x="621.0" y="319.0" type="line" smooth="yes"/>
      <point x="621.0" y="286.0"/>
      <point x="621.0" y="286.0"/>
      <point x="588.0" y="286.0" type="qcurve" smooth="yes"/>
    </contour>
  </outline>
</glyph>
<glyph name="germandbls" format="2">
  <advance width="833.0"/>
  <unicode hex="00DF"/>
  <outline>
    <contour>
      <point x="57.0" y="0.0" type="line"/>
      <point x="210.0" y="0.0" type="line"/>
      <point x="210.0" y="519.0" type="line" smooth="yes"/>
      <point x="210.0" y="552.0"/>
      <point x="210.0" y="552.0"/>
      <point x="243.0" y="552.0" type="qcurve" smooth="yes"/>
      <point x="578.0" y="552.0" type="line" smooth="yes"/>
      <point x="611.0" y="552.0"/>
      <point x="611.0" y="552.0"/>
      <point x="611.0" y="519.0" type="qcurve" smooth="yes"/>
      <point x="611.0" y="462.0" type="line" smooth="yes"/>
      <point x="611.0" y="429.0"/>
      <point x="611.0" y="429.0"/>
      <point x="578.0" y="429.0" type="qcurve" smooth="yes"/>
      <point x="273.0" y="429.0" type="line"/>
      <point x="273.0" y="285.0" type="line"/>
      <point x="578.0" y="285.0" type="line" smooth="yes"/>
      <point x="611.0" y="285.0"/>
      <point x="611.0" y="285.0"/>
      <point x="611.0" y="252.0" type="qcurve" smooth="yes"/>
      <point x="611.0" y="186.0" type="line" smooth="yes"/>
      <point x="611.0" y="153.0"/>
      <point x="611.0" y="153.0"/>
      <point x="578.0" y="153.0" type="qcurve" smooth="yes"/>
      <point x="273.0" y="153.0" type="line"/>
      <point x="273.0" y="0.0" type="line"/>
      <point x="618.0" y="0.0" type="line" smooth="yes"/>
      <point x="677.701" y="0.0"/>
      <point x="764.0" y="86.045"/>
      <point x="764.0" y="145.0" type="qcurve" smooth="yes"/>
      <point x="764.0" y="294.0" type="line" smooth="yes"/>
      <point x="764.0" y="311.91"/>
      <point x="755.955" y="345.582"/>
      <point x="747.0" y="362.0" type="qcurve"/>
      <point x="755.209" y="377.672"/>
      <point x="764.0" y="414.582"/>
      <point x="764.0" y="431.0" type="qcurve" smooth="yes"/>
      <point x="764.0" y="587.0" type="line"/>
      <point x="755.045" y="637.746"/>
      <point x="671.731" y="706.0"/>
      <point x="618.0" y="706.0" type="qcurve" smooth="yes"/>
      <point x="203.0" y="706.0" type="line" smooth="yes"/>
      <point x="143.299" y="706.0"/>
      <point x="57.0" y="620.701"/>
      <point x="57.0" y="561.0" type="qcurve" smooth="yes"/>
    </contour>
  </outline>
</glyph>
<glyph name="atilde" format="2">
  <advance width="725.0"/>
  <unicode hex="00E3"/>
  <outline>
    <contour>
      <point x="197.0" y="0.0" type="qcurve" smooth="yes"/>
      <point x="640.0" y="0.0" type="line"/>
      <point x="640.0" y="435.0" type="line" smooth="yes"/>
      <point x="640.0" y="493.955"/>
      <point x="554.701" y="580.0"/>
      <point x="495.0" y="580.0" type="qcurve" smooth="yes"/>
      <point x="52.0" y="580.0" type="line"/>
      <point x="52.0" y="427.0" type="line"/>
      <point x="454.0" y="427.0" type="line" smooth="yes"/>
      <point x="487.0" y="427.0"/>
      <point x="487.0" y="427.0"/>
      <point x="487.0" y="394.0" type="qcurve" smooth="yes"/>
      <point x="487.0" y="367.0" type="line"/>
      <point x="52.0" y="367.0" type="line"/>
      <point x="52.0" y="145.0" type="line" smooth="yes"/>
      <point x="52.0" y="86.045"/>
      <point x="137.299" y="0.0"/>
    </contour>
    <contour>
      <point x="238.0" y="153.0" type="line" smooth="yes"/>
      <point x="205.0" y="153.0"/>
      <point x="205.0" y="153.0"/>
      <point x="205.0" y="186.0" type="qcurve" smooth="yes"/>
      <point x="205.0" y="233.0" type="line"/>
      <point x="487.0" y="233.0" type="line"/>
      <point x="487.0" y="153.0" type="line"/>
    </contour>
    <contour>
      <point x="412.0" y="641.0" type="qcurve" smooth="yes"/>
      <point x="437.373" y="641.0"/>
      <point x="487.866" y="657.299"/>
      <point x="511.0" y="667.0" type="qcurve"/>
      <point x="511.0" y="793.0" type="line"/>
      <point x="477.418" y="771.358"/>
      <point x="431.418" y="756.0"/>
      <point x="415.0" y="756.0" type="qcurve" smooth="yes"/>
      <point x="364.0" y="756.0"/>
      <point x="283.239" y="818.0"/>
      <point x="231.0" y="818.0" type="qcurve" smooth="yes"/>
      <point x="208.612" y="818.0"/>
      <point x="158.388" y="799.955"/>
      <point x="136.0" y="791.0" type="qcurve"/>
      <point x="136.0" y="667.0" type="line"/>
      <point x="170.328" y="696.104"/>
      <point x="208.06" y="703.0"/>
      <point x="220.0" y="703.0" type="qcurve" smooth="yes"/>
      <point x="278.0" y="703.0"/>
      <point x="354.0" y="641.0"/>
    </contour>
  </outline>
</glyph>
<glyph name="aring" format="2">
  <advance width="725.0"/>
  <unicode hex="00E5"/>
  <outline>
    <contour>
      <point x="197.0" y="0.0" type="qcurve" smooth="yes"/>
      <point x="640.0" y="0.0" type="line"/>
      <point x="640.0" y="435.0" type="line" smooth="yes"/>
      <point x="640.0" y="493.955"/>
      <point x="554.701" y="580.0"/>
      <point x="495.0" y="580.0" type="qcurve" smooth="yes"/>
      <point x="52.0" y="580.0" type="line"/>
      <point x="52.0" y="427.0" type="line"/>
      <point x="454.0" y="427.0" type="line" smooth="yes"/>
      <point x="487.0" y="427.0"/>
      <point x="487.0" y="427.0"/>
      <point x="487.0" y="394.0" type="qcurve" smooth="yes"/>
      <point x="487.0" y="367.0" type="line"/>
      <point x="52.0" y="367.0" type="line"/>
      <point x="52.0" y="145.0" type="line" smooth="yes"/>
      <point x="52.0" y="86.045"/>
      <point x="137.299" y="0.0"/>
    </contour>
    <contour>
      <point x="238.0" y="153.0" type="line" smooth="yes"/>
      <point x="205.0" y="153.0"/>
      <point x="205.0" y="153.0"/>
      <point x="205.0" y="186.0" type="qcurve" smooth="yes"/>
      <point x="205.0" y="233.0" type="line"/>
      <point x="487.0" y="233.0" type="line"/>
      <point x="487.0" y="153.0" type="line"/>
    </contour>
    <contour>
      <point x="329.0" y="698.0" type="qcurve" smooth="yes"/>
      <point x="385.0" y="698.0" type="line" smooth="yes"/>
      <point x="407.0" y="698.0"/>
      <point x="439.0" y="729.0"/>
      <point x="439.0" y="751.0" type="qcurve" smooth="yes"/>
      <point x="439.0" y="805.0" type="line" smooth="yes"/>
      <point x="439.0" y="827.0"/>
      <point x="407.0" y="858.0"/>
      <point x="385.0" y="858.0" type="qcurve" smooth="yes"/>
      <point x="329.0" y="858.0" type="line" smooth="yes"/>
      <point x="307.0" y="858.0"/>
      <point x="275.0" y="827.0"/>
      <point x="275.0" y="805.0" type="qcurve" smooth="yes"/>
      <point x="275.0" y="751.0" type="line" smooth="yes"/>
      <point x="275.0" y="729.0"/>
      <point x="307.0" y="698.0"/>
    </contour>
    <contour>
      <point x="324.0" y="738.0" type="line" smooth="yes"/>
      <point x="320.0" y="738.0"/>
      <point x="315.0" y="744.0"/>
      <point x="315.0" y="748.0" type="qcurve" smooth="yes"/>
      <point x="315.0" y="808.0" type="line" smooth="yes"/>
      <point x="315.0" y="812.0"/>
      <point x="320.0" y="818.0"/>
      <point x="324.0" y="818.0" type="qcurve" smooth="yes"/>
      <point x="390.0" y="818.0" type="line" smooth="yes"/>
      <point x="394.0" y="818.0"/>
      <point x="399.0" y="812.0"/>
      <point x="399.0" y="808.0" type="qcurve" smooth="yes"/>
      <point x="399.0" y="748.0" type="line" smooth="yes"/>
      <point x="399.0" y="744.0"/>
      <point x="394.0" y="738.0"/>
      <point x="390.0" y="738.0" type="qcurve" smooth="yes"/>
    </contour>
  </outline>
</glyph>
<glyph name="ae" format="2">
  <advance width="1178.0"/>
  <unicode hex="00E6"/>
  <outline>
    <contour>
      <point x="198.0" y="0.0" type="qcurve" smooth="yes"/>
      <point x="1077.0" y="0.0" type="line"/>
      <point x="1077.0" y="153.0" type="line"/>
      <point x="675.0" y="153.0" type="line" smooth="yes"/>
      <point x="642.0" y="153.0"/>
      <point x="642.0" y="153.0"/>
      <point x="642.0" y="186.0" type="qcurve" smooth="yes"/>
      <point x="642.0" y="213.0" type="line"/>
      <point x="1077.0" y="213.0" type="line"/>
      <point x="1077.0" y="435.0" type="line" smooth="yes"/>
      <point x="1077.0" y="493.955"/>
      <point x="992.701" y="580.0"/>
      <point x="933.0" y="580.0" type="qcurve" smooth="yes"/>
      <point x="53.0" y="580.0" type="line"/>
      <point x="53.0" y="427.0" type="line"/>
      <point x="456.0" y="427.0" type="line" smooth="yes"/>
      <point x="489.0" y="427.0"/>
      <point x="489.0" y="427.0"/>
      <point x="489.0" y="394.0" type="qcurve" smooth="yes"/>
      <point x="489.0" y="367.0" type="line"/>
      <point x="53.0" y="367.0" type="line"/>
      <point x="53.0" y="145.0" type="line" smooth="yes"/>
      <point x="53.0" y="86.045"/>
      <point x="138.299" y="0.0"/>
    </contour>
    <contour>
      <point x="239.0" y="153.0" type="line" smooth="yes"/>
      <point x="206.0" y="153.0"/>
      <point x="206.0" y="153.0"/>
      <point x="206.0" y="186.0" type="qcurve" smooth="yes"/>
      <point x="206.0" y="233.0" type="line"/>
      <point x="489.0" y="233.0" type="line"/>
      <point x="489.0" y="153.0" type="line"/>
    </contour>
    <contour>
      <point x="642.0" y="347.0" type="line"/>
      <point x="642.0" y="394.0" type="line" smooth="yes"/>
      <point x="642.0" y="427.0"/>
      <point x="642.0" y="427.0"/>
      <point x="675.0" y="427.0" type="qcurve" smooth="yes"/>
      <point x="891.0" y="427.0" type="line" smooth="yes"/>
      <point x="924.0" y="427.0"/>
      <point x="924.0" y="427.0"/>
      <point x="924.0" y="394.0" type="qcurve" smooth="yes"/>
      <point x="924.0" y="347.0" type="line"/>
    </contour>
  </outline>
</glyph>
<glyph name="ccedilla" format="2">
  <advance width="693.0"/>
  <unicode hex="00E7"/>
  <outline>
    <contour>
      <point x="274.0" y="-128.0" type="line"/>
      <point x="371.0" y="-128.0" type="line"/>
      <point x="410.0" y="0.0" type="line"/>
      <point x="639.0" y="0.0" type="line"/>
      <point x="639.0" y="153.0" type="line"/>
      <point x="237.0" y="153.0" type="line" smooth="yes"/>
      <point x="204.0" y="153.0"/>
      <point x="204.0" y="153.0"/>
      <point x="204.0" y="186.0" type="qcurve" smooth="yes"/>
      <point x="204.0" y="394.0" type="line" smooth="yes"/>
      <point x="204.0" y="427.0"/>
      <point x="204.0" y="427.0"/>
      <point x="237.0" y="427.0" type="qcurve" smooth="yes"/>
      <point x="638.0" y="427.0" type="line"/>
      <point x="638.0" y="580.0" type="line"/>
      <point x="196.0" y="580.0" type="line" smooth="yes"/>
      <point x="137.045" y="580.0"/>
      <point x="51.0" y="493.955"/>
      <point x="51.0" y="435.0" type="qcurve" smooth="yes"/>
      <point x="51.0" y="145.0" type="line" smooth="yes"/>
      <point x="51.0" y="86.045"/>
      <point x="137.045" y="0.0"/>
      <point x="196.0" y="0.0" type="qcurve" smooth="yes"/>
      <point x="313.0" y="0.0" type="line"/>
    </contour>
  </outline>
</glyph>
<glyph name="igrave" format="2">
  <advance width="214.0"/>
  <unicode hex="00EC"/>
  <outline>
    <contour>
      <point x="56.0" y="0.0" type="line"/>
      <point x="209.0" y="0.0" type="line"/>
      <point x="209.0" y="580.0" type="line"/>
      <point x="56.0" y="580.0" type="line"/>
    </contour>
    <contour>
      <point x="67.0" y="639.0" type="line"/>
      <point x="224.0" y="639.0" type="line"/>
      <point x="173.0" y="842.0" type="line"/>
      <point x="16.0" y="842.0" type="line"/>
    </contour>
  </outline>
</glyph>
<glyph name="iacute" format="2">
  <advance width="214.0"/>
  <unicode hex="00ED"/>
  <outline>
    <contour>
      <point x="51.0" y="0.0" type="line"/>
      <point x="204.0" y="0.0" type="line"/>
      <point x="204.0" y="580.0" type="line"/>
      <point x="51.0" y="580.0" type="line"/>
    </contour>
    <contour>
      <point x="49.0" y="638.0" type="line"/>
      <point x="206.0" y="638.0" type="line"/>
      <point x="257.0" y="841.0" type="line"/>
      <point x="100.0" y="841.0" type="line"/>
    </contour>
  </outline>
</glyph>
<glyph name="icircumflex" format="2">
  <advance width="214.0"/>
  <unicode hex="00EE"/>
  <outline>
    <contour>
      <point x="51.0" y="0.0" type="line"/>
      <point x="204.0" y="0.0" type="line"/>
      <point x="204.0" y="580.0" type="line"/>
      <point x="51.0" y="580.0" type="line"/>
    </contour>
    <contour>
      <point x="118.0" y="638.0" type="line"/>
      <point x="143.0" y="682.0" type="line"/>
      <point x="171.0" y="638.0" type="line"/>
      <point x="305.0" y="638.0" type="line"/>
      <point x="195.0" y="822.0" type="line"/>
      <point x="95.0" y="822.0" type="line"/>
      <point x="-15.0" y="638.0" type="line"/>
    </contour>
  </outline>
</glyph>
<glyph name="idieresis" format="2">
  <advance width="214.0"/>
  <unicode hex="00EF"/>
  <outline>
    <contour>
      <point x="55.0" y="0.0" type="line"/>
      <point x="208.0" y="0.0" type="line"/>
      <point x="208.0" y="580.0" type="line"/>
      <point x="55.0" y="580.0" type="line"/>
    </contour>
    <contour>
      <point x="335.0" y="794.0" type="line"/>
      <point x="181.0" y="794.0" type="line"/>
      <point x="181.0" y="640.0" type="line"/>
      <point x="335.0" y="640.0" type="line"/>
    </contour>
    <contour>
      <point x="121.0" y="794.0" type="line"/>
      <point x="-32.0" y="794.0" type="line"/>
      <point x="-32.0" y="640.0" type="line"/>
      <point x="121.0" y="640.0" type="line"/>
    </contour>
  </outline>
</glyph>
<glyph name="eth" format="2">
  <advance width="667.0"/>
  <unicode hex="00F0"/>
  <outline>
    <contour>
      <point x="322.0" y="647.0" type="line"/>
      <point x="667.0" y="647.0" type="line"/>
      <point x="667.0" y="710.0" type="line"/>
      <point x="322.0" y="710.0" type="line"/>
    </contour>
    <component base="d"/>
  </outline>
</glyph>
<glyph name="ntilde" format="2">
  <advance width="708.0"/>
  <unicode hex="00F1"/>
  <outline>
    <contour>
      <point x="54.0" y="0.0" type="line"/>
      <point x="207.0" y="0.0" type="line"/>
      <point x="207.0" y="394.0" type="line" smooth="yes"/>
      <point x="207.0" y="427.0"/>
      <point x="207.0" y="427.0"/>
      <point x="240.0" y="427.0" type="qcurve" smooth="yes"/>
      <point x="456.0" y="427.0" type="line" smooth="yes"/>
      <point x="489.0" y="427.0"/>
      <point x="489.0" y="427.0"/>
      <point x="489.0" y="394.0" type="qcurve" smooth="yes"/>
      <point x="489.0" y="0.0" type="line"/>
      <point x="642.0" y="0.0" type="line"/>
      <point x="642.0" y="435.0" type="line" smooth="yes"/>
      <point x="642.0" y="493.955"/>
      <point x="556.701" y="580.0"/>
      <point x="497.0" y="580.0" type="qcurve" smooth="yes"/>
      <point x="54.0" y="580.0" type="line"/>
    </contour>
    <contour>
      <point x="414.0" y="640.0" type="qcurve" smooth="yes"/>
      <point x="439.0" y="640.0"/>
      <point x="489.866" y="656.299"/>
      <point x="513.0" y="666.0" type="qcurve"/>
      <point x="513.0" y="792.0" type="line"/>
      <point x="479.418" y="770.358"/>
      <point x="433.418" y="755.0"/>
      <point x="417.0" y="755.0" type="qcurve"/>
      <point x="366.254" y="761.716"/>
      <point x="285.239" y="817.0"/>
      <point x="233.0" y="817.0" type="qcurve" smooth="yes"/>
      <point x="210.612" y="817.0"/>
      <point x="160.388" y="798.955"/>
      <point x="138.0" y="790.0" type="qcurve"/>
      <point x="138.0" y="666.0" type="line"/>
      <point x="172.328" y="695.104"/>
      <point x="210.06" y="702.0"/>
      <point x="222.0" y="702.0" type="qcurve" smooth="yes"/>
      <point x="287.0" y="702.0"/>
      <point x="356.0" y="640.0"/>
    </contour>
  </outline>
</glyph>
<glyph name="otilde" format="2">
  <advance width="692.0"/>
  <unicode hex="00F5"/>
  <outline>
    <contour>
      <point x="196.0" y="0.0" type="qcurve" smooth="yes"/>
      <point x="494.0" y="0.0" type="line" smooth="yes"/>
      <point x="553.701" y="0.0"/>
      <point x="639.0" y="86.045"/>
      <point x="639.0" y="145.0" type="qcurve" smooth="yes"/>
      <point x="639.0" y="435.0" type="line" smooth="yes"/>
      <point x="639.0" y="493.955"/>
      <point x="553.701" y="580.0"/>
      <point x="494.0" y="580.0" type="qcurve" smooth="yes"/>
      <point x="196.0" y="580.0" type="line" smooth="yes"/>
      <point x="137.045" y="580.0"/>
      <point x="51.0" y="493.955"/>
      <point x="51.0" y="435.0" type="qcurve" smooth="yes"/>
      <point x="51.0" y="145.0" type="line" smooth="yes"/>
      <point x="51.0" y="86.045"/>
      <point x="137.045" y="0.0"/>
    </contour>
    <contour>
      <point x="237.0" y="153.0" type="line" smooth="yes"/>
      <point x="204.0" y="153.0"/>
      <point x="204.0" y="153.0"/>
      <point x="204.0" y="186.0" type="qcurve" smooth="yes"/>
      <point x="204.0" y="394.0" type="line" smooth="yes"/>
      <point x="204.0" y="427.0"/>
      <point x="204.0" y="427.0"/>
      <point x="237.0" y="427.0" type="qcurve" smooth="yes"/>
      <point x="453.0" y="427.0" type="line" smooth="yes"/>
      <point x="486.0" y="427.0"/>
      <point x="486.0" y="427.0"/>
      <point x="486.0" y="394.0" type="qcurve" smooth="yes"/>
      <point x="486.0" y="186.0" type="line" smooth="yes"/>
      <point x="486.0" y="153.0"/>
      <point x="486.0" y="153.0"/>
      <point x="453.0" y="153.0" type="qcurve" smooth="yes"/>
    </contour>
    <contour>
      <point x="416.0" y="640.0" type="qcurve" smooth="yes"/>
      <point x="441.373" y="640.0"/>
      <point x="491.866" y="656.299"/>
      <point x="515.0" y="666.0" type="qcurve"/>
      <point x="515.0" y="792.0" type="line"/>
      <point x="481.418" y="770.358"/>
      <point x="435.418" y="755.0"/>
      <point x="419.0" y="755.0" type="qcurve"/>
      <point x="368.254" y="761.716"/>
      <point x="287.239" y="817.0"/>
      <point x="235.0" y="817.0" type="qcurve" smooth="yes"/>
      <point x="212.612" y="817.0"/>
      <point x="162.388" y="798.955"/>
      <point x="140.0" y="790.0" type="qcurve"/>
      <point x="140.0" y="666.0" type="line"/>
      <point x="174.328" y="695.104"/>
      <point x="212.06" y="702.0"/>
      <point x="224.0" y="702.0" type="qcurve" smooth="yes"/>
      <point x="289.0" y="702.0"/>
      <point x="358.0" y="640.0"/>
    </contour>
  </outline>
</glyph>
<glyph name="divide" format="2">
  <advance width="519.0"/>
  <unicode hex="00F7"/>
  <outline>
    <contour>
      <point x="497.0" y="393.0" type="line"/>
      <point x="7.0" y="393.0" type="line"/>
      <point x="7.0" y="240.0" type="line"/>
      <point x="497.0" y="240.0" type="line"/>
    </contour>
    <contour>
      <point x="183.0" y="153.0" type="line"/>
      <point x="183.0" y="0.0" type="line"/>
      <point x="336.0" y="0.0" type="line"/>
      <point x="336.0" y="153.0" type="line"/>
    </contour>
    <contour>
      <point x="336.0" y="616.0" type="line"/>
      <point x="183.0" y="616.0" type="line"/>
      <point x="183.0" y="462.0" type="line"/>
      <point x="336.0" y="462.0" type="line"/>
    </contour>
  </outline>
</glyph>
<glyph name="oslash" format="2">
  <advance width="692.0"/>
  <unicode hex="00F8"/>
  <outline>
    <contour>
      <point x="606.0" y="662.0" type="line"/>
      <point x="-36.0" y="20.0" type="line"/>
      <point x="73.0" y="-90.0" type="line"/>
      <point x="715.0" y="552.0" type="line"/>
    </contour>
    <component base="o"/>
  </outline>
</glyph>
<glyph name="uacute" format="2">
  <advance width="695.0"/>
  <unicode hex="00FA"/>
  <outline>
    <contour>
      <point x="198.0" y="0.0" type="qcurve" smooth="yes"/>
      <point x="496.0" y="0.0" type="line" smooth="yes"/>
      <point x="555.701" y="0.0"/>
      <point x="641.0" y="86.045"/>
      <point x="641.0" y="145.0" type="qcurve" smooth="yes"/>
      <point x="641.0" y="580.0" type="line"/>
      <point x="488.0" y="580.0" type="line"/>
      <point x="488.0" y="186.0" type="line" smooth="yes"/>
      <point x="488.0" y="153.0"/>
      <point x="488.0" y="153.0"/>
      <point x="455.0" y="153.0" type="qcurve" smooth="yes"/>
      <point x="239.0" y="153.0" type="line" smooth="yes"/>
      <point x="206.0" y="153.0"/>
      <point x="206.0" y="153.0"/>
      <point x="206.0" y="186.0" type="qcurve" smooth="yes"/>
      <point x="206.0" y="580.0" type="line"/>
      <point x="53.0" y="580.0" type="line"/>
      <point x="53.0" y="145.0" type="line" smooth="yes"/>
      <point x="53.0" y="86.045"/>
      <point x="138.299" y="0.0"/>
    </contour>
    <contour>
      <point x="273.0" y="639.0" type="line"/>
      <point x="430.0" y="639.0" type="line"/>
      <point x="481.0" y="842.0" type="line"/>
      <point x="324.0" y="842.0" type="line"/>
    </contour>
  </outline>
</glyph>
<glyph name="ucircumflex" format="2">
  <advance width="695.0"/>
  <unicode hex="00FB"/>
  <outline>
    <contour>
      <point x="198.0" y="0.0" type="qcurve" smooth="yes"/>
      <point x="496.0" y="0.0" type="line" smooth="yes"/>
      <point x="555.701" y="0.0"/>
      <point x="641.0" y="86.045"/>
      <point x="641.0" y="145.0" type="qcurve" smooth="yes"/>
      <point x="641.0" y="580.0" type="line"/>
      <point x="488.0" y="580.0" type="line"/>
      <point x="488.0" y="186.0" type="line" smooth="yes"/>
      <point x="488.0" y="153.0"/>
      <point x="488.0" y="153.0"/>
      <point x="455.0" y="153.0" type="qcurve" smooth="yes"/>
      <point x="239.0" y="153.0" type="line" smooth="yes"/>
      <point x="206.0" y="153.0"/>
      <point x="206.0" y="153.0"/>
      <point x="206.0" y="186.0" type="qcurve" smooth="yes"/>
      <point x="206.0" y="580.0" type="line"/>
      <point x="53.0" y="580.0" type="line"/>
      <point x="53.0" y="145.0" type="line" smooth="yes"/>
      <point x="53.0" y="86.045"/>
      <point x="138.299" y="0.0"/>
    </contour>
    <contour>
      <point x="185.0" y="639.0" type="line"/>
      <point x="318.0" y="639.0" type="line"/>
      <point x="343.0" y="683.0" type="line"/>
      <point x="371.0" y="639.0" type="line"/>
      <point x="505.0" y="639.0" type="line"/>
      <point x="395.0" y="823.0" type="line"/>
      <point x="295.0" y="823.0" type="line"/>
    </contour>
  </outline>
</glyph>
<glyph name="yacute" format="2">
  <advance width="688.0"/>
  <unicode hex="00FD"/>
  <outline>
    <contour>
      <point x="134.0" y="-208.0" type="line"/>
      <point x="486.0" y="-208.0" type="line" smooth="yes"/>
      <point x="545.701" y="-208.0"/>
      <point x="631.0" y="-122.701"/>
      <point x="631.0" y="-63.0" type="qcurve" smooth="yes"/>
      <point x="631.0" y="578.0" type="line"/>
      <point x="478.0" y="578.0" type="line"/>
      <point x="478.0" y="186.0" type="line" smooth="yes"/>
      <point x="478.0" y="153.0"/>
      <point x="478.0" y="153.0"/>
      <point x="445.0" y="153.0" type="qcurve" smooth="yes"/>
      <point x="228.0" y="153.0" type="line" smooth="yes"/>
      <point x="195.0" y="153.0"/>
      <point x="195.0" y="153.0"/>
      <point x="195.0" y="186.0" type="qcurve" smooth="yes"/>
      <point x="195.0" y="578.0" type="line"/>
      <point x="42.0" y="578.0" type="line"/>
      <point x="42.0" y="145.0" type="line" smooth="yes"/>
      <point x="42.0" y="86.045"/>
      <point x="128.299" y="0.0"/>
      <point x="188.0" y="0.0" type="qcurve" smooth="yes"/>
      <point x="478.0" y="0.0" type="line"/>
      <point x="478.0" y="-21.0" type="line" smooth="yes"/>
      <point x="478.0" y="-54.0"/>
      <point x="478.0" y="-54.0"/>
      <point x="445.0" y="-54.0" type="qcurve" smooth="yes"/>
      <point x="134.0" y="-54.0" type="line"/>
    </contour>
    <contour>
      <point x="270.0" y="639.0" type="line"/>
      <point x="427.0" y="639.0" type="line"/>
      <point x="478.0" y="842.0" type="line"/>
      <point x="321.0" y="842.0" type="line"/>
    </contour>
  </outline>
</glyph>
<glyph name="thorn" format="2">
  <advance width="664.0"/>
  <unicode hex="00FE"/>
  <outline>
    <contour>
      <point x="54.0" y="-230.0" type="line"/>
      <point x="207.0" y="-230.0" type="line"/>
      <point x="207.0" y="0.0" type="line"/>
      <point x="497.0" y="0.0" type="line" smooth="yes"/>
      <point x="556.701" y="0.0"/>
      <point x="642.0" y="86.045"/>
      <point x="642.0" y="145.0" type="qcurve" smooth="yes"/>
      <point x="642.0" y="365.0" type="line" smooth="yes"/>
      <point x="642.0" y="424.0"/>
      <point x="557.0" y="510.0"/>
      <point x="497.0" y="510.0" type="qcurve" smooth="yes"/>
      <point x="212.0" y="510.0" type="line"/>
      <point x="212.0" y="720.0" type="line"/>
      <point x="54.0" y="720.0" type="line"/>
    </contour>
    <contour>
      <point x="240.0" y="153.0" type="line" smooth="yes"/>
      <point x="207.0" y="153.0"/>
      <point x="207.0" y="153.0"/>
      <point x="207.0" y="186.0" type="qcurve" smooth="yes"/>
      <point x="207.0" y="324.0" type="line" smooth="yes"/>
      <point x="207.0" y="357.0"/>
      <point x="207.0" y="357.0"/>
      <point x="240.0" y="357.0" type="qcurve" smooth="yes"/>
      <point x="456.0" y="357.0" type="line" smooth="yes"/>
      <point x="489.0" y="357.0"/>
      <point x="489.0" y="357.0"/>
      <point x="489.0" y="324.0" type="qcurve" smooth="yes"/>
      <point x="489.0" y="186.0" type="line" smooth="yes"/>
      <point x="489.0" y="153.0"/>
      <point x="489.0" y="153.0"/>
      <point x="456.0" y="153.0" type="qcurve" smooth="yes"/>
    </contour>
  </outline>
</glyph>
<glyph name="ydieresis" format="2">
  <advance width="688.0"/>
  <unicode hex="00FF"/>
  <outline>
    <contour>
      <point x="134.0" y="-208.0" type="line"/>
      <point x="486.0" y="-208.0" type="line" smooth="yes"/>
      <point x="545.701" y="-208.0"/>
      <point x="631.0" y="-122.701"/>
      <point x="631.0" y="-63.0" type="qcurve" smooth="yes"/>
      <point x="631.0" y="578.0" type="line"/>
      <point x="478.0" y="578.0" type="line"/>
      <point x="478.0" y="186.0" type="line" smooth="yes"/>
      <point x="478.0" y="153.0"/>
      <point x="478.0" y="153.0"/>
      <point x="445.0" y="153.0" type="qcurve" smooth="yes"/>
      <point x="228.0" y="153.0" type="line" smooth="yes"/>
      <point x="195.0" y="153.0"/>
      <point x="195.0" y="153.0"/>
      <point x="195.0" y="186.0" type="qcurve" smooth="yes"/>
      <point x="195.0" y="578.0" type="line"/>
      <point x="42.0" y="578.0" type="line"/>
      <point x="42.0" y="145.0" type="line" smooth="yes"/>
      <point x="42.0" y="86.045"/>
      <point x="128.299" y="0.0"/>
      <point x="188.0" y="0.0" type="qcurve" smooth="yes"/>
      <point x="478.0" y="0.0" type="line"/>
      <point x="478.0" y="-21.0" type="line" smooth="yes"/>
      <point x="478.0" y="-54.0"/>
      <point x="478.0" y="-54.0"/>
      <point x="445.0" y="-54.0" type="qcurve" smooth="yes"/>
      <point x="134.0" y="-54.0" type="line"/>
    </contour>
    <contour>
      <point x="175.0" y="640.0" type="line"/>
      <point x="328.0" y="640.0" type="line"/>
      <point x="328.0" y="794.0" type="line"/>
      <point x="175.0" y="794.0" type="line"/>
    </contour>
    <contour>
      <point x="388.0" y="640.0" type="line"/>
      <point x="542.0" y="640.0" type="line"/>
      <point x="542.0" y="794.0" type="line"/>
      <point x="388.0" y="794.0" type="line"/>
    </contour>
  </outline>
</glyph>
<glyph name="OE" format="2">
  <advance width="1374.0"/>
  <unicode hex="0152"/>
  <outline>
    <contour>
      <point x="201.0" y="0.0" type="qcurve" smooth="yes"/>
      <point x="1282.0" y="0.0" type="line"/>
      <point x="1282.0" y="156.0" type="line"/>
      <point x="773.0" y="156.0" type="line"/>
      <point x="773.0" y="282.0" type="line"/>
      <point x="1182.0" y="282.0" type="line"/>
      <point x="1182.0" y="438.0" type="line"/>
      <point x="773.0" y="438.0" type="line"/>
      <point x="773.0" y="564.0" type="line"/>
      <point x="1282.0" y="564.0" type="line"/>
      <point x="1282.0" y="720.0" type="line"/>
      <point x="201.0" y="720.0" type="line" smooth="yes"/>
      <point x="140.552" y="720.0"/>
      <point x="53.0" y="633.194"/>
      <point x="53.0" y="572.0" type="qcurve" smooth="yes"/>
      <point x="53.0" y="148.0" type="line" smooth="yes"/>
      <point x="53.0" y="86.806"/>
      <point x="140.552" y="0.0"/>
    </contour>
    <contour>
      <point x="243.0" y="156.0" type="line" smooth="yes"/>
      <point x="210.0" y="156.0"/>
      <point x="210.0" y="156.0"/>
      <point x="210.0" y="189.0" type="qcurve" smooth="yes"/>
      <point x="210.0" y="531.0" type="line" smooth="yes"/>
      <point x="210.0" y="564.0"/>
      <point x="210.0" y="564.0"/>
      <point x="243.0" y="564.0" type="qcurve" smooth="yes"/>
      <point x="585.0" y="564.0" type="line" smooth="yes"/>
      <point x="618.0" y="564.0"/>
      <point x="618.0" y="564.0"/>
      <point x="618.0" y="531.0" type="qcurve" smooth="yes"/>
      <point x="618.0" y="189.0" type="line" smooth="yes"/>
      <point x="618.0" y="156.0"/>
      <point x="618.0" y="156.0"/>
      <point x="585.0" y="156.0" type="qcurve" smooth="yes"/>
    </contour>
  </outline>
</glyph>
<glyph name="oe" format="2">
  <advance width="1177.0"/>
  <unicode hex="0153"/>
  <outline>
    <contour>
      <point x="198.0" y="0.0" type="qcurve" smooth="yes"/>
      <point x="1076.0" y="0.0" type="line"/>
      <point x="1076.0" y="153.0" type="line"/>
      <point x="674.0" y="153.0" type="line" smooth="yes"/>
      <point x="641.0" y="153.0"/>
      <point x="641.0" y="153.0"/>
      <point x="641.0" y="186.0" type="qcurve" smooth="yes"/>
      <point x="641.0" y="213.0" type="line"/>
      <point x="1076.0" y="213.0" type="line"/>
      <point x="1076.0" y="435.0" type="line" smooth="yes"/>
      <point x="1076.0" y="493.955"/>
      <point x="991.701" y="580.0"/>
      <point x="932.0" y="580.0" type="qcurve" smooth="yes"/>
      <point x="198.0" y="580.0" type="line" smooth="yes"/>
      <point x="137.552" y="580.0"/>
      <point x="52.0" y="493.955"/>
      <point x="52.0" y="435.0" type="qcurve" smooth="yes"/>
      <point x="52.0" y="145.0" type="line" smooth="yes"/>
      <point x="52.0" y="86.045"/>
      <point x="137.552" y="0.0"/>
    </contour>
    <contour>
      <point x="238.0" y="153.0" type="line" smooth="yes"/>
      <point x="205.0" y="153.0"/>
      <point x="205.0" y="153.0"/>
      <point x="205.0" y="186.0" type="qcurve" smooth="yes"/>
      <point x="205.0" y="394.0" type="line" smooth="yes"/>
      <point x="205.0" y="427.0"/>
      <point x="205.0" y="427.0"/>
      <point x="238.0" y="427.0" type="qcurve" smooth="yes"/>
      <point x="455.0" y="427.0" type="line" smooth="yes"/>
      <point x="488.0" y="427.0"/>
      <point x="488.0" y="427.0"/>
      <point x="488.0" y="394.0" type="qcurve" smooth="yes"/>
      <point x="488.0" y="186.0" type="line" smooth="yes"/>
      <point x="488.0" y="153.0"/>
      <point x="488.0" y="153.0"/>
      <point x="455.0" y="153.0" type="qcurve" smooth="yes"/>
    </contour>
    <contour>
      <point x="641.0" y="347.0" type="line"/>
      <point x="641.0" y="394.0" type="line" smooth="yes"/>
      <point x="641.0" y="427.0"/>
      <point x="641.0" y="427.0"/>
      <point x="674.0" y="427.0" type="qcurve" smooth="yes"/>
      <point x="890.0" y="427.0" type="line" smooth="yes"/>
      <point x="923.0" y="427.0"/>
      <point x="923.0" y="427.0"/>
      <point x="923.0" y="394.0" type="qcurve" smooth="yes"/>
      <point x="923.0" y="347.0" type="line"/>
    </contour>
  </outline>
</glyph>
<glyph name="Scaron" format="2">
  <advance width="822.0"/>
  <unicode hex="0160"/>
  <outline>
    <contour>
      <point x="199.0" y="0.0" type="qcurve" smooth="yes"/>
      <point x="623.0" y="0.0" type="line" smooth="yes"/>
      <point x="683.448" y="0.0"/>
      <point x="771.0" y="86.806"/>
      <point x="771.0" y="148.0" type="qcurve" smooth="yes"/>
      <point x="771.0" y="290.0" type="line" smooth="yes"/>
      <point x="771.0" y="351.194"/>
      <point x="683.448" y="438.0"/>
      <point x="623.0" y="438.0" type="qcurve" smooth="yes"/>
      <point x="239.0" y="438.0" type="line" smooth="yes"/>
      <point x="206.0" y="438.0"/>
      <point x="206.0" y="438.0"/>
      <point x="206.0" y="471.0" type="qcurve" smooth="yes"/>
      <point x="206.0" y="531.0" type="line" smooth="yes"/>
      <point x="206.0" y="564.0"/>
      <point x="206.0" y="564.0"/>
      <point x="239.0" y="564.0" type="qcurve" smooth="yes"/>
      <point x="581.0" y="564.0" type="line" smooth="yes"/>
      <point x="614.0" y="564.0"/>
      <point x="614.0" y="564.0"/>
      <point x="614.0" y="531.0" type="qcurve" smooth="yes"/>
      <point x="614.0" y="505.0" type="line"/>
      <point x="771.0" y="505.0" type="line"/>
      <point x="771.0" y="572.0" type="line" smooth="yes"/>
      <point x="771.0" y="633.194"/>
      <point x="683.448" y="720.0"/>
      <point x="623.0" y="720.0" type="qcurve" smooth="yes"/>
      <point x="199.0" y="720.0" type="line" smooth="yes"/>
      <point x="137.806" y="720.0"/>
      <point x="51.0" y="633.194"/>
      <point x="51.0" y="572.0" type="qcurve" smooth="yes"/>
      <point x="51.0" y="430.0" type="line" smooth="yes"/>
      <point x="51.0" y="368.806"/>
      <point x="137.806" y="282.0"/>
      <point x="199.0" y="282.0" type="qcurve" smooth="yes"/>
      <point x="581.0" y="282.0" type="line" smooth="yes"/>
      <point x="614.0" y="282.0"/>
      <point x="614.0" y="282.0"/>
      <point x="614.0" y="249.0" type="qcurve" smooth="yes"/>
      <point x="614.0" y="189.0" type="line" smooth="yes"/>
      <point x="614.0" y="156.0"/>
      <point x="614.0" y="156.0"/>
      <point x="581.0" y="156.0" type="qcurve" smooth="yes"/>
      <point x="239.0" y="156.0" type="line" smooth="yes"/>
      <point x="206.0" y="156.0"/>
      <point x="206.0" y="156.0"/>
      <point x="206.0" y="189.0" type="qcurve" smooth="yes"/>
      <point x="206.0" y="215.0" type="line"/>
      <point x="51.0" y="215.0" type="line"/>
      <point x="51.0" y="148.0" type="line" smooth="yes"/>
      <point x="51.0" y="86.806"/>
      <point x="137.806" y="0.0"/>
    </contour>
    <contour>
      <point x="369.0" y="769.0" type="line"/>
      <point x="469.0" y="769.0" type="line"/>
      <point x="579.0" y="953.0" type="line"/>
      <point x="444.0" y="953.0" type="line"/>
      <point x="417.0" y="909.0" type="line"/>
      <point x="390.0" y="953.0" type="line"/>
      <point x="259.0" y="953.0" type="line"/>
    </contour>
  </outline>
</glyph>
<glyph name="Ydieresis" format="2">
  <advance width="806.0"/>
  <unicode hex="0178"/>
  <outline>
    <contour>
      <point x="350.0" y="0.0" type="line"/>
      <point x="506.0" y="0.0" type="line"/>
      <point x="506.0" y="268.0" type="line"/>
      <point x="840.0" y="720.0" type="line"/>
      <point x="653.0" y="720.0" type="line"/>
      <point x="428.0" y="436.0" type="line"/>
      <point x="202.0" y="720.0" type="line"/>
      <point x="17.0" y="720.0" type="line"/>
      <point x="350.0" y="269.0" type="line"/>
    </contour>
    <contour>
      <point x="244.0" y="770.0" type="line"/>
      <point x="397.0" y="770.0" type="line"/>
      <point x="397.0" y="924.0" type="line"/>
      <point x="244.0" y="924.0" type="line"/>
    </contour>
    <contour>
      <point x="457.0" y="770.0" type="line"/>
      <point x="611.0" y="770.0" type="line"/>
      <point x="611.0" y="924.0" type="line"/>
      <point x="457.0" y="924.0" type="line"/>
    </contour>
  </outline>
</glyph>
<glyph name="Zcaron" format="2">
  <advance width="821.0"/>
  <unicode hex="017D"/>
  <outline>
    <contour>
      <point x="51.0" y="564.0" type="line"/>
      <point x="533.0" y="564.0" type="line"/>
      <point x="51.0" y="159.0" type="line"/>
      <point x="51.0" y="0.0" type="line"/>
      <point x="771.0" y="0.0" type="line"/>
      <point x="771.0" y="156.0" type="line"/>
      <point x="289.0" y="156.0" type="line"/>
      <point x="771.0" y="561.0" type="line"/>
      <point x="771.0" y="720.0" type="line"/>
      <point x="51.0" y="720.0" type="line"/>
    </contour>
    <contour>
      <point x="258.0" y="953.0" type="line"/>
      <point x="368.0" y="769.0" type="line"/>
      <point x="468.0" y="769.0" type="line"/>
      <point x="578.0" y="953.0" type="line"/>
      <point x="443.0" y="953.0" type="line"/>
      <point x="416.0" y="909.0" type="line"/>
      <point x="389.0" y="953.0" type="line"/>
    </contour>
  </outline>
</glyph>
<glyph name="zcaron" format="2">
  <advance width="698.0"/>
  <unicode hex="017E"/>
  <outline>
    <contour>
      <point x="54.0" y="427.0" type="line"/>
      <point x="403.0" y="427.0" type="line"/>
      <point x="54.0" y="157.0" type="line"/>
      <point x="54.0" y="0.0" type="line"/>
      <point x="642.0" y="0.0" type="line"/>
      <point x="642.0" y="153.0" type="line"/>
      <point x="293.0" y="153.0" type="line"/>
      <point x="642.0" y="423.0" type="line"/>
      <point x="642.0" y="580.0" type="line"/>
      <point x="54.0" y="580.0" type="line"/>
    </contour>
    <contour>
      <point x="197.0" y="835.0" type="line"/>
      <point x="307.0" y="651.0" type="line"/>
      <point x="407.0" y="651.0" type="line"/>
      <point x="517.0" y="835.0" type="line"/>
      <point x="382.0" y="835.0" type="line"/>
      <point x="355.0" y="791.0" type="line"/>
      <point x="328.0" y="835.0" type="line"/>
    </contour>
  </outline>
</glyph>
<glyph name="circumflex" format="2">
  <advance width="300.0"/>
  <unicode hex="02C6"/>
  <outline>
    <contour>
      <point x="161.0" y="746.0" type="line"/>
      <point x="186.0" y="790.0" type="line"/>
      <point x="214.0" y="746.0" type="line"/>
      <point x="348.0" y="746.0" type="line"/>
      <point x="238.0" y="930.0" type="line"/>
      <point x="138.0" y="930.0" type="line"/>
      <point x="28.0" y="746.0" type="line"/>
    </contour>
  </outline>
</glyph>
<glyph name="caron" format="2">
  <advance width="297.0"/>
  <unicode hex="02C7"/>
  <outline>
    <contour>
      <point x="27.0" y="930.0" type="line"/>
      <point x="137.0" y="746.0" type="line"/>
      <point x="237.0" y="746.0" type="line"/>
      <point x="347.0" y="930.0" type="line"/>
      <point x="212.0" y="930.0" type="line"/>
      <point x="185.0" y="886.0" type="line"/>
      <point x="158.0" y="930.0" type="line"/>
    </contour>
  </outline>
</glyph>
